<svg width="456" height="418" xmlns="http://www.w3.org/2000/svg"><g fill-rule="nonzero" fill="none"><g fill="#DBC7BE"><path d="M37.673 385.56H420.093c.746 0 .746-1.178 0-1.178H37.673c-.785 0-.785 1.177 0 1.177zM123.183 393.997h141.823c.745 0 .745-1.178 0-1.178H123.183c-.746 0-.746 1.178 0 1.178zM246.797 402.394h136.486c.746 0 .746-1.177 0-1.177H246.797c-.745 0-.745 1.177 0 1.177zM43.873 395.762H88.61c.746 0 .746-1.177 0-1.177H43.873c-.785 0-.785 1.177 0 1.177zM74.797 349.22a192.596 192.596 0 008.005 34.534c.236.707 1.374.393 1.138-.314a193.379 193.379 0 01-8.005-34.533c-.118-.746-1.256-.432-1.138.314z"/><path d="M75.267 349.692c13.97 5.14 29.315 5.69 43.638 1.57.746-.197.432-1.335-.314-1.139-14.127 4.081-29.196 3.493-43.01-1.57-.706-.274-1.02.864-.314 1.139z"/><path d="M118.16 350.908c-.903 11.42-2.473 22.722-4.788 33.945-.157.746.981 1.06 1.138.314a264.604 264.604 0 004.827-34.259c.078-.746-1.099-.746-1.177 0zM87.707 351.732c-4.316-3.65-7.142-8.594-8.123-14.166-.118.235-.275.47-.392.706 1.02-.236 1.805-.118 2.707.392.51.314 1.06-.314.825-.824-.668-1.255-1.295-2.472-1.963-3.728-.313-.628-.667-1.216-.98-1.844-.51-1.099-1.02-3.964 1.098-3.532.471.078.824-.275.707-.706-1.374-6.868-2.708-13.853-3.14-20.838-.196-3.218-.157-6.515.589-9.693.353-1.53.863-3.022 1.53-4.435.471-.98.785-2.197 2.355-1.412.55.274 1.099.98 1.53 1.452 4.12 4.316 6.24 10.124 7.77 15.775 1.805 6.475 3.297 13.068 4.592 19.66 1.57 8.006 2.511 16.13 2.237 24.331-.04.746 1.138.746 1.177 0 .275-8.005-.667-16.01-2.159-23.899-1.412-7.534-3.1-15.108-5.337-22.446-1.765-5.808-4.355-11.93-9.222-15.854-4.552-3.65-6.2 9.379-6.318 11.89-.353 8.555 1.53 17.424 3.218 25.783l.707-.707c-1.727-.353-3.061.942-3.14 2.669-.039 1.255.628 2.433 1.177 3.492.825 1.57 1.61 3.1 2.434 4.67l.824-.824c-1.178-.667-2.316-.824-3.61-.51-.315.078-.472.432-.393.706 1.02 5.73 3.963 10.91 8.398 14.677.667.51 1.491-.314.902-.785z"/><path d="M98.381 329.128c-.117-4.277 1.884-8.123 4.003-11.733 2.08-3.571 4.474-6.946 7.103-10.164-.314-.079-.667-.157-.981-.275.196.55.392 1.138.628 1.688.157.47.785.588 1.06.157 3.06-4.513 6.357-8.83 9.928-12.95-.353-.157-.667-.275-1.02-.432.157 5.65-.275 11.263-1.413 16.796-.903 4.316-1.805 11.145-6.397 13.107-.588.275-.196 1.02.314 1.099 4.435.55-.353 9.182-1.177 11.42-1.844 4.983-3.453 10.085-5.023 15.147-.236.706.902 1.02 1.138.314 1.884-5.965 3.728-12.008 6.083-17.816.667-1.61 1.687-3.218 2.04-4.945.471-2.394-.353-4.984-3.022-5.298.118.354.197.746.314 1.1 4.553-1.963 5.651-8.085 6.632-12.362a73.757 73.757 0 001.766-18.562c0-.471-.667-.824-1.02-.432a150.518 150.518 0 00-10.125 13.186c.354.039.707.078 1.06.157-.196-.55-.392-1.138-.628-1.688-.118-.392-.667-.628-.981-.274-2.825 3.453-5.415 7.103-7.613 10.988-2.08 3.61-3.924 7.456-3.807 11.733-.039.824 1.138.824 1.138.04zM75.66 349.535c1.334-.432 2.865.157 4.199.353 1.491.196 2.982.314 4.474.353.745 0 .745-1.177 0-1.177-1.884-.04-3.729-.197-5.573-.55-1.177-.196-2.237-.51-3.414-.117-.706.235-.432 1.373.314 1.138z"/><path d="M107.172 351.104c3.846.079 7.691.236 11.498.471.745.04.745-1.138 0-1.177a281.483 281.483 0 00-11.498-.471c-.746-.04-.746 1.138 0 1.177zM80.369 350.476c1.609.393 3.218.785 4.788 1.138.745.197 1.06-.941.314-1.138-1.61-.392-3.218-.784-4.788-1.138-.746-.157-1.06.981-.314 1.138z"/><path d="M107.133 350.359c-.903.196-1.178 1.412-.275 1.844.863.393 2.63-.078 3.532-.118 1.373-.078 2.747-.196 4.12-.274.746-.04.746-1.217 0-1.178-1.256.079-2.55.157-3.806.275l-1.766.118c-.275.04-.589.04-.864.078-.51-.157-.706 0-.588.432.706-.196.392-1.334-.353-1.177zM81.154 377.28a25.29 25.29 0 006.514 7.612c.589.471 1.413-.353.824-.824-2.59-2.04-4.709-4.474-6.318-7.377-.353-.707-1.373-.079-1.02.588zM76.876 360.797c5.69 9.105 12.754 17.228 21.034 24.095.59.471 1.413-.353.825-.824a98.651 98.651 0 01-20.878-23.86c-.353-.667-1.373-.078-.98.59zM79.074 350.594c3.767 6.671 7.692 13.343 12.91 18.994 5.495 5.925 12.127 10.948 18.563 15.736.628.47 1.177-.589.588-1.02-6.396-4.749-12.91-9.693-18.326-15.54-5.14-5.573-8.987-12.205-12.715-18.758-.392-.668-1.412-.079-1.02.588zM90.611 353.263c6.122 9.693 14.442 17.816 24.33 23.663.668.392 1.257-.628.59-1.02-9.693-5.769-17.895-13.735-23.9-23.271-.431-.589-1.451 0-1.02.628zM103.954 353.969c3.296 4.827 7.26 9.144 11.851 12.754.589.47 1.413-.353.824-.824a56.051 56.051 0 01-11.655-12.519c-.431-.628-1.452-.039-1.02.589zM112.509 352.988a35.28 35.28 0 005.062 5.73c.55.51 1.413-.315.824-.825-1.844-1.648-3.453-3.492-4.905-5.494-.393-.588-1.452 0-.981.589zM336.663 354.244c1.295 10.36 3.257 20.641 6.004 30.727.196.745 1.334.431 1.138-.314-2.708-9.968-4.67-20.132-5.965-30.413-.117-.746-1.295-.746-1.177 0z"/><path d="M337.33 354.518a61.908 61.908 0 0032.336.118c.746-.196.432-1.334-.314-1.138a60.367 60.367 0 01-31.708-.118c-.746-.196-1.02.903-.314 1.138z"/><path d="M369.077 354.244a119.264 119.264 0 01-6.004 30.57c-.235.706.903 1.02 1.138.314a122.018 122.018 0 006.044-30.884c.039-.746-1.138-.746-1.178 0zM347.102 355.303c-2.041-2.707-3.65-5.69-4.631-8.947-.471-1.57-.824-3.14-1.06-4.788-.196-1.49-1.06-4.591 1.178-4.513.353 0 .706-.392.549-.745-.51-1.57-.824-3.061-.903-4.71-.157.197-.274.393-.431.55 1.138-.392 1.609-1.295 1.805-2.433.392-2.276.196-4.788.235-7.103.157-5.337.275-10.674.432-16.05-.314.157-.589.353-.903.51 3.454 2.355 5.063 7.142 6.397 10.949 1.374 4.002 2.315 8.162 2.904 12.322 1.217 8.555 1.099 17.227.667 25.86-.04.746 1.138.746 1.177 0 .432-9.182.55-18.443-.941-27.508-.746-4.513-1.845-8.987-3.532-13.225-1.374-3.453-2.904-7.22-6.083-9.38-.392-.274-.863.08-.902.511-.118 4.081-.197 8.163-.314 12.205-.04 2.04-.118 4.08-.157 6.121-.04 1.295.51 5.534-1.138 6.122-.236.079-.432.314-.432.55a18.33 18.33 0 00.942 5.023c.196-.236.392-.51.55-.746-1.178-.04-2.395.236-2.59 1.491-.276 2.002.195 4.435.588 6.436.902 4.395 2.825 8.516 5.494 12.126.51.589 1.53 0 1.099-.628z"/><path d="M353.93 328.579c1.02-3.532 2.197-7.024 3.414-10.478-.275.118-.589.236-.863.353.392.236.784.51 1.216.746.275.157.628.04.824-.196 2.826-4.71 5.651-9.38 8.477-14.088-.354-.118-.746-.197-1.1-.314a103.729 103.729 0 01-7.965 50.976c-.314.706.706 1.295 1.02.589 6.985-16.208 9.81-33.985 8.123-51.565-.04-.55-.785-.824-1.099-.314-2.825 4.709-5.65 9.379-8.476 14.088.275-.079.55-.157.824-.196-.392-.236-.785-.51-1.217-.746-.353-.196-.745 0-.863.353a163.15 163.15 0 00-3.414 10.478c-.235.706.903 1.02 1.099.314zM337.88 354.558c2.236.078 4.434.196 6.67.274.746.04.746-1.138 0-1.177-2.236-.078-4.434-.196-6.67-.275-.746-.039-.746 1.138 0 1.178z"/><path d="M343.334 354.793c.746.314 1.53.589 2.316.706.745.118 1.06-1.02.314-1.138a8.744 8.744 0 01-2.041-.588c-.706-.275-1.295.706-.589 1.02zM359.541 355.225c3.258-.471 6.476-.785 9.772-.981.746-.04.746-1.217 0-1.178-3.375.197-6.75.51-10.085 1.02-.746.118-.432 1.257.313 1.139z"/><path d="M359.15 355.774c1.726-.275 3.492-.431 5.258-.588.745-.04.745-1.217 0-1.178-1.884.118-3.728.353-5.573.628-.745.118-.432 1.217.314 1.138zM338.311 360.248c2.59-.079 4.71 1.452 7.22 1.805 2.787.392 4.514-1.923 7.143-1.884 2.63.04 4.905 1.766 7.574 1.766a8.445 8.445 0 003.414-.706c1.57-.628 3.022-1.884 4.788-1.177.706.274 1.02-.864.314-1.138-2.434-.942-4.396 1.06-6.672 1.609-3.218.784-5.768-1.138-8.83-1.492-2.864-.314-4.865 2.237-7.652 1.845-2.511-.393-4.67-1.884-7.299-1.766-.785 0-.785 1.177 0 1.138zM338.821 366.448a41.464 41.464 0 0029.707.314c.706-.275.392-1.413-.314-1.138a40.597 40.597 0 01-29.079-.314c-.706-.275-1.02.863-.314 1.138zM2.237 198.058v71.657c0 .746 1.177.746 1.177 0v-71.657c0-.785-1.177-.785-1.177 0z"/><path d="M3.022 198.49h48.857c.745 0 .745-1.178 0-1.178H3.022c-.746 0-.746 1.178 0 1.178z"/><path d="M51.997 197.9v71.148c0 .745 1.177.745 1.177 0V197.9c0-.785-1.177-.785-1.177 0z"/><path d="M3.375 270.46h49.014c.746 0 .746-1.177 0-1.177H3.375c-.746 0-.746 1.178 0 1.178zM48.19 203.905c-.589-.157-1.217-.628-1.177-1.334a1.078 1.078 0 011.53-.942c.589.275 1.06.942.942 1.57-.04.588-.785 1.098-1.295.706-.589-.51-1.452.314-.863.824.98.785 2.433.51 3.1-.589.706-1.255-.079-2.864-1.256-3.492a2.25 2.25 0 00-3.218 1.334c-.431 1.374.589 2.747 1.923 3.061.746.157 1.06-.981.314-1.138zM46.62 264.3c-.55-.471-.706-1.413-.157-1.963.589-.628 1.688-.431 2.12.275.274.471.667 1.687 0 2.04-.354.197-.825-.117-1.1-.313a6.955 6.955 0 00-1.216-.589c-.706-.275-1.02.863-.314 1.138.746.275 1.334.824 2.12.981a1.667 1.667 0 001.647-.667c.746-1.099.314-2.865-.588-3.767-.981-.942-2.747-.864-3.61.196-.864 1.02-.707 2.63.274 3.493.55.549 1.413-.314.824-.825zM6.122 202.767c9.771-.04 19.543-.04 29.275-.079.746 0 .746-1.177 0-1.177-9.772.04-19.543.04-29.275.079-.746 0-.746 1.177 0 1.177zM6.122 205.592c4.003.275 8.084.903 12.087.157.745-.157.431-1.255-.314-1.138-3.846.707-7.888.079-11.773-.196-.746-.04-.746 1.138 0 1.177zM6.71 265.594c-.313-.117-.431-.549-.392-.863.079-.432.51-.588.903-.51.51.078.902.432.941.942.04.392-.431 1.02-.863.667-.589-.471-1.413.353-.824.824a1.777 1.777 0 002.786-.785c.393-1.138-.314-2.394-1.452-2.747-1.02-.314-2.237.118-2.55 1.177-.314.982.196 2.08 1.177 2.394.706.275 1.02-.824.274-1.099zM7.417 215.09H38.89c.745 0 .745-1.178 0-1.178H7.417c-.746 0-.746 1.177 0 1.177zM9.183 218.974h24.762c.746 0 .746-1.177 0-1.177H9.183c-.746 0-.746 1.177 0 1.177zM8.83 225.724h23.86c.745 0 .745-1.177 0-1.177H8.83c-.746 0-.746 1.177 0 1.177zM1.373 165.133v-5.298c0-.745-1.177-.745-1.177 0v5.298c0 .746 1.177.746 1.177 0z"/><path d="M1.177 159.718h128.206c.746 0 .746-1.178 0-1.178H1.177c-.745 0-.745 1.178 0 1.178zM.903 165.84h128.794c.746 0 .746-1.178 0-1.178H.903c-.785 0-.785 1.178 0 1.178z"/><path d="M129.265 159.168v5.534c0 .745 1.178.745 1.178 0v-5.534c0-.745-1.178-.745-1.178 0zM64.044 158.815v-8.555c0-.745-1.177-.745-1.177 0v8.555c0 .746 1.177.746 1.177 0zM67.615 149.515v8.555c0 .745 1.177.745 1.177 0v-8.555c0-.785-1.177-.785-1.177 0z"/><path d="M68.243 150.103h27.352c.746 0 .746-1.177 0-1.177H68.243c-.746 0-.746 1.177 0 1.177z"/><path d="M96.34 149.358v-33.514c0-.745-1.176-.745-1.176 0v33.514c0 .745 1.177.745 1.177 0z"/><path d="M95.752 115.177H38.536c-.745 0-.745 1.178 0 1.178h57.216c.746 0 .746-1.178 0-1.178z"/><path d="M37.673 115.844v30.884c0 .746 1.177.746 1.177 0v-30.884c0-.745-1.177-.745-1.177 0zM63.377 149.554h-24.92c-.745 0-.745 1.177 0 1.177h24.92c.746 0 .746-1.177 0-1.177z"/><path d="M37.673 145.669v3.924c0 .746 1.177.746 1.177 0v-3.924c0-.746-1.177-.746-1.177 0zM41.087 118.474v27.901c0 .746 1.177.746 1.177 0v-27.901c0-.746-1.177-.746-1.177 0z"/><path d="M41.833 147.042h49.799c.745 0 .745-1.177 0-1.177h-49.8c-.745 0-.745 1.177 0 1.177z"/><path d="M92.417 145.865v-26.41c0-.746-1.178-.746-1.178 0v26.41c0 .746 1.178.746 1.178 0z"/><path d="M41.95 118.984h49.878c.745 0 .745-1.177 0-1.177H41.95c-.784 0-.784 1.177 0 1.177z"/><path d="M91.122 118.984v.275c0 .313.274.588.588.588a.604.604 0 00.589-.588v-.275a.604.604 0 00-.589-.589c-.314.04-.588.275-.588.589zM327.088 181.93c5.22 1.49 10.87 1.647 16.207 2.236 6.043.667 12.087 1.295 18.13 1.962 11.97 1.295 23.899 2.55 35.868 3.846.746.078.746-1.099 0-1.177l-35.083-3.768a2598.988 2598.988 0 00-17.345-1.844c-5.769-.628-11.89-.746-17.463-2.355-.707-.235-1.02.903-.314 1.1z"/><path d="M411.028 163.838a188.138 188.138 0 01-13.5 25.272c-.392.628.628 1.217 1.02.59a188.138 188.138 0 0013.5-25.273c.314-.667-.706-1.256-1.02-.589zM327.794 181.537c8.006-5.769 15.776-11.89 23.193-18.366.588-.51-.275-1.334-.825-.824-7.377 6.397-15.03 12.48-22.956 18.17-.59.431 0 1.49.588 1.02z"/><path d="M350.83 163.014c9.967-1.177 20.053-.392 30.06.118l30.53 1.53c.746.04.746-1.138 0-1.177l-30.53-1.53c-10.007-.51-20.093-1.295-30.06-.118-.746.078-.746 1.256 0 1.177zM363.623 170.47c-.628 1.06-1.295 2.08-1.923 3.14-.236.353.078.902.51.902 1.413-.039 2.825-.039 4.238.157.785.079 2.12.628 2.943.353 1.256-.431 2.12-2.747 2.63-3.767.353-.667-.667-1.256-1.02-.589-.354.668-.707 1.53-1.178 2.12-.824.98-1.609.98-2.786.784-1.61-.235-3.218-.274-4.827-.235.157.314.353.589.51.903.628-1.06 1.295-2.08 1.923-3.14.392-.667-.628-1.256-1.02-.628z"/><path d="M364.408 171.059c2.276-.589 4.473-.589 6.67.353.707.314 1.296-.706.59-1.02-2.512-1.1-4.984-1.178-7.614-.471-.706.196-.392 1.334.354 1.138zM346.277 171.961a21.11 21.11 0 016.083.628c.746.197 1.06-.941.314-1.138-2.12-.51-4.238-.745-6.397-.667-.745.04-.745 1.217 0 1.177z"/><path d="M346.513 171.451c1.256-1.373 2.59-2.668 3.963-3.924.55-.51-.274-1.334-.824-.824-1.373 1.256-2.668 2.59-3.963 3.924-.51.55.314 1.413.824.824z"/><path d="M349.692 167.566c1.726.864 3.963.628 5.886.667.746.04.746-1.138 0-1.177-1.609-.04-3.807.236-5.298-.51-.667-.314-1.256.667-.588 1.02z"/><path d="M354.715 167.488c-.942 1.295-1.884 2.629-2.747 4.003-.393.627.628 1.216 1.02.588a55.554 55.554 0 012.747-4.003c.432-.627-.589-1.216-1.02-.588zM402.67 111.96v35.71c0 .746 1.176.746 1.176 0v-35.71c0-.785-1.177-.785-1.177 0z"/><path d="M403.533 148.259h51.486c.746 0 .746-1.177 0-1.177h-51.486c-.785 0-.785 1.177 0 1.177z"/><path d="M455.647 147.592c-.118-11.852-.275-23.703-.393-35.515 0-.746-1.177-.746-1.177 0 .118 11.851.275 23.703.393 35.515 0 .745 1.177.745 1.177 0z"/><path d="M403.415 112.234h50.466c.746 0 .746-1.177 0-1.177h-50.466c-.746 0-.746 1.177 0 1.177z"/><path d="M428.687 111.096c-.157-1.06-.118-2.158.196-3.218.236-.902 1.06-3.022 2.394-2.354.785.392 1.02 1.805 1.138 2.59.157 1.06.157 2.119.04 3.178-.08.746 1.098.746 1.177 0 .196-1.962.196-7.338-3.022-7.063-2.982.274-3.375 5.023-3.06 7.181.117.746 1.255.432 1.137-.314zM341.411 46.306v43.285c0 .746 1.178.746 1.178 0V46.306c0-.745-1.178-.745-1.178 0z"/><path d="M342.353 90.18h62.357c.745 0 .745-1.178 0-1.178h-62.357c-.745 0-.745 1.178 0 1.178z"/><path d="M405.377 89.473l-.471-43.049c0-.746-1.177-.746-1.177 0l.47 43.05c0 .745 1.178.745 1.178 0z"/><path d="M342.235 46.542h61.14c.746 0 .746-1.177 0-1.177h-61.14c-.745 0-.745 1.177 0 1.177z"/><path d="M372.727 45.325a9.645 9.645 0 01.235-3.963c.314-1.138 1.335-3.807 3.1-2.943 1.963.98 1.688 5.337 1.492 7.063-.079.746 1.099.746 1.177 0 .236-2.276.275-8.79-3.532-8.398-3.532.354-3.963 6.004-3.57 8.555.078.746 1.216.432 1.098-.314zM344.747 49.603V85c0 .745 1.177.745 1.177 0V49.603c0-.785-1.177-.785-1.177 0z"/><path d="M345.336 86.373h55.096c.746 0 .746-1.177 0-1.177h-55.096c-.746 0-.785 1.177 0 1.177z"/><path d="M401.806 85.314v-34.77c0-.745-1.177-.745-1.177 0v34.77c0 .745 1.177.745 1.177 0z"/><path d="M345.807 50.034h55.096c.746 0 .746-1.177 0-1.177h-55.096c-.746 0-.746 1.177 0 1.177zM351.928 251.31h56.863c.746 0 .746-1.177 0-1.177h-56.863c-.784 0-.784 1.177 0 1.177zM378.927 252.37v10.83c0 .746 1.178.746 1.178 0v-10.83c0-.785-1.178-.785-1.178 0zM370.333 265.398h28.176c.746 0 .746-1.177 0-1.177h-28.176c-.745 0-.785 1.177 0 1.177zM79.427 224.743v39.007c0 .746 1.177.746 1.177 0v-39.007c0-.746-1.177-.746-1.177 0z"/><path d="M80.016 225.331h57.412c.745 0 .745-1.177 0-1.177H80.016c-.785 0-.785 1.177 0 1.177zM80.055 264.613c19.229-.039 38.458-.039 57.687-.078.745 0 .745-1.177 0-1.177-19.23.039-38.458.039-57.687.078-.746 0-.746 1.177 0 1.177z"/><path d="M137.192 224.9v38.183c0 .746 1.178.746 1.178 0V224.9c0-.746-1.178-.746-1.178 0zM84.372 230.198c-.824-.471-.628-1.806.392-1.845 1.374-.04.55 2.316-.353 1.727-.628-.432-1.217.589-.589 1.02 2.198 1.491 4.2-2.943 1.61-3.806-1.021-.354-2.198.235-2.63 1.216-.432 1.02.04 2.159.942 2.708.706.392 1.295-.628.628-1.02zM86.923 234.554h33.905c.746 0 .746-1.178 0-1.178H86.923c-.785 0-.785 1.178 0 1.178zM87.433 238.713h19.543c.745 0 .745-1.177 0-1.177H87.433c-.785 0-.785 1.177 0 1.177zM88.531 263.554v-12.519c0-.745-1.177-.745-1.177 0v12.519c0 .745 1.177.745 1.177 0z"/><path d="M88.06 251.232h28.412c.746 0 .746-1.178 0-1.178H88.061c-.746 0-.746 1.178 0 1.178z"/><path d="M115.884 250.918v12.4c0 .746 1.177.746 1.177 0v-12.4c0-.785-1.177-.785-1.177 0zM93.869 263.397v-8.202c0-.745-1.178-.745-1.178 0v8.202c0 .785 1.178.785 1.178 0zM98.578 263.397v-8.202c0-.745-1.178-.745-1.178 0v8.202c0 .785 1.178.785 1.178 0zM103.13 263.28v-7.575c0-.745-1.178-.745-1.178 0v7.574c0 .746 1.178.746 1.178 0zM107.839 263.672v-7.81c0-.745-1.177-.745-1.177 0v7.81c0 .745 1.177.745 1.177 0zM112.901 263.004v-7.299c0-.745-1.177-.745-1.177 0v7.3c0 .784 1.177.784 1.177 0zM133.857 228.667c-.471-.196-.55-1.02 0-1.216.235-.079.628-.04.706.235.079.157-.078.55-.314.51-.314-.039-.628.079-.706.393-.079.274.078.667.392.706.942.157 1.766-.55 1.805-1.491.04-.903-.824-1.61-1.687-1.61-.863 0-1.57.55-1.766 1.414-.157.784.157 1.687.903 2.04.745.353 1.334-.667.667-.98z"/></g><g transform="translate(19.229)"><circle fill="#8989C0" cx="313.314" cy="212.146" r="5.298"/><circle fill="#342E52" cx="323.791" cy="203.042" r="2.786"/><circle fill="#342E52" cx="266.929" cy="13.97" r="6.828"/><circle fill="#342E52" cx="59.963" cy="187.305" r="3.728"/><circle fill="#8989C0" cx="64.829" cy="179.496" r="4.003"/><circle fill="#8989C0" cx="260.375" cy="13.107" r="5.965"/><path d="M281.174 103.522c.078-.824.47-1.177 1.138-1.138.353-.078.745-.118 1.099-.04.431 0 .863.08 1.255 0 .628-.117 1.178-.313 1.61-.784.431-.51.51-1.138.627-1.766.353-2.08 1.845-1.373 3.218-1.02 1.53.392 2.786.04 3.807-1.177.55-.668.902-1.492 1.295-2.277.47-.941 2.747-3.845 3.532-1.49.235.706 1.373.392 1.138-.315-.628-1.844-2.865-2.04-4.239-.863-1.216 1.06-1.53 2.708-2.472 3.924-1.609 2.159-3.296.353-5.337.432-.824.04-1.452.47-1.805 1.216-.55 1.138.04 1.649-1.217 2.433-1.138.746-1.452.314-2.668.471-1.57.236-3.218 2.198-1.53 3.375.549.471 1.137-.55.549-.98zM286.393 106.78c-.628-.825-.392-1.256.667-1.374.628-.51 1.334-.589 2.08-.275.353.04.746.118 1.099.157.902.079 1.609-.078 2.394-.432.314-.157.353-.549.196-.824-1.374-2.786 2.904-3.257 4.356-3.335 1.216-.04 2.433 0 3.61-.432 1.491-.589 2.512-1.648 2.669-3.257.078-.746-1.1-.746-1.178 0-.353 3.806-6.632 1.884-8.908 3.296-1.57.942-2.354 2.669-1.53 4.356.078-.274.157-.55.196-.824-2.001.942-4.984-1.099-6.671.903-.824.98-.707 2.394.392 3.1.707.353 1.295-.667.628-1.06z" fill="#342E52"/><path d="M143.118 31.63c-.903-3.454 3.296-6.318 5.926-3.493 2.629 2.825-.55 6.789-3.925 5.651-.706-.236-1.02.903-.313 1.138 4.552 1.53 8.476-4.003 5.062-7.613-3.414-3.65-9.104.04-7.888 4.63.196.746 1.334.432 1.138-.313z" fill="#8989C0"/><path d="M143.981 316.257c3.14 5.298 9.065 8.437 15.227 8.005.745-.039.745-1.216 0-1.177-5.77.392-11.263-2.472-14.206-7.417-.393-.667-1.413-.078-1.02.589zM141.588 323.007c4.12 4.238 9.575 6.71 15.5 6.985.746.039.746-1.138 0-1.178-5.611-.274-10.752-2.629-14.676-6.67-.51-.511-1.374.352-.824.863z" fill="#342E52"/><path d="M406.044 54.587c-2.59 3.257.079 8.476 4.278 8.005 2.04-.235 4.59-1.452 5.415 1.334.392 1.295.157 2.708.47 4.003.433 1.884 1.963 3.885 4.082 3.179.707-.236.393-1.374-.314-1.138-2.865.942-2.668-4.042-2.943-5.651-.235-1.413-.824-2.747-2.237-3.257-2.04-.746-4.16.941-6.16.196-2.238-.824-3.258-3.964-1.728-5.847.432-.55-.392-1.413-.863-.824zM400.59 62.553c-.982 1.609-.236 3.296 1.137 4.434 1.766 1.413 3.768 1.295 5.926 1.491 1.844.157 3.296.668 4.277 2.316.668 1.138.903 2.472 1.61 3.57.98 1.492 2.707 2.59 4.473 1.845.706-.274.393-1.412-.314-1.138-2.511 1.06-3.57-2.197-4.277-3.846-.589-1.412-1.374-2.59-2.826-3.257-1.256-.588-2.708-.628-4.081-.706-1.766-.118-6.671-1.138-4.905-4.081.392-.667-.628-1.256-1.02-.628zM1.491 287.57c.51-1.334 1.178-1.726 1.962-1.138.314.118.628.314.864.55.47.353.863.745 1.334 1.099.55.392 1.177.824 1.844.98 1.1.275 2.08-.078 2.865-.863.903-.902 1.138-2.59 2.158-3.375.981-.745 1.61.432 2.316 1.1a30.907 30.907 0 002.197 1.765c.628.432 1.217-.589.589-1.02-1.413-1.02-2.669-2.198-3.846-3.493-.118-.157-.392-.196-.588-.157-1.256.393-1.923 1.374-2.551 2.512-.55 1.02-.864 1.883-2.08 2.197-1.57.393-2.472-.902-3.65-1.766-1.177-.863-2.668-1.49-3.963-.47-.864.706-1.099 1.687-.589 2.668.51.667 1.53.079 1.138-.589zM1.844 292.868c.432 2.08 2.394 3.728 4.592 3.414 1.256-.157 2.119-1.02 3.178-1.648 1.923-1.177 4.042-1.177 5.926.04.628.392 1.217-.629.589-1.021-1.805-1.138-3.964-1.491-6.004-.667-.942.392-1.649 1.06-2.512 1.57-1.923 1.098-4.199.235-4.67-2.041-.118-.706-1.256-.392-1.099.353z" fill="#E8E8E8"/><path d="M78.603 13.853c3.218.314 5.965 2.276 7.417 5.14.353.668 1.373.079 1.02-.588-1.648-3.257-4.787-5.376-8.437-5.73-.746-.078-.746 1.1 0 1.178zM78.917 2.472c5.337 2.551 9.536 6.907 11.812 12.362.275.706 1.413.392 1.138-.314-2.394-5.769-6.75-10.4-12.361-13.068-.667-.314-1.256.706-.589 1.02zM91.592 1.06c2.433 2.747 3.65 6.121 3.61 9.81 0 .746 1.178.746 1.178 0 .04-3.963-1.334-7.652-3.963-10.635-.471-.588-1.295.236-.825.825z" fill="#161616"/><path d="M270.735 331.483c-.51-3.493 3.414-6.75 6.358-3.924 2.707 2.59-.628 6.789-3.65 4.827-.628-.432-1.216.588-.589 1.02 3.964 2.59 8.555-2.708 5.416-6.318-3.65-4.238-9.34-.079-8.673 4.748.118.707 1.256.393 1.138-.353zM275.562 313c-.628-2.002 1.962-3.61 3.257-1.806 1.178 1.649-.785 3.572-2.472 2.708-.667-.353-1.256.667-.589 1.02 2.865 1.492 6.004-1.883 3.925-4.512-2.12-2.708-6.24-.275-5.259 2.904.236.706 1.374.431 1.138-.314z" fill="#8989C0"/></g><path d="M231.846 328.461c-1.256.079-2.159.707-3.924 1.962a32.166 32.166 0 00-6.868 6.632c.903 3.964 2.276 8.516 4.434 13.264 5.926 13.108 14.716 21.584 20.642 26.293.824-.981 1.962-2.55 2.472-4.67.707-2.943-.078-5.376-.51-6.632-1.452-4.67-2.433-9.497-3.689-14.245-2.629-9.85-1.295-10.949-3.924-15.5-.824-1.374-4.356-7.418-8.633-7.104z" fill="#342E52"/><path d="M260.1 217.365a88.192 88.192 0 014.67 11.302c3.846 11.498 4.317 20.956 4.435 24.095.118 3.924.196 15.423-4.435 29.236-5.258 15.658-13.656 25.743-19.19 32.179a116.111 116.111 0 01-14.52 14.245c0 .942.158 2.708 1.217 4.434 2.551 4.003 7.77 3.925 8.124 3.925a113.708 113.708 0 0011.302-9.105c7.22-6.592 11.89-12.518 13.774-14.99 3.178-4.16 8.908-11.852 13.5-23.35 4.983-12.44 6.357-23.702 6.631-31.472.314-8.437-.628-14.402-1.962-22.84-2.158-13.852-4.905-19.464-6.867-22.839-1.806-3.06-3.61-5.376-4.906-6.867a3448.447 3448.447 0 00-11.772 12.047z" fill="#FFF"/><path d="M259.747 218.974c7.888 15.03 10.753 32.61 7.967 49.367-2.551 15.305-9.733 29.511-19.308 41.598-5.298 6.671-11.302 12.714-17.816 18.17-.589.47.275 1.333.824.823 12.008-10.124 22.486-22.29 29.55-36.339 7.377-14.716 10.438-31.158 8.28-47.522a79.997 79.997 0 00-8.437-26.685c-.393-.668-1.413-.079-1.06.588z" fill="#161616"/><path d="M273.914 208.143c8.869 16.56 12.44 35.75 10.674 54.43-1.805 19.229-9.497 37.084-21.662 51.996-6.75 8.28-14.559 15.58-22.957 22.172-.589.471.235 1.295.824.825 15.226-11.97 28.843-26.646 36.927-44.423 7.81-17.15 10.125-36.614 7.3-55.175-1.649-10.635-5.023-20.956-10.086-30.413-.353-.668-1.373-.079-1.02.588z" fill="#161616"/><path d="M230.276 328.422c.667 5.298 5.023 11.027 10.949 8.751.706-.275.392-1.413-.314-1.138-5.18 2.001-8.869-3.022-9.458-7.613-.078-.746-1.255-.746-1.177 0z" fill="#161616"/><path d="M229.923 328.304c-3.767 1.962-6.868 4.749-9.3 8.202-.432.628.588 1.217 1.02.589a24.826 24.826 0 018.869-7.77c.667-.354.078-1.374-.59-1.02z" fill="#161616"/><path d="M220.74 337.566c3.61 15.383 12.283 29.392 24.762 39.164.589.47 1.413-.353.824-.824-12.322-9.654-20.877-23.428-24.448-38.654-.196-.746-1.334-.432-1.138.314z" fill="#161616"/><path d="M240.204 337.33c1.727 6.514 3.493 12.99 5.22 19.504 1.609 5.925 4.944 13.97.314 19.346-.51.589.353 1.413.824.824 4.316-5.023 2.354-11.772.824-17.502-2.001-7.495-4.042-14.99-6.043-22.486-.197-.745-1.335-.431-1.139.314zM264.613 227.176a16.359 16.359 0 0114.677-7.966c.746.039.746-1.138 0-1.178a17.53 17.53 0 00-15.697 8.555c-.392.628.628 1.217 1.02.589zM269.009 244.129c2.511-3.061 5.886-4.945 9.771-5.573.746-.117.432-1.255-.314-1.138a16.39 16.39 0 00-10.281 5.887c-.471.588.353 1.412.824.824zM270.892 232.277c3.14-2.629 7.025-3.924 11.067-3.767.745.04.745-1.138 0-1.177-4.395-.157-8.555 1.295-11.93 4.12-.55.471.275 1.295.863.824zM269.44 266.419c1.648-2.08 4.592-2.041 7.025-1.963 2.943.118 6.592 1.138 7.024 4.592.079.745 1.256.745 1.177 0-.431-3.375-3.335-5.18-6.475-5.612-3.06-.432-7.456-.51-9.575 2.198-.47.55.353 1.412.824.785zM237.928 322.182c.275 4.553 2.512 10.478 7.731 11.067.746.078.746-1.099 0-1.177-4.473-.51-6.318-6.044-6.553-9.89-.04-.745-1.217-.745-1.178 0zM245.777 314.138c.706 3.453 2.63 6.357 5.494 8.437.628.432 1.216-.589.589-1.02-2.59-1.884-4.278-4.592-4.945-7.731-.157-.746-1.295-.432-1.138.314zM252.448 313.745c1.845 2.355 3.924 4.749 6.985 5.337.746.157 1.06-.98.314-1.138-2.864-.55-4.748-2.864-6.475-5.062-.47-.589-1.295.275-.824.863zM261.356 291.18c5.063-.195 9.85 1.57 13.617 4.985.55.51 1.413-.314.825-.825-3.964-3.61-9.065-5.533-14.442-5.297-.745 0-.745 1.177 0 1.138zM268.89 280.389c2.944-.275 5.73.51 8.085 2.355.589.47 1.413-.354.824-.825-2.55-2.04-5.651-2.982-8.908-2.707-.746.039-.746 1.216 0 1.177z" fill="#161616"/><path d="M271.206 211.243a143.837 143.837 0 015.102 20.956c1.452 8.83 3.375 20.25 1.412 33.984-1.922 13.578-6.71 23.153-10.203 30.02-9.182 18.052-21.622 30.963-32.296 39.675-1.61-2.55-3.218-5.101-4.827-7.652a65.421 65.421 0 0011.89-9.615c4.239-4.356 6.75-8.162 10.478-13.892 4.71-7.22 7.182-11.027 9.615-16.442 6.082-13.5 6.71-25.508 6.789-28.608.353-9.89-1.452-17.502-3.415-25.783a142.373 142.373 0 00-4.238-14.44 506.984 506.984 0 009.693-8.203z" fill="#666" opacity=".13"/><path d="M268.106 219.21c.824 2.158 1.923 5.258 2.825 9.065 1.492 6.2 2.12 12.4 2.002 19.817-.236 14.01-.471 26.92-5.651 40.499-8.83 23.035-27.352 35.985-36.26 41.361a246.223 246.223 0 0016.128-18.993c7.614-9.85 11.38-14.794 14.442-20.956 10.517-21.19 7.73-42.107 6.789-47.876a78.546 78.546 0 00-5.965-19.817c1.923-1.02 3.806-2.08 5.69-3.1z" fill="#666" opacity=".13"/><g><path d="M206.534 226.94c-1.648 1.884-1.57 4.042-2.197 12.283-.903 11.93-1.256 9.458-1.727 17.463-1.491 25.744.746 48.426.746 48.426.667 6.985 3.06 28.49 9.575 50.898 3.375 11.576 9.104 27.548 9.34 28.254 1.687 4.71 3.139 8.634 4.16 11.302.235.157 6.239 3.532 10.556.746.667-.432 2.511-1.648 2.943-3.924.353-1.884-.432-3.415-.746-3.925a371.715 371.715 0 01-5.18-16.953c-3.335-12.008-8.202-30.02-10.085-53.33-.707-8.908-.707-15.266-.746-26.057 0-10.321 0-21.859 1.491-36.614a299.81 299.81 0 014.16-28.02c-5.533-2.079-17.698-5.729-22.29-.549z" fill="#FFF"/><path d="M226.313 396.351c.588 1.53 1.255 3.65 1.452 6.24a21.573 21.573 0 01-.118 5.14c3.296 1.845 6.082 2.865 8.084 3.415 1.256.353 2.59.667 4.905 1.216 2.669.628 4.71 1.06 5.494 1.217 8.241 1.726 12.4 2.59 17.267 2.943 1.962.157 4.905.275 8.555.118.706-1.138 2.119-3.768 1.216-6.24-.706-1.962-2.472-2.904-5.65-4.513a1700.872 1700.872 0 00-10.047-5.14c-4.081-1.61-9.85-4.553-17.031-10.4-.589 1.06-2.198 3.453-5.259 5.023-3.963 2.04-7.809 1.217-8.868.981z" fill="#342E52"/><path d="M203.944 236.359c-5.533 42.225-2.04 85.51 10.086 126.283a309.252 309.252 0 0012.204 33.591c.314.707 1.295.079 1.02-.588-16.795-38.968-25.193-81.39-24.683-123.81a306.17 306.17 0 012.55-35.476c.079-.746-1.098-.707-1.177 0zM225.37 240.44c-4.159 38.968-4.12 78.838 4.357 117.257a260.007 260.007 0 009.182 31.747c.275.707 1.413.393 1.139-.314-13.382-36.888-17.385-76.484-15.933-115.53.392-11.066 1.256-22.133 2.433-33.16.079-.785-1.099-.785-1.177 0z" fill="#161616"/><path d="M226.783 396.469c5.298 1.609 11.224-1.06 13.5-6.161.314-.667-.706-1.295-1.02-.589-2.041 4.591-7.339 7.064-12.166 5.612-.706-.236-1.02.902-.314 1.138z" fill="#161616"/><path d="M225.999 396.351a33.448 33.448 0 011.255 9.85c0 .746 1.178.746 1.178 0a34.266 34.266 0 00-1.295-10.164c-.197-.745-1.335-.431-1.138.314z" fill="#161616"/><path d="M227.294 407.378c5.494 4.317 13.067 5.063 19.7 6.475 7.966 1.688 16.128 4.003 24.33 3.493.746-.04.746-1.217 0-1.177-7.849.47-15.619-1.688-23.271-3.297-6.593-1.373-14.48-2.001-19.935-6.318-.589-.47-1.413.353-.824.824z" fill="#161616"/><path d="M240.204 390.582c5.18 4.71 11.302 8.045 17.542 11.145 3.179 1.57 6.357 3.061 9.497 4.67 1.57.785 3.257 1.61 4.395 2.983 1.766 2.158.785 4.866-.196 7.181-.275.706.706 1.295 1.02.589 1.216-2.904 2.276-6.161-.118-8.751-2.433-2.708-6.632-4.082-9.85-5.651-7.534-3.65-15.187-7.339-21.465-12.99-.55-.51-1.374.314-.825.824zM202.531 257.432a28.81 28.81 0 0021.349 2.08c.706-.196.431-1.334-.314-1.138-6.829 2.001-14.128 1.334-20.446-1.962-.667-.353-1.256.667-.589 1.02zM202.06 269.48c4.121 1.844 8.477 2.55 12.99 2 .746-.078.746-1.255 0-1.176a22.863 22.863 0 01-12.4-1.845c-.668-.314-1.257.707-.59 1.02zM202.296 296.44c2.982 2.04 6.554 2.55 10.125 2.158 3.61-.393 8.044-1.217 11.145-3.14.627-.392.039-1.413-.59-1.02-2.903 1.805-7.18 2.59-10.555 2.982-3.336.393-6.71-.078-9.536-2.001-.628-.432-1.217.589-.589 1.02zM204.454 313.55c6.436 2.59 13.735 2 19.7-1.57.667-.393.079-1.413-.588-1.021-5.73 3.414-12.637 3.924-18.798 1.452-.706-.275-.98.863-.314 1.138zM210.459 345.924c6.082 2.159 12.008-.588 17.149-3.728.627-.392.039-1.413-.59-1.02-4.904 2.982-10.477 5.65-16.246 3.61-.706-.235-1.02.903-.313 1.138zM230.512 361.74a14.334 14.334 0 01-7.182 4.316c-.745.196-.432 1.334.314 1.138a15.335 15.335 0 007.73-4.592c.472-.588-.352-1.412-.862-.863zM220.78 381.125a21.106 21.106 0 007.18-2.472c.668-.393.08-1.374-.588-1.02a19.566 19.566 0 01-6.867 2.354c-.785.118-.471 1.256.274 1.138z" fill="#161616"/><path d="M219.092 232.513a140.618 140.618 0 00-4.513 22.643c-1.57 13.578-.746 23.742.275 35.397 3.61 40.145 5.494 60.512 9.928 73.658a166.241 166.241 0 0012.754 28.608c-.157.196-3.532 4.238-7.927 3.414-1.57-.314-2.708-1.098-3.414-1.687a281.616 281.616 0 01-11.067-29.471c-3.218-10.282-12.95-43.324-13.303-88.375-.078-11.106.353-25.9 2.55-43.324 4.906-.314 9.812-.588 14.717-.863z" fill="#666" opacity=".11"/><path d="M204.376 242.716c.55 21.27 2.119 39.164 3.689 52.703 2.668 23.467 4.63 39.635 11.066 60.041 5.18 16.482 11.38 29.55 16.129 38.537-2.826.47-5.651.941-8.516 1.412a256.738 256.738 0 01-7.652-18.13c-18.719-49.563-19.307-97.204-14.716-134.563z" fill="#666" opacity=".11"/></g><g><path d="M283.254 117.885c-.785.51-1.766 1.844-1.256 6.514.746 6.593 3.532 11.498 3.728 11.812 10.4 18.209 7.966 16.13 11.184 20.21 3.846 4.827 9.261 11.655 18.837 15.854 4.12 1.806 9.693 4.278 15.854 2.63 5.258-1.374 9.34-4.356 9.34-4.356 1.53-1.138 3.139-2.59 6.082-4.042 1.687-.864 3.179-1.374 4.199-1.727.706.392 1.766.863 3.1.942 2.04.118 2.669-.746 4.827-.942.314-.04 2.865-.196 5.298 1.099 2.511 1.334 2.982 3.218 4.042 2.943 1.138-.275 1.53-2.668 1.57-3.885.039-1.805-.668-3.14-1.1-3.885-1.02-1.884-2.51-2.982-3.413-3.571a6.946 6.946 0 00-1.727-3.1c-1.374-1.452-2.943-1.884-3.571-2.04-.118-.629-.393-1.531-1.099-2.316-1.884-2.12-5.18-1.53-6.083-1.413-3.139.55-5.023 2.708-5.611 3.414-.393-.235-1.452-.785-2.786-.628-1.727.236-2.708 1.53-3.1 2.04-1.57 2.042-1.178 4.475-1.1 4.985-2.59.274-4.512.98-5.768 1.57-2.394 1.137-3.179 2.236-5.455 3.1-1.138.431-3.1 1.138-5.455.784-2.04-.313-3.492-1.255-4.356-1.883-6.867-4.906-11.027-11.184-11.027-11.184-11.812-17.777-10.635-15.305-11.812-17.581-3.846-7.338-6.514-14.834-10.87-15.697-.353-.04-1.53-.275-2.472.353z" fill="#FFF"/><path d="M287.845 117.65a159.368 159.368 0 0019.268 31.943c6.515 8.398 15.187 19.033 27.195 16.757.746-.157.432-1.295-.314-1.138-12.282 2.315-21.269-10.007-27.626-18.562a158.927 158.927 0 01-17.463-29.59c-.354-.705-1.374-.117-1.06.59z" fill="#161616"/><path d="M321.79 163.838c1.687.393 3.414.785 5.14.51 1.688-.274 3.14-1.177 4.592-2.001 3.924-2.198 8.202-3.375 12.715-3.453.745 0 .745-1.178 0-1.178-3.532.079-7.025.746-10.321 2.12-1.609.667-3.06 1.608-4.591 2.393-2.433 1.256-4.631 1.1-7.221.471-.746-.157-1.06.942-.314 1.138z" fill="#161616"/><path d="M283.371 132.405c5.259 11.184 10.674 22.643 19.543 31.472 7.77 7.692 19.308 14.167 30.492 10.91 3.022-.863 5.847-2.355 8.476-4.042 2.943-1.923 5.808-4.866 9.536-4.905.746 0 .746-1.178 0-1.178-5.062.079-9.026 4.71-13.303 6.946-5.965 3.1-12.244 3.65-18.64 1.53-11.106-3.688-19.425-12.792-25.43-22.485-3.688-6.004-6.71-12.401-9.693-18.798-.274-.745-1.295-.117-.98.55z" fill="#161616"/><path d="M344.04 158.54c3.532.157 8.673 1.963 7.653 6.515-.157.745.981 1.06 1.138.314 1.217-5.377-4.434-7.81-8.79-8.006-.746-.04-.746 1.138 0 1.177zM341.254 157.952c.275-1.413.393-2.904.864-4.238.667-1.923 3.414-1.452 5.023-1.178.745.118 1.06-1.02.314-1.138-1.648-.274-4.238-.745-5.612.55-1.373 1.295-1.373 4.002-1.727 5.73-.157.705.981 1.02 1.138.274z" fill="#161616"/><path d="M345.14 154.734c2.119-1.295 4.08-2.747 6.043-4.238 1.452-1.1 2.943-1.884 4.827-1.452 1.766.431 3.06 1.648 4.002 3.1.432.628 1.452.04 1.02-.589-1.608-2.394-4.159-4.277-7.22-3.728-1.57.275-2.747 1.256-3.963 2.198a61.485 61.485 0 01-5.337 3.689c-.59.392 0 1.412.627 1.02z" fill="#161616"/><path d="M353.616 155.48c1.727-.354 3.14-1.02 4.709-1.688.863-.353 1.844-.667 2.708-.353.55.196.98.589 1.452.942a21.58 21.58 0 012.433 2.197c.55.55 1.373-.314.824-.824-1.374-1.373-3.454-3.65-5.573-3.728-.902-.04-1.687.393-2.472.785-1.452.746-2.825 1.256-4.434 1.57-.707.117-.393 1.255.353 1.099z" fill="#161616"/><path d="M356.363 159.05c1.883-.156 3.728-.47 5.612-.902 1.412-.314 2.825-.667 4.12.196 1.099.707 1.766 1.884 2.433 2.983.392.628 1.413.039 1.02-.589-1.098-1.766-2.433-3.728-4.67-4.12-1.098-.197-2.197.157-3.257.392-1.766.392-3.492.706-5.297.863-.707.04-.707 1.217.039 1.178zM352.674 166.193c2.394.902 4.474-.157 6.789-.707 3.571-.824 6.083 1.413 8.437 3.728.55.55 1.374-.313.824-.824-1.883-1.844-3.924-3.767-6.632-4.199-3.14-.51-6.043 2.041-9.143.864-.667-.275-.981.863-.275 1.138z" fill="#161616"/><path d="M361.504 161.601c1.962-.039 4.12.197 5.886 1.138 2.315 1.256 2.708 4.082.667 5.77-.588.47.236 1.294.824.823 1.845-1.53 2.355-4.238.864-6.2-1.766-2.355-5.494-2.826-8.241-2.747-.746.04-.746 1.216 0 1.216z" fill="#161616"/><path d="M368.332 161.13c.353.746.55 1.53.588 2.316.04.745 1.217.745 1.178 0a8.565 8.565 0 00-.746-2.943c-.314-.628-1.334-.04-1.02.627zM288.708 141.43c.942-3.727 4.16-6.514 8.006-6.828.746-.078.746-1.255 0-1.177-4.395.353-8.084 3.414-9.144 7.692-.157.745.981 1.06 1.138.314zM293.26 149.004c0-2.197.825-4.16 2.355-5.65.55-.55-.275-1.374-.824-.825-1.766 1.727-2.708 4.042-2.708 6.515 0 .706 1.178.706 1.178-.04zM296.596 154.028a10.782 10.782 0 017.22-9.183c.707-.236.393-1.374-.313-1.138-4.513 1.57-7.652 5.572-8.084 10.32-.079.746 1.099.746 1.177 0zM302.483 161.955c.314-4.239 3.453-7.731 7.613-8.555.745-.157.431-1.295-.314-1.138-4.67.902-8.163 4.944-8.477 9.653-.039.785 1.138.785 1.178.04zM311.077 169.607c.392-3.571 2.511-6.632 5.611-8.359.668-.353.079-1.373-.588-1.02-3.532 1.962-5.769 5.376-6.2 9.379-.079.745 1.098.745 1.177 0zM320.887 163.564c2.198 3.1 2.473 7.024.59 10.36-.354.667.627 1.255 1.02.588 2.04-3.689 1.844-8.123-.59-11.576-.43-.589-1.451 0-1.02.628zM334.465 160.07c.118.59.393.747.942.943 1.099.431 2.12.51 3.14 1.177a7.626 7.626 0 013.375 6.436c0 .745 1.177.745 1.177 0a8.661 8.661 0 00-2.04-5.769 9.189 9.189 0 00-2.316-1.962c-.393-.235-3.1-.981-3.14-1.177-.157-.707-1.295-.393-1.138.353z" fill="#161616"/><path d="M285.961 123.457c2.041-.156 3.297 8.124 7.064 16.993 3.179 7.416 10.085 23.584 24.095 28.058 7.103 2.276 17.385 1.923 25.508-2.276 3.61-1.884 5.494-3.846 10.203-4.827 5.298-1.099 13.303-.745 15.58 3.689.666 1.295.706 2.63.549 3.689-2.198-2.708-4.2-3.493-5.651-3.689-2.08-.275-3.218.628-6.24.863a17.414 17.414 0 01-5.65-.55c-2.12.747-5.299 2.08-8.791 4.24-3.336 2.079-4.12 3.178-6.514 4.237-4.12 1.806-8.006 1.295-11.342.864-8.084-1.1-13.734-4.906-16.442-6.79-2.355-1.648-5.965-4.473-10.753-10.477-4.16-5.22-9.967-13.735-14.441-26.057.51-3.768 1.373-7.849 2.825-7.967z" fill="#666" opacity=".11"/></g><g><path d="M194.016 133.111c.47 2.394 1.06 5.69 1.648 9.615.353 2.511 1.727 12.361 1.844 26.37.118 14.913-1.177 27.706-2.668 37.438-1.217 8.123-2.708 14.873-3.885 19.857a55.84 55.84 0 0015.148 10.242 56.14 56.14 0 0016.992 4.71c15.03-23.585 26.41-41.01 33.356-51.526 15.697-23.899 26.646-40.028 31.08-64.829.824-4.513 1.217-8.28 1.413-10.831-5.259-1.334-12.95-2.786-22.29-2.472-1.609.039-5.572.235-13.5 1.648-8.358 1.452-19.11 3.924-31.511 8.162-7.574 2.551-17.032 6.28-27.627 11.616z" fill="#342E52"/><path d="M225.096 136.682a234.06 234.06 0 011.138 13.264c.393 6.593.393 11.812.393 15.58-.079 15.775-.982 31.276-1.139 34.22-.667 11.183-1.57 25.35-2.864 41.871 7.495-3.021 13.5-5.925 17.659-8.084 15.07-7.73 25.86-15.58 33.435-21.152a347.443 347.443 0 0013.852-10.752c.864-8.32 1.452-15.5 1.923-21.152.589-7.22 1.138-14.088 1.53-23.232.236-5.415.354-8.162.393-11.93.079-12.675-.98-21.19-1.334-23.82-.392-3.06-.824-5.572-1.138-7.299a223.4 223.4 0 00-35.946 10.007 219.594 219.594 0 00-27.902 12.48z" fill="#FFF"/><path d="M194.29 133.307c22.604-11.42 46.739-18.09 71.815-21.23.745-.078.745-1.256 0-1.177-12.715 1.609-25.312 3.885-37.634 7.534a209.132 209.132 0 00-34.77 13.853c-.705.353-.117 1.374.59 1.02z" fill="#161616"/><path d="M194.055 133.818c5.298-.275 10.556.549 15.815 1.255 5.023.707 10.046 1.374 15.108 2.08.746.118 1.06-1.02.314-1.138-5.298-.745-10.556-1.452-15.854-2.197-5.101-.707-10.203-1.452-15.383-1.178-.746.04-.746 1.217 0 1.178zM265.477 112.313c7.966-.51 15.893.314 23.624 2.354.745.196 1.06-.942.314-1.138-7.81-2.08-15.854-2.904-23.938-2.394-.746.079-.746 1.256 0 1.178z" fill="#161616"/><path d="M226.038 136.722a263.14 263.14 0 0162.984-21.74c.746-.158.432-1.296-.314-1.139a265.783 265.783 0 00-63.298 21.858c-.628.353-.04 1.374.628 1.02z" fill="#161616"/><path d="M224.036 136.604c3.415 26.842 1.727 53.958 0 80.84-.51 7.927-1.02 15.854-2.158 23.702-.118.746 1.02 1.06 1.138.314 1.962-13.42 2.472-27.077 3.218-40.616.746-13.617 1.256-27.234.824-40.852-.275-7.809-.824-15.657-1.844-23.388-.118-.746-1.295-.746-1.178 0zM193.898 132.915c4.866 30.649 3.885 62.082-2.943 92.377-.157.746.981 1.06 1.138.314 6.867-30.491 7.848-62.121 2.943-93.005-.118-.746-1.256-.432-1.138.314z" fill="#161616"/><path d="M190.798 226.195c8.476 8.476 19.504 14.049 31.355 15.775.745.118 1.06-1.02.314-1.138a55.024 55.024 0 01-30.845-15.5c-.55-.471-1.373.353-.824.863zM288.198 114.903c5.063 28.686 1.766 57.883-1.53 86.608-.079.746 1.099.746 1.177 0 3.296-28.804 6.593-58.079 1.491-86.922-.117-.746-1.255-.432-1.138.314z" fill="#161616"/><path d="M286.707 201.433a265.285 265.285 0 01-64.79 40.066c-.706.314-.078 1.335.589 1.02a267.248 267.248 0 0065.025-40.223c.589-.51-.235-1.334-.824-.863zM229.217 140.803c-.668-.55-.982-1.57-.471-2.316.47-.745 1.648-1.02 2.393-.51.707.471.942 1.57.51 2.316-.588.941-1.922 1.02-2.707.314-.432-.393-1.06.235-.628.627 1.099.981 2.825 1.02 3.806-.117.942-1.06.785-2.826-.313-3.728-1.06-.864-2.708-.667-3.61.314-.943 1.098-.707 2.825.392 3.728.47.353 1.098-.275.628-.628zM230.198 147.16l.588 13.421c.04.55.903.589.903 0l-.589-13.42c-.04-.55-.942-.55-.902 0z" fill="#161616"/><path d="M230.669 147.356c12.596-5.454 25.625-9.928 38.889-13.42.55-.158.314-.982-.235-.864a280.423 280.423 0 00-39.086 13.5c-.55.274-.079 1.02.432.784zM231.532 160.699a170.187 170.187 0 0132.1-13.107c.55-.157.314-1.02-.235-.864a171.337 171.337 0 00-32.297 13.225c-.51.236-.078.981.432.746z" fill="#161616"/><path d="M269.009 133.621c-1.845 4.474-3.728 8.948-5.573 13.421-.235.51.628.746.863.236 1.845-4.474 3.729-8.948 5.573-13.421.196-.51-.667-.746-.863-.236zM271.088 133.425a525.572 525.572 0 01-5.337 12.911c-.235.51.55.981.746.432 1.844-4.356 3.689-8.712 5.416-13.107.274-.51-.59-.746-.825-.236z" fill="#161616"/><path d="M266.458 147.12c3.65-1.569 7.26-3.139 10.91-4.708.51-.236.078-.981-.432-.746-3.65 1.57-7.26 3.14-10.91 4.71-.51.195-.078.98.432.745zM272.07 133.74a37.113 37.113 0 016.828-2.08c.55-.119.314-.982-.236-.864-2.354.47-4.63 1.138-6.828 2.08-.51.196-.314 1.06.236.863z" fill="#161616"/><path d="M278.545 131.58a118.913 118.913 0 00-1.923 9.89c-.079.55.785.785.863.235.51-3.335 1.138-6.632 1.923-9.889.118-.55-.746-.785-.863-.235zM281.723 199.98a18675.722 18675.722 0 01-28.647 16.247c-.51.275-.04 1.06.432.746 9.536-5.416 19.072-10.831 28.647-16.247.51-.274.04-1.02-.432-.745z" fill="#161616"/><path d="M254.057 196.959c.275 3.14-.196 6.397-.432 9.575-.235 3.375-.47 6.75-.745 10.125-.04.55.824.55.902 0 .236-3.375.471-6.75.746-10.125.236-3.14.706-6.396.432-9.575-.079-.55-.981-.55-.903 0z" fill="#161616"/><path d="M254.607 196.959c9.3-5.22 19.071-9.575 29.196-12.95.55-.196.314-1.02-.235-.863a171.323 171.323 0 00-29.432 13.028c-.471.275 0 1.06.47.785z" fill="#161616"/><path d="M283.607 183.891c-.471 5.455-1.256 10.87-2.433 16.207-.118.55.745.785.863.236a128.843 128.843 0 002.472-16.443c.04-.55-.824-.55-.902 0z" fill="#161616"/><path d="M195.232 133.464c6.79.471 13.46 1.57 20.053 3.179.746.196 1.06-.942.314-1.138-6.71-1.648-13.5-2.747-20.367-3.218-.745-.078-.745 1.099 0 1.177z" fill="#FFF"/><path d="M261.945 121.613a271.455 271.455 0 00-8.163 16.09c-8.79 18.875-30.648 65.81-16.09 80.015 2.67 2.59 8.595 6.083 23.311 3.022-12.675 6.985-25.35 14.01-38.026 20.995a661.786 661.786 0 003.257-44.344c.314-7.849.706-18.091.471-31.748a443.386 443.386 0 00-1.413-28.686 201.561 201.561 0 0114.245-6.985c7.927-3.493 15.462-6.24 22.408-8.359z" fill="#666" opacity=".1"/></g><g><path d="M107.486 39.321c-.707.981.196 2.708.628 3.571.784 1.491 2.786 4.552 8.084 6.828-1.963.432-2.747 1.217-3.1 1.884-.707 1.295.156 2.198.156 5.298 0 2.276-.51 2.63-.314 4.513a10.292 10.292 0 001.1 3.728c.078.745.195 1.805.47 3.1.196.942.314 1.413.471 1.727.824 1.49 3.14 2.276 5.14 1.883 2.512-.549 3.611-2.825 3.729-3.1 1.06 1.57 2.08 2.04 2.786 2.159 1.295.235 2.158-.51 4.67-1.1a16.238 16.238 0 012.943-.47c-.078 1.452-.196 3.61-.314 6.24-.353 8.672-.55 13.224-.157 18.679.118 1.727.55 6.867 2.04 13.382.904 4.002 2.316 10.046 5.613 16.953 2.04 4.277 5.219 10.987 11.969 17.423 3.06 2.904 10.399 9.732 22.25 12.283 8.83 1.884 16.207.589 20.367-.47 3.218-1.727 6.436-3.415 9.654-5.141.47-.668 1.256-2.08 1.256-3.885 0-2.708-1.688-5.259-4.356-6.672a54.983 54.983 0 01-8.241 1.413c-3.297.275-9.81.785-17.424-1.57-3.257-.98-11.89-3.767-18.523-11.812-3.139-3.806-4.512-7.22-6.828-13.068-2.747-6.867-3.846-12.283-4.984-17.894-2.393-12.087-3.61-18.17-2.472-24.095.589-3.061 1.688-6.71.942-11.812-.746-4.984-2.669-7.535-3.257-8.241-1.61-2.002-3.571-3.179-4.67-3.885-2.001-1.256-1.609-.55-4.984-2.316-.589-.314-1.256-.667-2.158-.627-1.06.078-1.884.667-2.316 1.098a146.365 146.365 0 01-6.082-1.883c-3.493-1.138-5.259-1.688-6.083-2.159-2.08-1.177-2.825-2.197-4.827-2.472-.628-.196-2.472-.47-3.178.51z" fill="#FFF"/><path d="M144.452 61.336c-1.295 8.594-1.138 17.267.04 25.861 1.177 8.673 3.139 17.463 6.16 25.665 2.551 6.946 6.24 13.46 12.009 18.248 5.023 4.16 11.066 6.907 17.424 8.24 7.26 1.531 14.873 1.178 21.976-.941.706-.236.431-1.374-.314-1.138-12.323 3.689-26.45 1.844-36.888-5.886-5.965-4.435-9.968-10.675-12.597-17.542-2.865-7.338-4.67-15.187-6.005-22.918-1.648-9.693-2.119-19.582-.667-29.314.118-.706-1.02-1.02-1.138-.275z" fill="#161616"/><path d="M133.543 69.42c-1.452 19.347-.824 39.635 8.202 57.255 7.573 14.795 20.916 26.685 37.83 28.726 9.182 1.099 18.679-.824 26.292-6.2.628-.432.04-1.452-.589-1.02-13.695 9.692-32.728 7.612-45.874-2.002-13.892-10.203-21.387-26.842-23.977-43.48-1.727-10.989-1.531-22.212-.707-33.279.079-.745-1.099-.745-1.177 0z" fill="#161616"/><path d="M201.707 138.37c4.12 1.648 5.455 6.396 3.022 10.046-.432.628.589 1.216 1.02.588 2.904-4.316 1.06-9.85-3.728-11.772-.706-.275-1.02.863-.314 1.138zM136.996 56c1.374-2.551-2.472-2.277-3.728-2.67-1.648-.549-3.492-2-4.67-3.256-1.766-1.884-1.923-5.769 1.766-5.063 7.339 1.452 15.148 8.163 14.01 16.208-.118.745 1.02 1.06 1.138.314 1.256-9.026-7.064-15.933-15.187-17.738-2.982-.667-4.905 2.158-4.003 4.905.55 1.648 2.002 2.865 3.336 3.846.824.628 1.727 1.256 2.668 1.687.432.157 3.768.824 3.571 1.178-.274.667.746 1.255 1.1.588z" fill="#161616"/><path d="M126.558 44.266c-4.67-1.099-9.222-2.708-13.5-4.906-1.962-1.02-6.004-2.864-6.082 1.02-.04 3.1 2.747 6.24 5.062 7.967 3.492 2.63 7.848 3.61 12.047 4.238.746.118 1.06-1.02.314-1.138-6.082-.942-14.049-3.06-16.01-9.85a3.198 3.198 0 01-.236-1.216c.745-1.256 1.57-1.53 2.59-.903.706.314 1.334.707 2.04 1.06 1.295.628 2.59 1.255 3.925 1.805a58.653 58.653 0 009.536 3.06c.745.197 1.06-.941.314-1.137z" fill="#161616"/><path d="M115.177 49.25c-2.197.627-3.1 3.335-3.021 5.415.117 2.669 1.844 4.905 4.08 6.24 2.041 1.255 5.142 2.236 7.3.628 1.57-1.178 1.923-3.415.55-4.867-.51-.549-1.335.275-.825.825.942.98.471 2.472-.51 3.139-.863.589-2.04.55-3.022.392-1.53-.274-3.021-1.098-4.199-2.119-1.138-1.02-1.922-2.315-2.119-3.806-.235-1.61.236-4.2 2.08-4.749.746-.157.432-1.295-.314-1.098z" fill="#161616"/><path d="M112.862 57.098c-1.295 3.257-.432 7.26 2.355 9.536 1.255 1.02 2.982 1.648 4.59 1.374 1.61-.314 2.552-1.452 3.494-2.708.431-.628-.59-1.217-1.02-.589-1.021 1.374-2.198 2.433-4.004 2.08-1.49-.275-2.747-1.256-3.57-2.472-1.374-2.04-1.57-4.592-.668-6.868.236-.745-.902-1.06-1.177-.353z" fill="#161616"/><path d="M113.254 65.064c.118 3.218 1.374 6.946 4.984 7.653 3.846.745 5.926-3.179 6.907-6.24.235-.706-.903-1.02-1.138-.314-.785 2.433-2.394 6.044-5.612 5.337-2.982-.628-3.885-3.806-3.963-6.436 0-.745-1.178-.784-1.178 0z" fill="#161616"/><path d="M123.497 68.675c.392 1.726 2.158 2.354 3.767 2.59 2.55.392 4.434-.903 6.907-1.178.745-.078.745-1.255 0-1.177-1.217.157-2.276.628-3.493.942-1.53.432-5.533.785-6.043-1.491-.157-.746-1.295-.432-1.138.314z" fill="#161616"/><path d="M134.21 69.852c3.924 1.53 8.359.078 10.713-3.375.432-.628-.588-1.216-1.02-.589-2.08 3.061-6.004 4.16-9.38 2.826-.705-.275-.98.863-.313 1.138zM178.633 139.547c1.53 1.491 1.177 5.376 1.06 7.338-.158 2.551-.903 4.984-2.708 6.868-.51.55.313 1.373.824.824 2.001-2.12 2.864-4.827 3.021-7.692.157-2.354.471-6.357-1.373-8.201-.55-.51-1.374.314-.824.863zM190.288 140.293a15.09 15.09 0 01.118 14.166c-.354.667.667 1.256 1.02.589 2.511-4.866 2.472-10.517-.118-15.344-.353-.706-1.373-.079-1.02.589zM134.21 93.672c3.924 1.335 8.084.903 11.694-1.177.667-.392.079-1.413-.588-1.02-3.336 1.923-7.103 2.276-10.792 1.06-.706-.236-1.02.902-.314 1.137zM137.82 116.669c4.984 1.06 10.046-.785 13.147-4.827.47-.589-.55-1.178-1.02-.589-2.787 3.571-7.378 5.259-11.813 4.277-.745-.157-1.06.982-.314 1.139zM159.286 127.931c.157 2.198-.589 4.2-2.119 5.769-.55.55.314 1.373.824.824 1.766-1.766 2.63-4.12 2.472-6.632-.039-.706-1.216-.706-1.177.04zM134.877 104.974c1.727.785 3.571.942 5.376.393.746-.197.432-1.335-.314-1.138a6.516 6.516 0 01-4.473-.275c-.667-.314-1.295.706-.589 1.02zM133.975 77.387c3.374.824 6.67.47 9.85-.942.706-.314.078-1.335-.59-1.02-2.864 1.294-5.886 1.53-8.947.824-.745-.197-1.06.941-.313 1.138zM144.649 131.58c5.611 1.296 10.987-1.647 12.91-7.063.236-.706-.863-1.02-1.138-.314-1.687 4.788-6.514 7.378-11.459 6.24-.745-.197-1.06.942-.313 1.138zM168.626 135.544c1.687 4.984-3.454 10.007-7.339 12.126-.667.353-.078 1.374.59 1.02 4.355-2.354 9.77-7.966 7.887-13.42-.236-.746-1.374-.432-1.138.274z" fill="#161616"/><path d="M117.296 51.447c1.413 1.452-.274 3.885.942 5.455.667.824 2.159 1.452 5.808.746 0 .627.04 1.57.393 2.629 0 0 .784 2.511 2.982 4.12 2.55 1.884 6.357 1.923 9.771.196.157 2.355.432 5.69.746 9.772 1.844 23.31 2.55 27.509 3.571 31.512 1.177 4.709 2.669 10.556 6.554 17.07 2.433 4.042 10.595 17.228 27.391 22.486 14.245 4.474 26.489.628 30.766-.941-.235 1.609-.51 3.257-.745 4.866a41.247 41.247 0 01-8.045 3.767c-.432.157-8.202 2.668-16.874 1.884-16.365-1.492-27.745-13.97-30.57-17.071-10.204-11.223-13.108-23.506-14.442-29.079-1.962-8.358-2.119-16.05-2.237-21.583a132.14 132.14 0 01.746-17.267 8.262 8.262 0 01-4.866.746 8.827 8.827 0 01-4.866-2.433c-.118.313-.746 2.236-2.826 3.178-.117.079-2.354 1.02-4.316 0-1.766-.902-2.237-2.865-3.179-6.75-.589-2.354-.706-4.042-.942-6.75-.47-5.925.157-6.631.55-6.945.941-.746 2.786-.55 3.688.392z" fill="#666" opacity=".13"/><path d="M141.666 124.203a91.58 91.58 0 005.259 5.612c4.002 3.963 13.107 13.028 23.27 17.267 14.167 5.886 28.805 1.805 35.437-.55-.236.824-.51 1.61-.746 2.433-1.962 1.06-20.563 10.713-40.302 1.295-16.482-7.81-21.976-23.231-22.918-26.057z" fill="#666" opacity=".15"/></g><g><path d="M230.472 101.09a38.07 38.07 0 00-.588 5.532c-.04.864-.157 4.082.47 8.32.275 1.962.668 3.61.982 4.827 1.609.431 3.924.863 6.75.706 3.727-.196 6.592-1.334 8.319-2.158-.079-1.06-.157-2.747-.353-4.827-.432-4.67-.785-6.318-.824-9.38-.04-1.294 0-3.256.235-5.65-1.648-.432-4.905-1.06-8.79-.118a16.772 16.772 0 00-6.2 2.747z" fill="#FFF"/><path d="M229.962 100.657c-1.334 6.2-.47 12.44.51 18.64.118.746 1.256.432 1.138-.313-.941-5.965-1.805-12.048-.51-18.013.157-.745-.98-1.06-1.138-.314z" fill="#161616"/><path d="M230.747 101.482c1.766-1.57 4.356-2.12 6.593-2.59 2.55-.51 5.062-.59 7.613-.118.745.157 1.06-.981.314-1.138-2.747-.55-5.494-.432-8.241.118-2.512.51-5.18 1.138-7.142 2.903-.51.51.314 1.335.863.825z" fill="#161616"/><path d="M244.835 98.381c-.47 6.593-.118 13.186.981 19.7.118.746 1.256.432 1.138-.314a80.285 80.285 0 01-.942-19.386c.04-.745-1.138-.745-1.177 0z" fill="#161616"/><path d="M230.708 119.69c1.923 1.53 5.18 1.334 7.534 1.256 2.944-.079 5.808-.706 8.359-2.198.667-.392.079-1.412-.589-1.02-2.197 1.295-4.591 1.884-7.103 2.04-2 .118-5.69.393-7.338-.902-.628-.47-1.452.353-.863.824zM230.512 107.957c1.452-2.041 3.885-2.708 6.24-3.218 2.628-.589 5.336-1.138 7.77.353.666.392 1.255-.628.588-1.02-2.708-1.649-5.73-1.138-8.673-.471-2.668.628-5.258 1.452-6.946 3.767-.431.589.589 1.177 1.02.589zM230.747 114.667a17.256 17.256 0 0114.324-3.532c.745.157 1.06-.98.314-1.138-5.534-1.099-11.067.275-15.462 3.846-.589.47.235 1.295.824.824zM237.3 116.276c1.335-.589 2.708-.785 4.2-.785 1.02 0 3.296-.118 4.002.707.51.588 1.334-.275.824-.825-.902-1.06-2.943-.941-4.199-1.02-1.883-.078-3.65.196-5.415.942-.706.275-.118 1.256.589.981z" fill="#161616"/><path d="M193.506 96.733c3.335 1.884 8.555 4.395 15.265 5.769 7.22 1.491 12.832 1.02 19.15.47 2.512-.235 10.87-1.059 22.016-4.316a132.41 132.41 0 0026.488-11.066c.785-3.885 1.492-8.359 1.806-13.343a96.881 96.881 0 00-.118-14.441 76.868 76.868 0 00-8.045-7.692 72.298 72.298 0 00-8.32-6.004c-22.76 16.875-45.482 33.749-68.242 50.623z" fill="#342E52"/><path d="M261.631 46.07a72.163 72.163 0 011.805 8.203c.353 2.158 1.452 10.007.118 20.327a74.161 74.161 0 01-2.276 11.185 102.582 102.582 0 01-5.769 3.257c-7.927 4.12-14.598 6.082-16.953 6.75-1.687.47-9.732 2.668-20.838 3.139-6.121.235-14.598.04-24.566-2.04.707-11.97 1.452-23.9 2.159-35.869a134.138 134.138 0 019.143-4.08c2.433-.982 13.696-5.456 29.864-8.32 7.22-1.295 16.443-2.433 27.313-2.551z" fill="#FFF"/><path d="M194.958 60.983c-.824 11.93-1.649 23.899-2.433 35.829-.04.745 1.138.745 1.177 0 .824-11.93 1.648-23.9 2.433-35.829.04-.785-1.138-.785-1.177 0z" fill="#161616"/><path d="M196.174 61.14a157.195 157.195 0 0164.79-14.363c.745 0 .745-1.177 0-1.177-22.565.118-44.894 5.062-65.378 14.52-.668.314-.079 1.334.588 1.02zM192.956 97.165c23.31 5.69 48.19 1.844 68.596-10.792.628-.392.04-1.413-.588-1.02-20.17 12.44-44.698 16.286-67.694 10.674-.745-.196-1.06.942-.314 1.138z" fill="#161616"/><path d="M260.768 46.267c3.688 13.068 3.57 26.881-.314 39.91-.236.746.902 1.02 1.138.314a72.306 72.306 0 00.314-40.538c-.197-.745-1.335-.431-1.138.314z" fill="#161616"/><path d="M261.435 46.424a66.48 66.48 0 0116.129 14.598c.47.589 1.295-.235.824-.824a67.38 67.38 0 00-16.365-14.755c-.627-.47-1.216.55-.588.981z" fill="#161616"/><path d="M277.328 60.67a93.894 93.894 0 01-1.53 27.312c-.157.746.98 1.06 1.138.314a94.422 94.422 0 001.57-27.588c-.08-.784-1.256-.784-1.178-.039z" fill="#161616"/><path d="M193.035 97.518c3.257 1.334 6.514 2.63 9.771 3.964 2.433.98 4.945 1.373 7.496 1.687 6.004.824 12.126 1.02 18.169.47 10.164-.862 20.21-3.766 29.746-7.259a140.188 140.188 0 0018.68-8.437c.667-.353.078-1.374-.59-1.02-9.574 5.18-19.66 9.065-30.098 12.047-10.988 3.14-22.212 4.513-33.631 3.257-2.747-.314-5.808-.51-8.398-1.491-3.65-1.374-7.26-2.943-10.87-4.395-.668-.236-.982.902-.275 1.177z" fill="#161616"/><path d="M260.728 87.315a51.41 51.41 0 0015.894.589c.745-.079.745-1.256 0-1.178-5.22.628-10.4.432-15.58-.55-.745-.117-1.06.982-.314 1.139z" fill="#161616"/><path d="M206.966 69.538c-1.02-.47-.863-1.923-.903-2.825-.039-.471-.078-.942-.039-1.452 0-.55.079-1.02.314-1.53.275-.629.706-.707 1.217-.315.902.314.784.55.784 1.413 0 .51-.039.981-.078 1.491-.04.51-.04 1.06-.079 1.57 0 .157-.431 2.865-1.177 1.766-.432-.628-1.452-.04-1.02.588 1.138 1.688 2.943.354 3.257-1.177.275-1.373.275-2.982.275-4.395 0-.903-.157-1.923-.942-2.472-1.766-1.256-3.493.824-3.689 2.472-.196 1.687-.392 5.062 1.491 5.926.667.274 1.256-.746.589-1.06z" fill="#3B5146"/><path d="M206.417 62.945c-.668 2.433-.51 4.906.431 7.26.236.589 1.177.55 1.138-.157-.039-2.276.079-4.513.353-6.75h-1.177c.118.942.196 1.845.196 2.787 0 .392.04.902-.039 1.255-.04.275-.392 1.256-.235.314.117-.745-1.06-.745-1.178 0-.157 1.138.942 2.865 2.159 1.688.47-.471.431-1.374.47-2.002.08-1.373 0-2.707-.156-4.042-.079-.745-1.06-.745-1.178 0a38.729 38.729 0 00-.353 6.75c.393-.039.785-.118 1.138-.157-.863-2.158-1.02-4.356-.431-6.632.196-.706-.942-1.02-1.138-.314z" fill="#3B5146"/><path d="M205.985 63.926c-.314.785-.353 1.61-.236 2.433.04.314.432.471.707.393.353-.079.47-.393.392-.707-.078-.627.04-1.216.236-1.805.314-.706-.824-1.02-1.1-.314zM239.537 63.573c-1.02-.47-.863-1.923-.902-2.825-.04-.471-.079-.903-.04-1.374 0-.275 0-.55.079-.785.04-.902.785-1.177 2.158-.785.393.59.04 2.237 0 2.865-.039.432-.039.864-.078 1.295 0 .157-.432 2.865-1.177 1.766-.432-.628-1.452-.04-1.02.589 1.137 1.687 2.942.353 3.256-1.178.275-1.334.236-2.864.275-4.198 0-.903-.078-1.963-.824-2.59-1.687-1.452-3.532.51-3.807 2.158-.274 1.687-.431 5.22 1.452 6.122.746.274 1.335-.707.628-1.06z" fill="#3B5146"/><path d="M239.027 57.02c-.667 2.433-.51 4.905.432 7.26.235.588 1.177.549 1.138-.157-.04-2.277.078-4.513.353-6.75h-1.177c.118.942.196 1.844.196 2.786 0 .392.04.903-.04 1.256-.038.275-.392 1.256-.235.314.118-.746-1.06-.746-1.177 0-.157 1.138.942 2.864 2.158 1.687.471-.47.432-1.373.471-2.001.079-1.374 0-2.708-.157-4.042-.078-.746-1.06-.746-1.177 0a38.729 38.729 0 00-.353 6.75c.392-.04.785-.118 1.138-.157-.863-2.159-1.02-4.356-.432-6.632.196-.746-.942-1.06-1.138-.314z" fill="#3B5146"/><path d="M238.596 57.961c-.314.785-.354 1.61-.236 2.433.04.314.432.471.706.393.354-.079.471-.393.393-.706-.079-.628.04-1.217.235-1.806.314-.706-.824-.98-1.098-.314zM216.463 75.738c3.453.471 8.044.04 11.105-1.766.667-.392.079-1.412-.588-1.02-2.787 1.61-7.064 2.08-10.203 1.648-.707-.078-1.06 1.06-.314 1.138z" fill="#3B5146"/><path d="M215.913 75.817c1.06 2.354 3.65 5.65 6.632 5.258 2.943-.353 4.71-4.513 5.337-6.985.196-.745-.942-1.06-1.138-.314-.431 1.766-1.687 5.063-3.57 5.847-2.748 1.138-5.26-2.315-6.201-4.434-.353-.628-1.374-.04-1.06.628z" fill="#3B5146"/><path d="M216.894 76.288c3.022 1.413 7.535.667 10.086-1.374l-.824-.824c-1.492 1.217-3.336 1.923-5.298 1.884-1.06 0-1.923-.55-2.786.157-.157.157-.197.392-.157.588.196 1.06 1.648 1.57 2.55 1.727 1.884.314 3.61-.589 5.102-1.687l-.706-.942c-1.335 1.53-4.749 2.354-6.2.51-.432-.55-1.217.157-.943.706.825 1.492 2.08 2.983 3.964 2.865 1.962-.078 3.179-1.766 4.16-3.257.392-.589-.432-1.099-.942-.706-.903.706-1.53.824-2.512 1.177-.628.235-1.098.118-.863.902.196.628.863.825 1.413.825 1.687-.079 3.414-2.512 4.16-3.807.313-.55-.471-1.217-.942-.706-1.492 1.609-2.355 4.199-4.749 4.552-.745.118-.431 1.256.314 1.138 2.708-.432 3.61-3.1 5.259-4.866l-.942-.707c-.55.903-1.491 2.394-2.55 2.826-.825.314-.707.118-1.335-.55-.157-.196-.275-.431-.471-.549-.706-.432-1.413-.04-1.648.667-.079.196 0 .432.157.589 1.687 1.844 3.885.588 5.494-.628l-.942-.706c-.785 1.177-1.491 2.315-2.983 2.511-1.53.236-2.393-.902-3.06-2.158l-.942.706c1.844 2.315 6.082 1.491 7.848-.51.432-.47-.157-1.334-.706-.942-1.256.942-2.786 1.845-4.395 1.491-.55-.039-1.06-.314-1.492-.706.118.353.354.51.628.55.432.196 1.217.117 1.688.078 2.08-.118 3.963-.942 5.572-2.237.589-.47-.235-1.295-.824-.824-2.04 1.609-6.2 2.355-8.673 1.177-.627-.274-1.216.746-.51 1.06z" fill="#3B5146"/><path d="M221.093 79.113c.903-.667 1.766-1.373 2.512-2.197l-.942-.707c-.353.667-.863 1.335-1.138 2.04-.118.354-.157.747.157 1.06.275.275.706.275 1.06.118.667-.314 1.255-.863 1.844-1.295l-.824-.824c-.236.589-1.02 1.727-.353 2.276.745.628 1.412-.47 1.805-.942.47-.588-.353-1.412-.824-.824-.157.157-.471.746-.707.785.197.04.393.118.589.157-.04-.04-.079-.078-.079-.118.04.157.118.275.157.432 0-.353.314-.824.432-1.138.196-.47-.275-1.177-.824-.824-.235.157-1.53 1.295-1.727 1.216.118.079.236.197.354.275-.04-.04-.04-.118-.079-.157.04.157.04.314.079.471.117-.706.745-1.491 1.098-2.12.314-.588-.47-1.216-.942-.705a15.69 15.69 0 01-2.276 2c-.588.433 0 1.453.628 1.021z" fill="#3B5146"/><path d="M198.176 62.985a659.206 659.206 0 00-1.923 31.747c-.04.745 1.138.745 1.177 0a659.206 659.206 0 011.923-31.747c.078-.746-1.099-.746-1.177 0zM258.53 50.545c2.983 11.145 1.1 22.643-1.53 33.63-.196.746.942 1.06 1.138.315 2.708-11.185 4.592-22.918 1.53-34.26-.195-.706-1.333-.392-1.137.315z" fill="#161616"/><path d="M262.416 86.295c3.453.628 6.946 1.255 10.4 1.883.745.118 1.059-.98.313-1.138-3.453-.628-6.946-1.255-10.4-1.883-.745-.118-1.059 1.02-.313 1.138z" fill="#FFF"/><path d="M266.89 62.043a8.36 8.36 0 00-.903 2.119c-.353 1.413-.275 2.63-.196 3.375-2.355 2.393-8.437 7.927-17.816 9.26-3.729.55-6.986.276-9.419-.195-.274 1.02-.47 2.315.196 2.864.432.393 1.06.236 2.12.197 1.766-.079 2.707.274 3.57.353 2.434.275 8.87-.864 15.855-4.788a43.332 43.332 0 007.299-5.18c.196.275 1.609 1.962 3.728 1.962 2.943-.039 4.317-3.257 4.434-3.57.707-1.727.746-4.121-.706-5.887-1.334-1.648-3.218-1.923-3.728-1.962-2.433-.236-4.16 1.177-4.434 1.452z" stroke="#000" stroke-width=".785" fill="#FFF"/><path d="M269.009 62.828c-1.806 2.825-.707 6.945 3.1 6.867.392 0 .392-.589 0-.589-3.375.079-4.12-3.61-2.59-6.004.235-.314-.275-.588-.51-.274z" fill="#000"/><path d="M271.677 66.634c-.51-.392-.785-1.06-.628-1.687.157-.589.903-1.178 1.53-.864.668.314.903 1.374.59 2.002-.275.628-1.217.902-1.688.274-.236-.314-.746 0-.51.314.55.746 1.687.824 2.394.157.784-.785.706-2.237-.079-3.021-.746-.746-1.962-.432-2.511.392-.628.903-.354 2.158.51 2.826.274.235.667-.157.392-.393zM246.836 76.994c.628.785.785 1.845.354 2.747-.157.353.353.628.51.314a3.21 3.21 0 00-.353-3.336c-.236-.313-.746-.039-.51.275zM240.165 77.073a2.33 2.33 0 01.04 2.158c-.157.353.353.628.51.314.431-.903.392-1.884-.04-2.747-.196-.353-.706-.079-.51.275zM241.892 77.504c.432.432.47 1.178.078 1.648-.235.275.197.707.432.432.589-.745.589-1.805-.078-2.472-.275-.314-.668.118-.432.392zM243.815 77.544c.667.47.628 1.49.039 1.962-.275.235.118.667.432.431.902-.745.785-2.236-.157-2.904-.314-.196-.589.314-.314.51zM253.233 51.094c-.824-.314-.55-1.334 0-1.727.55-.392 1.256-.274 1.609.314.746 1.295-1.02 2.355-1.923 1.295-.353-.431-.981.196-.628.628.746.863 2.159.942 3.022.196.863-.785.785-2.197 0-2.982-.824-.863-2.198-.667-2.983.196-.824.981-.549 2.512.668 2.943.549.157.745-.667.235-.863z" fill="#000"/><path d="M254.803 46.228a154.99 154.99 0 001.687 15.775 144.373 144.373 0 002.08 10.714 82.065 82.065 0 01-2.708 1.648 56.608 56.608 0 01-13.146 5.415c2.08.079 4.67-.039 7.652-.588a34.345 34.345 0 008.594-2.826c-3.139 3.454-7.299 7.456-12.636 11.263-7.652 5.494-15.03 8.673-20.602 10.595 4.277 1.492 8.555 2.983 12.793 4.474.314 5.808.628 11.616.942 17.463 2.158-.55 4.317-1.099 6.514-1.687-.314-3.65-.588-7.417-.745-11.341-.079-2.198-.157-4.356-.197-6.515a158.527 158.527 0 009.105-2.786c8.555-2.904 14.637-5.847 16.325-6.671a108.928 108.928 0 006.67-3.532c.433-2.708.825-5.533 1.1-8.555.667-6.985.706-13.382.353-19.111-1.845-2.276-4.238-4.827-7.22-7.417-3.18-2.747-6.28-4.788-8.909-6.318h-7.652z" fill="#3B5146" opacity=".16"/></g><g transform="translate(49.053 29.432)"><path d="M60.63 165.408c.314 14.48.589 28.961.903 43.442a362.673 362.673 0 0054.743 10.87 359.687 359.687 0 0076.445.902c.588-14.794 1.216-29.55 1.805-44.344a1594.743 1594.743 0 01-55.646-3.179c-27.117-2.04-53.213-4.63-78.25-7.691z" fill="#8989C0" opacity=".3"/><path d="M65.535 172.315a366.014 366.014 0 0066.948 8.201c.746.04.746-1.138 0-1.177-22.407-.667-44.736-3.375-66.634-8.162-.745-.157-1.06.98-.314 1.138zM66.516 180.36c10.086 3.021 20.407 5.022 30.884 6.043.746.078.746-1.099 0-1.178a162.059 162.059 0 01-30.57-6.004c-.745-.235-1.06.903-.314 1.138zM96.93 211.479c27.548 4.199 55.528 8.359 83.43 5.18.745-.079.745-1.256 0-1.177-27.824 3.178-55.647-.942-83.117-5.141-.745-.118-1.06 1.02-.314 1.138zM139.822 209.517c14.127 2.55 28.49 3.178 42.774 1.805.746-.079.746-1.256 0-1.177a157.128 157.128 0 01-42.46-1.766c-.746-.118-1.06.98-.314 1.138zM168.116 181.615a42.547 42.547 0 01-1.02 15.893c-.118.393.196.707.549.746 3.375.275 6.71.55 10.085.824 1.452.118 4.71 1.138 5.612-.47.47-.825.353-2.238.431-3.14.079-1.413.118-2.826.197-4.238.157-3.218.431-6.397 1.452-9.497.117-.353-.197-.785-.55-.746a61.479 61.479 0 01-15.187-.706c-.47-.079-.784.275-.706.706.078.471.078.471.353.864.432.627 1.452.039 1.02-.589l-.235-.589-.706.707c5.14.902 10.281 1.138 15.5.745a9.053 9.053 0 01-.549-.745c-1.57 4.67-1.413 9.536-1.727 14.363-.039.431 0 1.726-.196 2-.431.59-1.412.354-1.962.315-1.413-.118-2.825-.236-4.277-.353-2.826-.236-5.69-.471-8.516-.707.196.236.392.51.55.746 1.373-5.298 1.765-10.753 1.059-16.207-.079-.667-1.256-.667-1.177.078z" opacity=".3" fill="#342E52"/><path d="M.118 1.844l1.06 58.433c26.998 3.414 53.958 6.789 80.957 10.203.706-23.428 1.413-46.817 2.158-70.245-28.058.55-56.117 1.1-84.175 1.61z" fill="#8989C0" opacity=".38"/><path d="M70.598 64.162c.392-.746 1.295-1.923 1.412-2.786.079-.628-.51-1.256-.824-1.766a564.477 564.477 0 01-3.846-6.515c-.627-1.06-1.412-2.158-1.922-3.257-.628-1.334-.04-1.766.627-2.904a38.818 38.818 0 002.708-5.611c2.669-7.064 3.1-15.187-.078-22.173-5.18-11.42-17.699-14.01-29.04-14.245-11.733-.274-23.585 4.12-30.57 13.931-8.084 11.342-3.257 27.235 7.692 34.77 11.42 7.887 27.391 7.534 39.32 1.138.668-.354.08-1.374-.588-1.02-9.654 5.18-20.916 6.003-31.237 2.354C13.578 52.31 5.376 41.754 6.162 30.099 7.063 16.992 19.934 8.555 31.825 6.593c3.61-.589 7.22-.589 10.87-.393 4.984.275 10.007.981 14.56 3.1 6.435 2.983 10.79 8.752 12.086 15.737 1.53 8.24-1.06 16.717-5.651 23.506a.535.535 0 000 .589l4.238 7.181c.628 1.099 1.295 2.159 1.923 3.257.392.668.903 1.217.824 2.041-.04.589-.746 1.452-1.02 2.001-.432.628.588 1.256.942.55z" fill="#342E52"/><path d="M55.685 55.293a53.088 53.088 0 0014.285 8.476c.706.275 1.02-.863.314-1.138a52.555 52.555 0 01-13.775-8.162c-.588-.51-1.412.314-.824.824z" fill="#3B5146"/><ellipse stroke="#3B5146" stroke-width=".5" fill="#342E52" cx="20.642" cy="31.316" rx="2.825" ry="4.12"/><ellipse stroke="#3B5146" stroke-width=".5" fill="#342E52" cx="36.81" cy="30.806" rx="2.825" ry="4.12"/><ellipse stroke="#3B5146" stroke-width=".5" fill="#342E52" cx="52.546" cy="30.335" rx="2.825" ry="4.12"/></g></g></svg>