<svg xmlns="http://www.w3.org/2000/svg" viewBox="0 0 1438 744">
  <defs/>
  <g fill-rule="nonzero" fill="none">
    <path d="M2.8 207.9c52-25.3 106.1-46.1 161.7-62 14-4 28.3-7.8 42.9-9.3 15.1-1.5 30.1.1 45 2.8 28.7 5.2 57 12.8 84.9 21.3 31.7 9.7 62.9 20.8 94 31.9 1.8.6 2.6-2.2.8-2.9-56.8-20.2-114-40.5-173.3-52.1-13.8-2.7-27.9-4.9-42-4.5-14.3.4-28.4 3.3-42.1 6.9-28.1 7.4-55.9 16.6-83.2 26.7-30.7 11.4-60.7 24.3-90.1 38.6-1.8.8-.3 3.4 1.4 2.6z" fill="#DBC7BE"/>
    <path d="M285 145.1c40.4-10.9 81.7-18.2 123.1-24.4 20.4-3 40.8-5.8 61.3-8.6 21-2.8 42.1-5.4 63.4-5.6 76.1-.6 148.5 26.6 221.3 44.8 40.4 10.1 81.7 17.6 123.5 16.5 1.9 0 1.9-3 0-3-76.8 2-149.8-24.9-223.2-43.6-35.9-9.1-72.4-16.5-109.5-17.7-40.6-1.2-81.2 6.1-121.3 11.8-46.9 6.7-93.6 14.4-139.4 26.8-1.8.7-1 3.6.8 3zM753.5 191.9c40.5 2.6 81.3.5 121.3-6.6 39.9-7 79.4-22.3 120.5-19.3 1.9.1 1.9-2.9 0-3-40.1-2.9-78.6 11.5-117.5 18.7-41 7.6-82.8 9.9-124.3 7.2-1.9-.1-1.9 2.9 0 3zM135.132917 197.342456c9.591826 15.000978 25.516121 21.365029 39.764173 27.274505 8.381208 3.522957 16.85554 7.045914 24.398626 12.614458 3.724982 2.727451 7.170589 5.795833 10.243699 9.546077 2.141864 2.727451 4.190603 5.568545 3.724981 9.773364-.372498 3.29567-3.445608 6.364052-5.401223 8.409639-7.263713 7.841421-14.620551 15.455553-21.977389 23.18333-5.214973 5.454901-11.547441 11.591664-12.199313 20.569522-1.117494 15.68284 14.527427 22.501467 24.491751 25.456205 19.183653 5.795832 38.646679 10.114295 58.20283 13.523608 38.739803 6.704983 77.852105 9.659721 116.964407 11.932596 39.950422 2.272876 79.993969 3.863889 119.944391 8.068708 9.684951 1.022794 19.463026 2.159232 29.147977 3.636601 6.704966 1.022794 19.463027 4.204819 18.159283 15.455553-1.117494 9.318789-12.106188 15.114621-17.600536 20.455878-6.891215 6.591339-13.316807 14.091828-19.090528 22.160536-5.494347 7.727776-10.429947 16.023771-14.713675 24.887985-3.166234 6.591339-6.425592 14.887334-4.656226 22.728754 1.676241 7.159558 7.263713 9.887008 12.75806 10.568871 9.405577 1.136438 19.183653.340931 28.58923 0 39.4848-1.591013 78.690226-8.523283 117.988776-12.159883 19.7424-1.818301 39.577925-2.727451 59.413449-1.704657 18.345532 1.022794 37.808558 2.727451 55.315969 9.659721 7.077464 2.72745 14.527427 6.93227 19.463027 13.978183 6.053094 8.636927 5.680596 19.774016.744996 29.092806-4.749351 8.977858-12.199313 15.796484-18.904279 22.61511-7.915585 7.955064-16.017419 15.68284-24.305502 23.069685-7.729336 6.818627-15.551796 13.409965-23.560506 19.660373-1.489992 1.136437-.093124 4.091175 1.396868 2.954738 16.110544-12.728103 31.569215-26.478999 46.376015-41.252689 10.802445-10.796158 27.751109-25.115273 25.422996-44.889289-1.86249-15.341909-14.434302-23.751548-25.329871-28.183655-16.85554-6.818627-35.666694-8.636927-53.174106-9.773365-39.857297-2.613806-79.621471 3.068382-119.199395 7.955064-19.649275 2.386519-39.298551 4.659395-59.04095 5.568545-9.684951.454575-19.556151.90915-29.241102.227287-4.749351-.340931-10.057449-1.591012-11.91994-7.727776-1.676241-5.682188.558748-12.387171 2.700612-17.501141 8.288083-19.205797 20.859894-36.138719 34.735448-49.43504 7.449963-7.159557 27.378612-20.455879 14.713676-34.320419-4.190604-4.54575-10.243698-6.364051-15.738045-7.273201-9.8712-1.591013-19.835525-2.72745-29.706725-3.750244-19.742399-2.159232-39.577924-3.522957-59.413448-4.773039-40.229796-2.500163-80.552717-3.863888-120.782513-7.727776-39.391675-3.750245-79.621471-9.091502-117.895652-21.933248-6.611841-2.272875-15.272422-6.02312-18.531781-14.205471-4.563101-11.591665 6.146219-20.79681 12.385563-27.388149 7.263713-7.727776 15.272422-15.000978 22.070513-23.410617 4.469977-5.568544 5.680596-11.818952 1.583117-18.183003-9.964325-15.114621-26.912989-21.024097-41.347291-27.047217-16.017418-6.704983-34.36295-15.682841-40.32292-37.04787-2.700611-9.65972-2.234989-20.001303 2.793736-28.410942 1.117494-1.591013-1.303744-3.29567-2.328113-1.477369-8.101834 13.523608-5.121849 32.047543 2.88686 44.548358z" fill="#DBC7BE"/>
    <path d="M186.301055 136.158263c-8.532782 13.006753-5.394288 30.822727 3.040417 42.845776 10.10203 14.42766 26.873361 20.548485 41.879289 26.232108 8.827016 3.388314 17.75211 6.776628 25.696425 12.13235 3.923119 2.623211 7.552003 5.574323 10.788576 9.181238 2.255793 2.623211 4.413508 5.355722 3.923118 9.399839-.392312 3.169713-3.628884 6.120825-5.688522 8.088233-7.65008 7.541731-15.398239 14.864861-23.146398 22.297292-5.492366 5.246422-12.161667 11.148646-12.848213 19.783381-1.176935 15.083463 15.300162 21.64149 25.794504 24.483301 20.204059 5.574323 40.702353 9.72774 61.298725 13.006754 40.800431 6.448726 81.993174 9.290538 123.185917 11.476547 42.075445 2.186009 84.248968 3.716215 126.324413 7.760332 10.200108.983704 20.498293 2.076709 30.698401 3.497614 7.061613.983705 20.498294 4.044117 19.125202 14.864862-1.176935 8.962637-12.750134 14.53696-18.536734 19.674081-7.257769 6.339426-14.025148 13.553256-20.105982 21.313587-5.7866 7.432431-10.984731 15.411364-15.496318 23.936799-3.33465 6.339426-6.767379 14.318359-4.903898 21.86009 1.765404 6.885928 7.650081 9.509139 13.436681 10.164942 9.905874 1.093004 20.20406.327901 30.109934 0 41.585055-1.530206 82.875876-8.197534 124.264775-11.695148 20.792527-1.748807 41.683133-2.623211 62.573738-1.639507 19.321358.983704 39.819652 2.623211 58.258309 9.290538 7.453924 2.623211 15.300161 6.667328 20.498293 13.443956 6.375068 8.306834 5.982756 19.018278.784624 27.980915-5.001976 8.634735-12.848213 15.192762-19.909826 21.750789-8.336627 7.651032-16.869409 15.083463-25.598348 22.187992-8.14047 6.558027-16.379019 12.897453-24.813723 18.908978-1.569248 1.093004-.098078 3.934816 1.471169 2.841811 16.967487-12.24165 33.248428-25.467004 48.842824-39.676063 11.377043-10.383543 29.227232-24.155399 26.775283-43.173678-1.961559-14.755561-15.202084-22.843794-26.677205-27.106511-17.752111-6.558027-37.563859-8.306835-56.002515-9.399839-41.977367-2.51391-83.856656 2.951112-125.539789 7.651031-20.694449 2.29531-41.388899 4.481319-62.181426 5.355722-10.200108.437202-20.596372.874404-30.79648.218601-5.001976-.327901-10.59242-1.530206-12.553979-7.43243-1.765403-5.465023.588468-11.913749 2.844261-16.83227 8.728939-18.471776 21.969463-34.757543 36.583079-47.545695 7.846237-6.885929 28.83492-19.674081 15.496318-33.008736-4.413508-4.372018-10.788576-6.120826-16.575175-6.995229-10.396264-1.530206-20.890606-2.623211-31.28687-3.606915-20.792527-2.076709-41.683133-3.388314-62.573738-4.590619-42.369679-2.40461-84.837435-3.716215-127.207114-7.43243-41.486977-3.606915-83.856656-8.744036-124.166697-21.094987-6.963536-2.186009-16.084786-5.792924-19.517514-13.662557-4.80582-11.148646 6.473145-20.001982 13.044368-26.341408 7.650081-7.432431 16.084786-14.42766 23.244477-22.515893 4.707742-5.355722 5.982755-11.367247 1.667325-17.488072-10.494342-14.53696-28.34453-20.220583-43.546614-26.013507-16.869409-6.448727-36.190767-15.083462-42.467757-35.631947-2.844261-9.290538-2.353871-19.236879 2.942339-27.325112 1.275014-1.420906-1.275013-3.060413-2.451949-1.420906zM50.1 594.5c68.1-21.2 140.9-34.1 211.6-19.3 19.4 4.1 38.2 10.2 56.2 18.5 1.7.8 3.3-1.8 1.5-2.6-65.1-30.1-139-30.2-208.2-15.8-20.9 4.3-41.6 10-62 16.3-1.7.6-.9 3.5.9 2.9zM576.2 266.8c15.9 2.1 30.9-6.2 46.7-6.7 17.1-.6 33.9 4.3 50.1 9.1 1.9.5 2.6-2.3.8-2.9-15.9-4.7-32.3-9.5-49-9.2-16.4.2-32.1 8.9-48.5 6.8-2-.4-2 2.6-.1 2.9zM662 259c24.7-8.2 51.2-8.5 76-.7 1.8.6 2.6-2.3.8-2.9-25.3-8-52.4-7.7-77.6.7-1.8.6-1 3.5.8 2.9zM226.1 446.6c5.1.7 9.8.3 14.6-1.3.8-.3 1.2-1 1-1.8l-2.4-13.5c-.7.6-1.5 1.1-2.2 1.7 2.6 1.8 5.8.9 7.7-1.6 3.4-4.4-.9-9.4.2-14.1 2.4-10.2 15.3 2.2 18.4 5.4 4.6 4.7 8.3 10.1 11.2 16 .9 1.7 3.4.2 2.6-1.5-4.8-9.7-13.1-21.4-23.6-25.8-3.3-1.4-7.4-1.8-10 1.1-1.3 1.4-1.8 3.3-1.8 5.2 0 1.1.1 2.1.3 3.2.1.8.3 1.5.5 2.3 1.3 3.3 0 5.7-4.1 7.1-1.2-.8-2.4.5-2.2 1.7l2.4 13.5c.3-.6.7-1.2 1-1.8-4.3 1.5-8.5 2-13 1.3-1.7-.2-2.6 2.7-.6 2.9zM825.7 332.8c1.1-2.6 2.1-5.2 3.3-7.7 1.6-3.5 5-4.8 8.6-3.5 4.2 1.5 7.7 3.2 12.2 1.7 4.1-1.4 7.3-4.7 10.2-7.7 2.1-2.1 4.3-4.3 7-5.5 3.6-1.6 11.2-.6 9.6 5.4-.5 1.9 2.4 2.7 2.9.8 1.3-5-2.6-9.2-7.5-10-6-1-10.8 3.9-14.7 7.8-4.2 4.2-8.6 8.3-15 6.3-2.7-.9-5.3-2.6-8.2-2.7-7.1-.3-8.8 8.6-11 13.7-.7 1.7 1.8 3.2 2.6 1.4zM1181.4 185.3c66.1 12.4 132.5 23.3 199.1 32.5 18.7 2.6 37.3 5 56 7.4 1.9.2 1.9-2.8 0-3-66.3-8.3-132.3-18.2-198.1-29.6-18.7-3.3-37.5-6.7-56.2-10.2-1.9-.3-2.7 2.5-.8 2.9zM678.6 630c24.9 12.3 51.9 2.1 77.5-1.8 15.1-2.3 30-.8 45 1.1 15.3 1.9 30.7 3.8 46 5.8 1.9.2 1.9-2.8 0-3-14.4-1.8-28.8-3.6-43.1-5.4-14.2-1.8-28.5-3.7-42.8-2.1-26.7 2.9-55.2 15.7-81.1 2.9-1.7-.9-3.3 1.7-1.5 2.5zM381.3 545.6c10.1 10.1 14.4 24.2 9.8 37.9-1.2 3.7 4.6 5.2 5.8 1.6 5.2-15.7.2-32.3-11.4-43.7-2.7-2.8-6.9 1.4-4.2 4.2z" fill="#DBC7BE"/>
    <path d="M391.4 586.5c3.5 8.6 11.5 14 20.4 15.6 1.9.3 2.7-2.6.8-2.9-7.8-1.4-15.2-5.9-18.3-13.5-.7-1.8-3.6-1-2.9.8z" fill="#DBC7BE"/>
    <path d="M412.1 599.2c-6.1.1-15-.8-20.6 2.3-4.5 2.6-6.1 8.4-6.6 13.2-1.3 11.6 7.8 20.1 19.3 18 1.9-.3 1.1-3.2-.8-2.9-10.3 1.9-17.1-6.6-15.3-16.4.9-4.7 2.6-9.2 7.7-10.3 5.2-1.1 11-.9 16.3-1 1.9.1 1.9-2.9 0-2.9z" fill="#DBC7BE"/>
    <path d="M402.6 630.2c-6.1.5-14.3 3.7-13 11.1 1.1 6.5 6.2 13.1 9.8 18.4 3.1 4.5 6.7 8.5 10.6 12.2 13.4 12.6 29.2 21.6 43.9 32.4 14 10.4 25.9 23.3 35.9 37.6 1.1 1.6 3.7.1 2.6-1.5-11.9-16.9-26.4-32.2-43.9-43.4-15.6-10-33.1-21.1-44.5-35.9-2.5-3.2-4.6-6.7-6.7-10.2-1.8-3-4.3-6.4-4.8-9.9-.8-5.4 5.7-7.4 10.1-7.7 1.9-.3 2-3.3 0-3.1zM383.1 542.9c31.1 12 61.6 25.2 85 49.7 21.6 22.7 35.5 51.5 42.3 82 2.1 9.6 3.5 19.3 4.4 29 .5 4.9.8 9.9 1 14.8.1 2.2.1 4.3.2 6.5 0 .5-.1 10-.8 9.5-1.6-1.1-3.1 1.5-1.5 2.6 5.5 3.7 5.400123-7 5.400123-9.3C519 717.8 518.5 707.9 517.3 698.1c-2.2-19.2-6.5-38.2-13.8-56.1-12.4-30.3-33.5-56.8-61.1-74.6-18.1-11.7-38.4-19.6-58.4-27.3-1.9-.8-2.7 2.1-.9 2.8z" fill="#DBC7BE"/>
    <path d="M392.4 553.5c43.7 38.1 79.4 85.8 100.9 139.8 5.8 14.6 10.5 29.6 14.1 44.9.4 1.9 3.3 1.1 2.9-.8-13.2-55.5-41.2-106.8-78.9-149.5-11.5-13-23.8-25.2-36.9-36.5-1.4-1.3-3.5.9-2.1 2.1z" fill="#DBC7BE"/>
    <path d="M394 585c11.3 2.2 22.2 5.5 32.8 9.9 1.8.7 2.6-2.2.8-2.9-10.6-4.4-21.6-7.7-32.8-9.9-1.9-.4-2.7 2.5-.8 2.9zM437.4 594.3c2.8-7.1 6.8-13.5 11.8-19.3 1.3-1.4-.8-3.6-2.1-2.1-5.4 6.1-9.6 13-12.6 20.6-.6 1.8 2.3 2.6 2.9.8zM497.6 538.5c15.7 36 32.9 78.2 11.9 115.8-.9 1.7 1.6 3.2 2.6 1.5 21.6-38.7 4.3-81.8-11.9-118.8-.8-1.7-3.4-.2-2.6 1.5zM500.3 535.9c9.1 3.4 25.1 9.2 22.8 21.8-.3 1.9 2.5 2.7 2.9.8 2.7-14.6-14-21.3-24.8-25.5-1.9-.6-2.7 2.3-.9 2.9z" fill="#DBC7BE"/>
    <path d="M525.4 559.1c5.1-4.3 11.7.3 14.5 5 2.7 4.5 2.9 9.8.8 14.6-.8 1.8 1.8 3.3 2.6 1.5 3-6.8 2.2-14.5-2.7-20.3-4.3-5.1-11.7-7.5-17.3-2.9-1.5 1.2.7 3.3 2.1 2.1z" fill="#DBC7BE"/>
    <path d="M540.6 582.7c8.3-.9 12.8 7.2 16.3 13.5 3.8 6.9 7.2 14 10 21.4 5.4 14.3 8.6 29.4 9.4 44.6 1.4 27-4.9 55.1-26.4 73.2-1.5 1.3.7 3.4 2.1 2.1 23.4-19.8 29.4-51.3 26.9-80.5-1.5-16.5-5.7-32.7-12.3-47.9-3.3-7.6-7-15.7-12.1-22.3-3.5-4.4-8.1-7.7-13.9-7-1.9.1-1.9 3.1 0 2.9z" fill="#DBC7BE"/>
    <path d="M503 540.3c20.5 28.6 38.1 60.4 44.5 95.4 3.1 17 3.4 34.7.1 51.7-1.6 8.1-3.9 16.2-7 23.8-1.6 4-3.5 8-5.6 11.8-2 3.6-4.7 10.6-9 11.7-1.9.5-1.1 3.4.8 2.9 5.1-1.3 7.6-7.4 10-11.6 3.4-6 6.2-12.2 8.5-18.7 4.7-13.1 7.2-27 7.6-40.9.9-29-7.4-57.3-20.1-83.2-7.7-15.7-17-30.4-27.2-44.6-1.2-1.4-3.8.1-2.6 1.7zM574.2 630.9c.5-1.7 1-3.5 1.5-5.2.3-1.1.8-4.3 1.5-5.2 2.3-3 9.7-.9 12.9-.5 1.4.1 1.9-1.7 1.1-2.6-3.3-3.4-7.1-8.1-5.3-13.1 1.7-4.8 9.4-7 12.4-2l2.4-1.8c-2.2-2.7-4.6-6.2-4.3-9.9.4-4.7 5.1-7.7 9.6-7.1 1.3.2 2.3-1 1.7-2.2-4.7-9.6 3.6-20.2 6.7-29.1 3.2-9.1 4.4-18.7 4-28.3-.1-1.9-3.1-1.9-3 0 .6 12.4-2 24.2-7.1 35.4-3.5 7.5-7.1 15.4-3.2 23.5.6-.7 1.1-1.5 1.7-2.2-5.1-.7-10.6 1.5-12.7 6.6-2.3 5.6.9 11.2 4.4 15.4 1.1 1.3 3.2-.4 2.4-1.8-3.2-5.4-11.3-5.5-15.5-1.2-6.2 6.4-1.2 14.8 3.8 19.9.4-.9.7-1.7 1.1-2.6-3.6-.4-11.2-2.8-14.3 0-3 2.7-3.6 9.6-4.6 13.2-.6 1.9 2.3 2.7 2.8.8z" fill="#DBC7BE"/>
    <path d="M615.9 527c7.1 14.9 10.4 31 13.6 47.1 3.3 17.2 6.7 34.5 6.8 52.1 0 27.8-10 54.5-26.8 76.4-10.1 13.2-22.4 24.5-36.1 33.7-1.6 1.1-.1 3.7 1.5 2.6 23.8-16 43.5-38.2 54.7-64.8 5.3-12.5 8.6-25.9 9.5-39.5 1.2-17.7-1.7-35.4-5-52.8-3.6-19.2-7.1-38.5-15.5-56.3-1-1.8-3.6-.3-2.7 1.5z" fill="#DBC7BE"/>
    <path d="M618.8 539c2.5 35.4-1.5 70.9-11.5 104.9-5.1 17.3-11.8 34.2-19.9 50.4-7.6 15.1-16 34-30.8 43.3-1.6 1-.1 3.6 1.5 2.6 11-7 17.6-18.3 23.9-29.4 7.1-12.5 13.3-25.4 18.6-38.7 10.8-26.8 17.7-55.1 20.5-83.9 1.6-16.3 1.8-32.8.6-49.2-.1-1.9-3.1-1.9-2.9 0zM1070 707.4c-2.1-28.8 4.3-57.6 18.7-82.7-.7.2-1.4.4-2.1.5 1.9.9 3.7 1.9 5.6 2.8 1.2.6 2.4-.4 2.2-1.7-.5-2.5-.3-4.6.5-7.1-.6.3-1.2.7-1.8 1 1.8.5 3.5 1 5.3 1.5 1.1.3 2.1-.8 1.8-1.8-1.4-5.9 4.3-10.2 8.3-13.5 3.8-3.2 7.5-6.5 10.9-10.2 6.5-7 12-14.8 16.5-23.3h-2.6c10.2 23.4 8.4 51.2-4.2 73.4-6.7 11.8-16.5 20.1-26.4 29-10.2 9.1-18.1 19.6-22.8 32.5-.7 1.8 2.2 2.6 2.9.8 5.7-15.6 16.4-26.2 28.6-36.9 9.9-8.7 18.2-18.3 23.7-30.4 10-22 10.6-47.6.9-69.9-.5-1-2.1-.9-2.6 0-5.7 10.7-13 20.3-21.9 28.5-6 5.5-16.3 11.2-14.1 20.8l1.8-1.8c-1.8-.5-3.5-1-5.3-1.5-.8-.2-1.6.3-1.8 1-.9 3-1.1 5.6-.5 8.6.7-.6 1.5-1.1 2.2-1.7-1.9-.9-3.7-1.9-5.6-2.8-.7-.4-1.6-.2-2.1.5-14.6 25.5-21.3 54.9-19.1 84.2.1 2.1 3.1 2.1 3 .2z" fill="#DBC7BE"/>
    <path d="M1143.9 609.8c6.3-6.3 11.9-13.1 16.9-20.5l-2.4.3c10.2 11.8 14.5 28 11.8 43.4-.6 3.3-1.5 6.6-2.7 9.8-.8 2.1-1.7 4.4-3 6.2-1.3 2-2.3 2.3-4.5 3.1-1.5.5-2.9.4-3.7 2.1-.3.6 0 .9 0 1.5.8 1.7 1.3 3.4 1.5 5.3.1 1.1.1 2.1-.1 3.2l1.5-1.5c-6.7.3-6.1 6.9-8.7 11.4-3.6 6.2-12.5 7.9-18.6 10.6-13.7 6.1-26 15.1-36.1 26.2-1.3 1.4.8 3.6 2.1 2.1 9.6-10.5 21-19.1 34-25.1 5.3-2.4 11.2-3.9 16.1-7.2 1.7-1.1 3.2-2.4 4.4-4.1 2-2.8 2.7-10.9 6.8-11.1.9 0 1.4-.7 1.5-1.5.1-1.7.1-3.4-.2-5.1-.5-2.5-1.7-3.1.8-4.1 2.7-1.1 3.7-1.1 5.3-3.8 3.9-6.4 6.2-13.9 7-21.3 1.6-15.3-3.1-30.7-13.1-42.3-.7-.8-1.9-.4-2.4.3-4.9 7.2-10.3 13.8-16.4 19.9-1.2 1.5.9 3.6 2.2 2.2zM1127.2 600.2c-1 9.1-7.8 18-12.6 25.6-4.9 7.6-10.1 14.9-15.2 22.3-9.9 14.4-19.4 29-25.7 45.4-.7 1.8 2.2 2.6 2.9.8 6.8-17.7 17.5-33.3 28.2-48.8 5.1-7.4 10.2-14.8 15-22.4 4.3-7 9.4-14.5 10.3-22.9.4-1.9-2.6-1.9-2.9 0z" fill="#DBC7BE"/>
    <path d="M1103.6 608.4c-.7 7.1.3 14.1 3.1 20.7.7 1.8 3.6 1 2.9-.8-2.6-6.4-3.6-13-2.9-19.9.1-1.9-2.9-1.9-3.1 0zM1099.5 653.6c6.3 1 12.3.2 18.2-2.4 1.8-.8.2-3.4-1.5-2.6-5 2.2-10.4 3-15.8 2.1-1.9-.2-2.8 2.6-.9 2.9zM766.6 732.4h553.5c5.8 0 5.8-3 0-3H766.6c-5.8 0-5.8 3 0 3zM1140.4 715.6h141.1c5.8 0 5.8-3 0-3h-141.1c-5.8 0-5.8 3 0 3zM706.3 731.2h37.4c5.8 0 5.8-3 0-3h-37.4c-5.8 0-5.8 3 0 3zM658.1 732.4h15.7c5.8 0 5.8-3 0-3h-15.7c-5.8 0-5.8 3 0 3zM1303.2 713.1h37.4c5.8 0 5.8-3 0-3h-37.4c-5.8 0-5.8 3 0 3zM1362.3 711.9h16.9c5.8 0 5.8-3 0-3h-16.9c-5.8 0-5.8 3 0 3zM254.1 741.3h214.2c5.8 0 5.8-3 0-3H254.1c-5.8 0-5.8 3 0 3zM187.6 715.5h72c5.8 0 5.8-3 0-3h-72c-5.8 0-5.8 3 0 3zM289.2 721h24c5.8 0 5.8-3 0-3h-24c-5.8 0-5.8 3 0 3z" fill="#DBC7BE"/>
    <path d="M168.305706 22.6018811c-2.7-7-8.8-22.8-16.5-22.6-10.7.2-21.5 30.4-21.8 56.6-.3 27.7 11.3 52.2999999 18.3 66.9999999 3.3 7 6.4 12.6 8.7 16.5 13.6-30.7 27.1-76.3999999 11.3-117.4999999zm-9.8 24.3c-3.3 3-8.1 4-11.5.8-.8-.7-1.4-1.6-1.9-2.6-3-4.2-2.8-10.4 1.4-14.1 3.1-2.7 7-2.7 10-.8 1.5.8 2.8 1.9 3.6 3.4.5.9.8 1.9 1 2.9 1 3.6.3 7.7-2.6 10.4z" fill="#8989C0"/>
    <path d="M160.205706 2.8018811c15.7 15.4 18.2 40.3 18 61.2-.3 23.5-5.9 46.7999999-16.2 67.8999999-.8 1.7 1.7 3.2 2.6 1.5 10.8-22.1 16.6-46.4999999 16.6-71.1999999 0-21.2-3-45.9-18.9-61.6-1.3-1.3-3.5.8-2.1 2.2zM148.605706 31.1018811c-4.3 5.9-2.5 13.9 3.8 17.5 1.7 1 3.2-1.6 1.5-2.6-5-2.8-6.1-8.7-2.7-13.3 1.1-1.6-1.5-3.1-2.6-1.6z" fill="#342E52"/>
    <g>
      <path d="M842.3 676.8c.4 13 .7 26 1.1 39-41.3 12.2-61.6 20.2-60.9 24 .9 4.8 34 3.2 99.3-4.8-1.4-22.2-2.8-44.5-4.3-66.7-11.7 2.8-23.4 5.6-35.2 8.5z" stroke="#161616" stroke-width="2" fill="#342E52"/>
      <path d="M973 420.5c-6 1.8-4.7 2.5-37.1 27.4-34.3 26.3-51.4 39.5-63.3 46.2-6.9 3.9-12.5 6.7-19.4 13.1-11.4 10.7-17.2 22.9-21.7 34.8-14 37.1-16.1 72.6-16.5 88.4-.4 14.6-.1 35.2 3.4 59.9 10.8 2.6 19.8 3.3 26.2 3.4 11.1.2 26.9.4 43.3-8 4.8-2.5 8.5-5.1 10.8-6.8-2.9-17.1-5.1-38.6-4-63.3.9-19.9 3.6-37.4 6.8-51.9 5.3-4 13.4-9.7 23.9-15.4 12.1-6.5 24.2-11.3 57.6-21.1 40-11.7 41.4-10.4 47.3-15.4 15.3-12.8 26.3-38.6 17.7-61-11.2-29.5-50.6-37.4-75-30.3z" fill="#FFF"/>
      <path d="M957.6 430.6c-18.5 12.9-36.9 25.9-55.4 38.8-16.4 11.5-34 22.3-49 35.8-14.4 12.9-22.4 29-27.6 47.4-5.7 20.4-9.4 41.5-11.3 62.6-2.2 24.3-1.7 48.7 1.1 72.9.2 1.9 3.2 1.9 3 0-4.9-41.4-2.5-83.5 7.3-123.9 4.7-19.5 10.9-38.3 25.4-52.8 14-14 31.6-24.6 47.7-35.9l60.3-42.3c1.6-1.1.1-3.7-1.5-2.6zm56.7 84.8c-22 6.3-43.7 13.3-65.1 21.3-9.4 3.5-19 7-28.2 11.1-7.6 3.4-14.7 7.7-19.1 15-1 1.7 1.6 3.2 2.6 1.5 4.8-8.1 13.4-12.1 21.7-15.5 9.6-3.9 19.3-7.6 29.1-11.2 19.7-7.2 39.6-13.6 59.7-19.3 1.9-.5 1.1-3.4-.7-2.9z" fill="#161616"/>
      <path d="M903.2 547.8c-10.4 42.5-12.3 86.7-5.6 129.9.3 1.9 3.2 1.1 2.9-.8-6.6-42.7-4.7-86.4 5.6-128.3.4-1.9-2.5-2.7-2.9-.8z" fill="#161616"/>
      <path d="M816.7 688c.5 5.6 9.2 4.7 13 5.1 9.2.9 18.4 1.6 27.7 1.1 15-.8 29.7-5 41.5-14.6 1.5-1.2-.6-3.3-2.1-2.1-10.1 8.2-22.6 12.2-35.4 13.4-6.6.6-13.2.6-19.8.2-2.4-.1-21.7-.6-21.9-3.1-.2-1.9-3.2-1.9-3 0z" fill="#161616"/>
      <path d="M1013.4 481.7c-13.8-7-29.6 10.9-68.6 28.7-31.9 14.6-39.8 11-52.3 18.6-22 13.3-41.5 51.2-27.5 161.3 3.1 0 6.7-.3 10.7-1.1 10.5-2.2 18-7.2 22.5-10.7-3.5-21.9-5.6-49.5-2.2-81 1.4-13.3 3.6-25.5 6.2-36.5 9.5-5.5 24.3-13.4 43.3-20.8 46.1-18.1 74.7-17 79.3-33.2 2.4-9.1-3.2-21.2-11.4-25.3z" fill="#666" opacity=".11"/>
      <path d="M1003.3 518.8c-.5-2.7-32.9-1.3-66.9 10.1-21.7 7.2-33.5 11.2-43.8 22.5-16.4 17.8-17.3 40.7-18.6 72.5-.6 15.1-.2 36.9 5.1 63 6.6-2.1 13.1-4.1 19.7-6.2-2.5-18.6-4.1-41-2.8-66.3 1-18.9 3.3-35.8 6.2-50.6 2.9-3.1 7.3-7.5 13.5-11.8 13.5-9.5 25.4-11.9 39.4-15.7 18.1-5.1 48.7-14.9 48.2-17.5z" fill="#666" opacity=".12"/>
      <path d="M1171 638.7c21.8-7.1 40.3-11.1 53.8-13.5 19.3-3.4 23.8-2.7 27.4 0 6.2 4.6 4.9 11.4 7.2 53.8.8 13.9 1.2 17.4-1.6 21.7-9.5 15.1-41.1 14.4-43.5 7.8-.9-2.6 2.1-7.4 17.1-17.1-.5-9.5-1-19-1.6-28.5-17.1 4.1-34.2 8.3-51.2 12.4-2.4-12.1-5-24.3-7.6-36.6h0z" stroke="#161616" stroke-width="2" fill="#342E52"/>
      <path d="M996.3 466.5c-6.6 15.5-1.9 32.1.3 39.9 2.5 9 4.9 10.2 8.9 22.3 4.3 13 5.6 22.4 7.4 33.7 2.6 16.5 5.6 35.3 10.3 54.1 5.8 23.2 9 35.1 18.6 48 4.2 5.7 14.1 18.5 31.5 25.3 3.3 1.3 7.7 2.7 18.6 4.1 12 1.6 30.6 4 55.2 1 21-2.5 38.5-8.1 51.6-13.4 2.6-9.6 2.5-17.6 2.1-22.7-.6-6.4-1.6-18.3-10.3-28.4-2.5-2.9-6.2-7.1-12.4-9.3-6.8-2.3-12.9-.8-23.7 2.1-12.5 3.3-17.1 6.9-25.3 5.2-3.5-.7-6.1-2.1-7.7-3.1-2.4-3.7-5.7-9.3-8.8-16.5-8.1-18.8-8.7-33.9-9.8-50.5-2.5-37.4-3.8-56.1-9.8-76.8-6.3-21.7-8.1-32.6-17.5-39.2-9.7-6.8-20.7-6.3-27.5-6-16.7.7-42.5 8.7-51.7 30.2z" fill="#FFF"/>
      <path d="M1080.3 449.2c16.4 34.4 17.7 73 21.3 110.2 2.6 26.9 4.9 63.8 32.2 78 1.7.9 3.2-1.7 1.5-2.6-14-7.3-21-21.7-24.9-36.4-4.2-16.1-5.3-33-6.7-49.6-3-34.4-5.7-69.5-20.7-101.2-.9-1.7-3.5-.2-2.7 1.6z" fill="#161616"/>
      <path d="M999 517.7c17.6 39.9 13.2 85.4 30.3 125.4 6.8 16 17 31 31.5 40.9 17.6 11.9 40.5 14.3 61.2 14 26.1-.4 51.8-6.4 76-15.9 1.8-.7 1-3.6-.8-2.9-21.1 8.3-43.3 14-66 15.4-21.6 1.4-46.2.3-65.3-10.9-33.5-19.7-42.4-62-47.8-97.3-3.6-23.9-6.8-48-16.7-70.3-.6-1.6-3.2-.1-2.4 1.6z" fill="#161616"/>
      <path d="M1119.5 625.8c18.1 10.6 38.8-9.8 57.9-3.6 10.6 3.5 15.8 14.9 18.7 24.9 3.2 10.8 3.6 22.1 1.4 33.1-.4 1.9 2.5 2.7 2.9.8 2-10.4 1.9-21.1-.5-31.4-2.3-9.4-6.3-20.1-14.2-26.3-7.3-5.8-17-5.9-25.8-4.2-11.8 2.3-27.3 11-38.9 4.2-1.7-1-3.2 1.5-1.5 2.5z" fill="#161616"/>
      <path d="M1065.5 447.9c-16.8 16.5 17.1 52.8 17.7 113.8.5 47.7-10.8 67.5 4.4 83.5 21.8 22.9 71.1 9.7 76.5 8.2 8.6-2.4 27-5.9 28.5-15.2.9-6.1-5.5-13-12-16.4-19.8-10.5-38.3 12.7-55.7 5.1-13.1-5.8-16-25-21.5-60.7-4.5-29.3-1.7-35.5-7-67.7-3.9-23.7-8.9-53.3-20.9-55-4.8-.8-9.2 3.5-10 4.4z" fill="#666" opacity=".11"/>
      <path d="M1092.7 487.099557C1091.1 487.2 1091 506.4 1090.8 530.1c-.5 67.3 3.3 81.6 12 94.2 3.6 5.2 10.4 14.8 22.8 20.2 27.4 12.1 63.8-3.8 63.9-13.9 0-5.1-9.3-8.9-10.8-9.5-9.5-3.8-16.8-.1-36.1 3.2-8 1.4-14.8 2.1-19.6 2.5-3.6-4.5-8.6-11.5-12.6-20.9-7.7-17.7-7.1-32.1-7.6-47.4-1.1-37.8-8.1-71.5-10.1-71.400443z" fill="#666" opacity=".17"/>
      <g>
        <path d="M721.1 290.4c.2-2.3 5.5-3.5 8.7-4.2 13.1-2.9 24.4-.7 27.4.5 5.6 2.2 11.2 4.4 16.9 6.6.3-1.7 1.2-5.3 4.1-8 5.2-4.7 12.6-2.9 14.6-2.3 2.6.7 6.7 2.3 13.7 9.9 7.2 7.8 8.2 11.8 12.3 16.9 9.5 11.8 23.8 14.9 31 16.4 6.3 1.4 19 4.1 33.3-1.9 12.6-5.3 19.7-14.6 22.8-18.8 3-4.1 4-6.5 10-20.2 12.2-27.9 16.1-36.5 24.6-45.1 4.6-4.7 10.2-10.2 16-8.9 7.1 1.6 10.1 12.7 11.4 17.4 1.4 5.2 3.2 15.1-.9 32.4-1.4 6-6.2 23.7-20.1 43.2-5.8 8.2-13.9 19.3-28.3 28.7-6.3 4.1-16.6 10.7-31.5 12.7-13.2 1.8-23.3-.9-31.9-3.3-9.5-2.6-25.3-8.4-42-22.1-10.7.5-18.9 1.2-24.6 1.9-9.7 1.1-13.8 2-18.2-.5-1.5-.9-3.7-2.5-6.8-2.3-2.9.2-3.9 1.8-6.4 2.3-2.8.6-7.4.1-10-3.3-2.1-2.7-1.9-6.1-1.8-7.2-1.7-1.5-4.4-4.3-5.7-8.5-.9-2.9-.8-5.3-.8-8 .1-3.2.1-4.8.9-6.1 2.3-4 8.9-3.8 9.9-3.7-3.2-2.4-6.1-3.7-7.9-4.4-6.2-2.5-9.5-1.7-15.2-4.8-2.3-1.4-5.7-3.3-5.5-5.3z" fill="#FFF"/>
        <path d="M957.4 230c-8.7-3.3-15.2 4-19.8 10.5-6.9 9.7-12.8 20.1-17.8 30.9-9.4 20.6-15.8 44.6-35.1 58.4-1.6 1.1-.1 3.7 1.5 2.6 15.6-11.3 23.4-29 30.5-46.3 4.3-10.4 8.9-20.6 14.5-30.3 2.8-4.7 5.7-9.4 8.9-13.8 3.8-5.3 8.9-11.9 16.4-9.1 1.9.7 2.7-2.2.9-2.9z" fill="#161616"/>
        <path d="M782.5 295.1c-4.3 1.4-6-3.9-4.7-6.8 1-2.3 3.6-3.5 5.8-4.2 4.2-1.2 9-.4 12.9 1.5 6.5 3.2 10.2 9.7 14.2 15.5 7 10.2 16.3 18.4 27.6 23.4 22.5 9.9 48.8 4.6 66.1-12.8 1.4-1.4-.8-3.5-2.1-2.1-11.8 12-28.5 18.4-45.3 16.8-17.2-1.6-32.8-11.6-42.8-25.5-7.4-10.5-16.7-24.6-32-19.5-4.3 1.4-8.5 5.2-7.8 10.1.6 4.4 4.6 7.9 9 6.4 1.7-.5.9-3.4-.9-2.8zm-10.4-4.1c-8-4-16.4-7.1-25.3-8-7.8-.8-18.7-.5-25.1 4.8-5.8 4.8 1.8 7.9 5.9 9.6 9.4 3.9 20 5.1 29.1 9.8 1.7.9 3.2-1.7 1.5-2.6-5.6-2.9-11.6-4.3-17.6-6-3.2-.9-6.3-1.9-9.4-3.1-1.7-.6-5.1-1.3-6.4-2.7-2.3-2.4.6-3.9 2.8-4.7 13.9-5.7 30.3-.9 43.1 5.5 1.6.8 3.1-1.8 1.4-2.6z" fill="#161616"/>
        <path d="M756 305.3c-4.3-2.6-9.7-2.9-14-.2-3.5 2.1-6.4 6.7-4.8 10.8 1.8 4.7 8.8 5.2 12.9 6 6.3 1.1 12.3 1.1 18.1-1.8 1.7-.9.2-3.5-1.5-2.6-6.5 3.3-13.7 2.1-20.6.5-2.7-.6-2.8-.5-4.5-3.4-2.2-1.8-2.1-3.7.1-5.5.6-.5 1.2-.9 1.8-1.4 3.4-2.1 7.6-1.8 11 .2 1.6 1 3.1-1.6 1.5-2.6z" fill="#161616"/>
        <path d="M738.8 317.6c-2 5.5.6 11.2 5.7 13.9 6.6 3.5 14.1.9 20.4-1.6 1.8-.7 1-3.6-.8-2.9-4.2 1.7-8.8 3.5-13.4 3.1-6-.5-11.3-5.4-9-11.7.6-1.8-2.3-2.6-2.9-.8z" fill="#161616"/>
        <path d="M743.5 330.2c-1.8 5.6 2.7 10.3 7.8 11.8 7.5 2.1 13.5-2.1 18.9-6.8 1.5-1.3-.7-3.4-2.1-2.1-3.4 2.9-6.9 6-11.5 6.4-4.6.4-12.2-2.4-10.2-8.5.6-1.8-2.3-2.6-2.9-.8zm17.4-19.6c3 1 7.6 3.7 5.2 7.4-1 1.6 1.6 3.1 2.6 1.5 1.4-2.2 1.3-5.1-.2-7.3-1.5-2.4-4.2-3.7-6.9-4.5-1.8-.6-2.6 2.3-.7 2.9z" fill="#161616"/>
        <path d="M765.2 320.8c2.1 2.3 1.2 5.9-1.8 6.8-1.8.5-1.1 3.4.8 2.9 5.3-1.5 6.8-7.9 3.2-11.9-1.4-1.3-3.5.8-2.2 2.2z" fill="#161616"/>
        <path d="M766.6 328.2c2 1.1 2.3 4.1.7 5.6-1.4 1.3.7 3.5 2.1 2.1 3-2.9 2.4-8.3-1.3-10.3-1.6-.9-3.2 1.7-1.5 2.6zm3.5-34.8c2.2 1 4.4 2.1 6.6 3.1 1.7.8 3.3-1.8 1.5-2.6-2.2-1-4.4-2.1-6.6-3.1-1.7-.8-3.2 1.8-1.5 2.6zm13.6 4.6c2.2-1.9 5.2-2.7 8.1-2 1.9.4 2.7-2.5.8-2.9-4-.9-7.9.1-11 2.8-1.5 1.3.6 3.4 2.1 2.1zm1.7 3.6c-2.8 8.3.5 17.5 8 22 1.7 1 3.2-1.6 1.5-2.6-6.4-3.8-9-11.7-6.6-18.6.6-1.9-2.3-2.7-2.9-.8zm-21.1 38.3c6 4.3 12.5 5.2 19.6 3.8 9.9-1.8 19.4-2.7 29.5-1.6 1.9.2 1.9-2.8 0-3-7.8-.9-15.6-.8-23.4.4-8.9 1.4-16.2 3.5-24.2-2.2-1.6-1.1-3.1 1.5-1.5 2.6z" fill="#161616"/>
        <path d="M810.8 340.8c14.3 6.8 27.5 15.9 42.3 21.5 13.6 5.1 28.5 6.1 42.7 2.6 14.6-3.6 26.4-12.2 36.7-22.9 10.7-11 20.3-23.4 27.1-37.3 8-16.2 11.9-34.2 9.9-52.2-.2-1.9-3.2-1.9-3 0 2.2 19.8-2.9 39.5-12.7 56.7-9.1 16-22 32-37.1 42.8-15.2 10.8-34.9 14.4-53.1 10.3-18.6-4.2-34.3-16.1-51.4-24.2-1.6-.7-3.1 1.9-1.4 2.7z" fill="#161616"/>
        <path d="M961.4 241.6c-3.9.2-3.4 16.8-8.1 33.8-6.9 24.6-26.7 56.9-55.8 66.8-20.6 7-41.4 1.2-74.5-8.1-10.5-2.9-29-9-54.6-10.6-21.1-1.3-26.3 1.7-26.5 3.3-.1 1 1.8 1.7 2.9 4.9.9 2.7-.1 3.6.8 5.3 1.6 3.1 6.4 3.5 8.1 3.7 4.2.4 7.6-1.1 9.4-2 1.9.9 4.9 2.1 8.6 2.9 7.2 1.5 11.3.1 20.4-.8 9.4-.9 15.6-1.5 22.4.4 6.5 1.8 9.5 4.8 15.1 8.6 1.7 1.1 17.7 11.8 37.5 15.1 6.2 1 20.4 3.2 36.2-2.9 9-3.4 14.7-8.1 21.2-13.4 4.1-3.4 22.4-19 35.8-48.1 5.9-12.7 10.7-23.4 9.4-37.5-1.1-10.3-5-21.6-8.3-21.4z" fill="#666" opacity=".16"/>
        <path d="M770 331.2c4.8-2.4 10.4-.4 12.6.4 12.5 4.3 13.7 1.3 32.6 4.1 15.6 2.3 16.2 6.8 36.7 13.4 19.7 6.4 35.6 11.5 51.3 6.5 22.3-7.1 32.6-29.6 33.4-28.9.8.6-8.2 22.4-29.7 32.6-19.5 9.3-39.8 4.6-45.6 3.3-9.4-2.2-17-5.8-25.3-9.8-9.7-4.6-17.3-9.4-22.8-13-7-.3-12.5.3-16.3.8-9.3 1.4-13.2 3.5-20.8 2.4-2-.3-10.3-1.5-11-5.3-.4-2.5 2.3-5.2 4.9-6.5z" fill="#666" opacity=".17"/>
      </g>
      <g>
        <path d="M946.9 233.8c-2.7 3.3-6.2 8.8-8.8 52.5-1.4 24.2-2.8 49.6-.7 86.9.9 15.2 2.6 36 6.1 60.6 11.2 6.4 31.6 15.9 58.6 17.5 43.3 2.6 74.9-17 85.5-24.2-5.4-10.7-12.8-27.3-17.5-48.5-5.8-26-3-37.5-6.1-69.4-4.1-42.2-6.1-63.3-18.9-76.1-24.5-24.6-78.3-23.8-98.2.7z" fill="#8989C0"/>
        <path d="M1001.4 215.8c7.1 10.6 16.2 26.3 23.4 46.7 3.1 8.9 18.5 54.7 7.3 113.6-5.9 31.3-17.4 56.5-28.4 75.1 7.7.5 16.7.4 26.6-.9 26.3-3.6 46-14.5 57.7-22.5-3.7-6.8-8.4-16.4-12.4-28.4-.8-2.6-4.7-14.3-7.3-32.5-1.8-12.4-1.5-16.5-2.7-36.7-.3-4.7-1.5-23.8-4.1-45.8-3.8-32.2-6.7-39.2-11.5-45.4-6.8-8.8-15.4-13.5-19.2-15.6-12-6.2-23.2-7.4-29.4-7.6z" fill="#666" opacity=".22"/>
        <path d="M1061.6 290.9c-1.5 16.2-3.5 32.9-5.9 50.1-5.5 38.8-12.8 74.9-21.1 108 6.8-.9 15.5-2.7 25-6.4 12.4-4.8 21.7-11.2 28-16.2-13.3-23.4-17.9-43-19.6-57-1.7-14.1-1.1-27.7-4.4-60.9-.8-7.4-1.5-13.5-2-17.6z" fill="#666" opacity=".22"/>
      </g>
      <g>
        <path d="M906.1 114.8c-2 4.9-1.90163379 10.7-1.90163379 22.4 0 8.3.10163379 19.9 4.40163379 33.6 3.3 10.6 6.5 21.2 16.4 30.6 2.8 2.7 14.9 14.2 32 14.2 3.3 0 6.1-.4 7.9-.8.8 3 2.5 7.2 5.7 11.5 1.7 2.2 3.4 3.9 4.9 5.2 2.4 0 8.5-.4 14.8-4.4 6-3.9 8.8-9 9.8-11.2-1.8-1.8-6.5-7.1-6.8-14.8-.1-2.1.2-3.9.5-5.5 3.3-4.2 6.8-9.7 9.8-16.4 1.5-3.3 2.6-6.4 3.6-9.3 1.5.4 4.5.9 7.4-.5 3.1-1.6 4.2-4.7 5.5-8.5 1.9-5.6 4-11.9 1.4-17.5-2.5-5.3-6.4-4.1-9.8-9-5.2-7.3-.1-14.7-2.2-22.7-3.2-12.3-21-17.6-27.9-19.7-28.3-8.4-66.7 1-75.5 22.8z" fill="#FFF"/>
        <path d="M903.5 129.2c2.5.4 4.1-3.5 8-7.4 4-3.9 10.7-8 22.7-9.1 9.8-1 19.6-2.1 29.4-3.1 3.1.2 10.2 1 17.3 5.9 5.7 4 8.8 8.8 10.3 11.4 3.1.1 6.1.3 9.2.4.6 3.7 1.3 7.4 1.9 11.1.4-.4 5.8-5.2 11.4-3.4 4.5 1.4 6.4 6.2 7.2 8.4 2.5 6.1.8 11 2.3 11.4 1.8.6 5.3-6 5.7-6.9.9-1.7 3.8-7.6 4.6-16.8.6-7.5 1-12.5-1.9-17.2-1-1.6-2-2.6-2.3-4.6-.5-3.8 2.5-5.9 4.2-9.5.9-1.9 1.1-3.7-1.5-17.5-2.8-14.8-3.8-16.8-5.3-17.2-2-.4-3.8 2.3-6.1 4.6-4 4.1-10.9 8.6-23.7 10.3 0-4.5-.6-8.1-1.1-10.7-.9-4-1.4-4-4.6-13.4-1.8-5.3-2.2-7.5-3.4-7.6-2-.2-2.7 4.9-7.4 6.7-2.1.8-2.9.1-5.7.5-2.5.3-5.9 1.4-9.8 4.7 0 0-6 4.1-16 9.2-11.1 5.6-14.8-.5-26.3 4.6-8.6 3.8-13.8 10.6-16 13.7-2.2 3.1-8.4 12.1-8.4 24.5-.2 7.1 1.8 16.5 5.3 17z" fill="#342E52"/>
        <path d="M903.6 133.2c-1.7 17 1.1 34.3 8.3 49.8 6.1 13.1 15.8 26.1 29.8 31.3 14.3 5.3 30.7 1.4 42.6-7.6 12.1-9.2 19.7-22.9 24.2-37.2.6-1.8-2.3-2.6-2.9-.8-4.3 13.6-11.5 26.7-23 35.5-11.9 9-28.6 12.8-42.5 6.2-12.5-5.9-20.9-18.2-26.3-30.5-6.5-14.7-8.8-30.8-7.2-46.7.2-1.9-2.8-1.9-3 0z" fill="#161616"/>
        <path d="M1004.4 140.7c1.4-6.1 8.5-5.9 12.1-2 3.1 3.2 3.8 7.9 3.9 12.2.2 7.2-2.4 20.5-12.7 17.2-1.8-.6-2.6 2.3-.8 2.9 14.6 4.7 17.8-15.6 16-25.4-1.1-5.7-4.8-11.8-11.1-12.6-4.8-.6-9.2 2.4-10.3 7.1-.4 1.6 2.5 2.4 2.9.6zm-63.7-6.3c-2.3 4.8-4.6 9.5-6.8 14.3-1.1 2.5-2.3 5-2.1 7.9.5 5.9 5.7 9.8 11.1 11.1 1.9.5 2.7-2.4.8-2.9-6.5-1.6-10.5-6.8-7.7-13.4 2.2-5.2 4.8-10.3 7.3-15.5.8-1.7-1.8-3.2-2.6-1.5zm-14.6 13.1c-.6-.7-1-1.6-1.1-2.5-.1-.4-.1-.9 0-1.3 0-.3.5-1.2.5-1.4-.2 0-.3.1-.5.1.1.3.1.6.1.9v1.5c-.1 1.3-.4 2.5-.9 3.7.8-.2 1.7-.4 2.5-.7-1-.9-1.4-1.8-1.3-3.2.2-1.9-2.8-1.9-3 0-.2 2 .6 4 2.2 5.3.9.8 2.1.4 2.5-.7.9-2.3 1.3-4.9.9-7.3-.3-1.7-1.7-3.4-3.5-2.6-1.7.7-2.4 3.1-2.4 4.9 0 2 .7 3.9 2.1 5.4 1.1 1.5 3.2-.7 1.9-2.1zm38.2-1.5c-.3-.8-.5-1.5-.5-2.3 0-.4.1-.8.2-1.2 0-.1.1-.3.1-.4.2-.3.1-.3-.4 0 0 .1.2.6.2.8 0 .4 0 .8-.1 1.2-.2.9-.6 1.7-1.1 2.4l2.4.3c-1.2-1.7-1.1-3.7.2-5.4l-2.4.3c1 1.2.3 3-.9 3.6.7.3 1.5.6 2.2.9-.3-.8-.5-1.5-.6-2.4 0-.5.1-1 .1-1.5 0-.2.1-.3.1-.5-.3-.4-.4-.5-.2-.2.3.8.5 1.4.4 2.3 0 .4-.2 1-.2 1.3 0 .2-.1.3-.1.5.7-.1.8-.3.4-.7-1.1-1.6-3.7-.1-2.6 1.5s3.5 3 4.8.7c1-1.9 1-5.2 0-7-1.1-1.9-3.7-2.5-5-.4-1.2 2-.9 5-.1 7.1.4.9 1.3 1.4 2.2.9 3.1-1.6 3.7-5.7 1.5-8.3-.7-.8-1.8-.4-2.4.3-1.8 2.4-1.9 5.9-.2 8.4.5.7 1.7 1.1 2.4.3 1.8-2.3 3.7-7.7.1-9.4-1.6-.7-3 .3-3.5 1.8-.7 1.9-.7 4 .1 5.8.8 1.8 3.7 1.1 2.9-.7zm-32-16.8c-5.2-3.4-12-1.8-15.3 3.3-1 1.6 1.6 3.1 2.6 1.5 2.4-3.8 7.4-4.7 11.2-2.3 1.6 1.1 3.1-1.5 1.5-2.5zm27.6.8c4.6-3.9 11.7-2.7 13.8 3.2.6 1.8 3.5 1 2.9-.8-2.9-8.1-12.5-10-18.8-4.5-1.4 1.2.7 3.3 2.1 2.1zm3.7 85.9c1.6 5.9 4.7 11.2 9.2 15.4 1.4 1.3 3.5-.8 2.1-2.1-4.1-3.9-7-8.6-8.4-14.1-.6-1.9-3.5-1.1-2.9.8zm27.6-18.5c.9 6.7 3.2 12.8 7.1 18.4 1.1 1.6 3.7.1 2.6-1.5-3.6-5.1-5.9-10.7-6.7-16.9-.2-1.8-3.2-1.9-3 0z" fill="#161616"/>
        <path d="M973 231.8c10.8 3.7 23.2-5 27.2-14.9.7-1.8-2.2-2.6-2.9-.8-3.4 8.4-14.5 15.9-23.5 12.8-1.8-.6-2.6 2.3-.8 2.9zm-7.6-14.3c7.2-1.2 13.6-4.6 18.7-9.8 1.3-1.4-.8-3.5-2.1-2.1-4.8 4.9-10.7 7.9-17.4 9.1-1.9.3-1.1 3.1.8 2.8z" fill="#161616"/>
        <path d="M967.1 219.5c8.4-2.4 17.9-9 21.7-17 .8-1.7-1.8-3.3-2.6-1.5-3.5 7.3-12.2 13.5-20 15.7-1.8.5-1 3.3.9 2.8z" fill="#161616"/>
        <path d="M904.1 121.8c-5.7-6.7-3.4-18.7-.6-26.3 3.4-9.3 10.1-16.3 19.8-19 8.5-2.4 17.6-2.1 25.9-5.3 9.2-3.6 15.9-13.5 26.5-12.8 1.9.1 1.9-2.9 0-3-12.1-.8-19.5 10.8-30.4 13.9-10.5 3.1-22.2 2-31.7 8.1-7.5 4.8-12.2 12.9-14.3 21.4-2.1 8.1-3.2 18.4 2.6 25.1 1.3 1.5 3.5-.6 2.2-2.1z" fill="#342E52"/>
        <path d="M936.1 110.5c-.8-7.3.8-14.5 5.1-20.5 4.8-6.7 12.1-9.7 19.3-13.1 6-2.8 11.5-6.3 15.8-11.4 4.2-4.8 6.3-11.9 11.6-15.6-.7-.2-1.4-.4-2.1-.5 5 11.7 15 26 6 38.4-1.1 1.6 1.5 3.1 2.6 1.5 9.7-13.4-.6-28.7-6-41.4-.3-.7-1.4-1-2.1-.5-5.8 3.9-7.8 10.9-12.3 16-5.9 6.9-13.6 10-21.5 13.8-13 6.3-21.3 18.5-19.6 33.3.4 1.9 3.5 1.9 3.2 0z" fill="#342E52"/>
        <path d="M964.4 109.1c6.4-11.9 16.9-21.2 29.7-25.7 6-2.1 12.3-3.3 18-6.2 5.5-2.7 10.2-6.5 14.3-11l-2.4-.3c3.7 7.9 7.2 16.8 7.9 25.5.7 9.4-4.5 16.6-10.2 23.5-1.2 1.5.9 3.6 2.1 2.1 5.7-7 11.3-14.4 11.1-23.8-.2-9.9-4.3-20-8.4-28.8-.4-.9-1.7-1-2.4-.3-5.2 5.6-11.4 10-18.6 12.6-6.1 2.2-12.5 3.4-18.4 6.3-10.9 5.3-19.8 14-25.5 24.6-.7 1.7 1.9 3.2 2.8 1.5z" fill="#342E52"/>
        <path d="M1027.4 109.7c7.2 14 5.9 30.6-3.3 43.3-1.1 1.6 1.5 3.1 2.6 1.5 9.9-13.6 11-31.4 3.3-46.3-.9-1.7-3.5-.2-2.6 1.5z" fill="#342E52"/>
        <path d="M990.2 125.9c.3 4.9.5 12 0 20.5-1 15.2-1.8 28.3-8.5 40.6-8.4 15.3-22.8 23.3-32.4 27.3 4.6.3 12 .1 20.5-2.7 7-2.3 12.3-5.6 15.7-8.2 1.9 7.5 3.9 15 5.8 22.5 3-3.6 5.9-7.3 8.9-10.9-2.6-5.2-5.2-10.5-7.8-15.7 2.1-3.4 4.1-7 6.1-10.9 3.6-6.8 6.5-13.3 8.9-19.5 1.3.5 5.1 1.8 8.5 0 3.8-2 4.7-6.5 5.5-10.6.8-4.3 3-15.8-3.8-20.8-2.8-2.1-7.7-3.5-11.6-1.4-2.1 1.2-3.2 3-3.8 4.1-.5-4.1-.9-8.2-1.4-12.3-3.5-.6-7.1-1.3-10.6-2z" fill="#666" opacity=".14"/>
        <path d="M967.3 108.9c5.6-6.1 12.3-14.8 18.1-26.3 4.1-8.2 6.8-15.8 8.5-22.2 4.5 8.1 4.1 14.6 3.8 17.4-1.7 12.8-13.3 20.8-19.8 25.3-4.1 2.8-7.9 4.6-10.6 5.8z" fill="#212121" opacity=".2"/>
        <path d="M987.8 120.1c5.7-2 12.4-4.9 19.5-9.2 12.9-7.9 21.6-17.3 27-24.2.7 4.2 1.4 12.5-3.1 20.1-7.2 12.4-24.9 18.4-43.4 13.3z" fill="#212121" opacity=".16"/>
        <path d="M922.3 114.7c-.2-4.2.1-10.2 2-17.1C928.8 81.8 940 70 941.7 71c1.4.8-2 10.2-19.4 43.7z" fill="#212121" opacity=".22"/>
        <path d="M927.2 179.1c14.9.7 29.4-2.3 42.8-8.9 1.3-.6.2-2.6-1.1-1.9-13 6.4-27.2 9.3-41.6 8.6-1.6-.1-1.5 2.1-.1 2.2z" fill="#161616"/>
        <path d="M928.7 179.5c2 3.6 3.4 7.5 4.2 11.5.3 1.4 2.4.8 2.2-.6-.8-4.2-2.3-8.3-4.4-12.1-.7-1.2-2.7 0-2 1.2z" fill="#161616"/>
        <path d="M933.1 191.1c6 5.8 15.7 2.9 22.1-.8 7.7-4.3 13.3-11.5 15.2-20.1.3-1.4-1.9-2-2.2-.6-1.6 7.1-5.7 13.1-11.7 17.3-5.7 3.9-16 8.3-21.8 2.6-1-1-2.6.6-1.6 1.6z" fill="#161616"/>
        <path d="M931.7 183.6c6.8 1.8 14.6-.2 21.1-2.2 6.3-1.9 12.1-5 16.5-10 1-1.1-.6-2.7-1.6-1.6-4.2 4.7-9.5 7.6-15.5 9.4-6.1 1.8-13.6 3.9-19.9 2.2-1.4-.3-2 1.9-.6 2.2z" fill="#161616"/>
        <path d="M932.7 184.7l2.4 5.7c.5 1.2 2.5.3 2.1-.9-.7-1.8-1.2-3.5-1.6-5.4l-1.4 1.4c2.4.4 4.8.6 7.3.6 1.2 0 1.6-2 .3-2.2-2.3-.4-4.1-.3-6.4.4-.7.2-1.1 1-.7 1.7.6.9 1.3 1.9 1.9 2.8.8 1.2 2.6.2 1.9-1.1-.3-.9-.6-1.8-.9-2.6l-2.1.9c1 1.3 1.4 2.7 1 4.2l2.1-.6c-1.4-2.3-2.6.4-2.9 1.1-.3.9.9 1.9 1.7 1.3 8.2-6.2 17.8-9.3 27.5-12.3 1.4-.4.8-2.6-.6-2.2-9.9 3-19.7 6.2-28 12.5.6.4 1.1.8 1.7 1.3.4-.9 1.6-1.1 1.8-2.5.2-1.2-.3-3-1.6-3.4-3.6-1.2-2.3 3.9-1.4 5.3.6 1 2 .5 2.1-.6.2-2.1-.2-3.6-1.3-5.3-.7-1-2.4-.4-2.1.9.4 1.7.4 1.6 1.1 3.2.6-.4 1.3-.8 1.9-1.1-.6-.9-1.3-1.9-1.9-2.8-.2.6-.4 1.1-.7 1.7 1.7-.7 3.4-.8 5.2-.4.1-.7.2-1.5.3-2.2-2.3 0-4.3-.1-6.7-.5-.9-.2-1.6.5-1.4 1.4.4 1.9.9 3.6 1.6 5.4l2.1-.9-2.4-5.7c-.5-1.6-2.5-.4-1.9.9z" fill="#161616"/>
        <path d="M939.1 188.3c3.5-2.1 7.1-3.7 11-5.1l-.9-2.1c-3.5 1.6-7 3.2-10.4 4.7-1.1.5-.3 2.5.9 2.1 9.4-3.7 18.7-7.5 27.2-13.1-.6-.4-1.1-.8-1.7-1.3-1.3 3.5-7.1 3.9-10.1 5-2.5.9-4.9 2.1-7.4 3-3.5 1.2-7.6 1-10.3 4-1 1.1.6 2.7 1.6 1.6 2.2-2.5 6.3-2.4 9.3-3.4 3-1 5.9-2.5 9-3.5 4.2-1.3 8.4-1.4 10.1-6 .3-.9-.9-1.8-1.7-1.3-8.3 5.4-17.5 9.2-26.7 12.8l.9 2.1c3.5-1.6 7-3.2 10.4-4.7 1.2-.5.3-2.5-.9-2.1-4 1.4-7.8 3.2-11.5 5.3-1.2.8 0 2.8 1.2 2z" fill="#161616"/>
        <path d="M966.1 177.3c0-.1-.1-.2-.1-.3v.2l-.4.4h.1c-.3 0-.6.1-.9.1-.5-.1-.5-1-.6-.4 0 .2 0 .3.1.5.1.4.3.6.7.9.5.4 1.3.1 1.5-.4.3-.6.1-1.2-.4-1.5 0 0-.1 0-.1-.1l.4.4c.1.3.1.3.1.1v-.2c0-.3-.1-.6-.2-.8-.3-.4-.7-.7-1.2-.7-1.3 0-1.5 1.5-1.1 2.4.2.6.7 1 1.4.8.5-.2 1-.9.7-1.4zm.2-9.1c1.9.8 3.5 2.1 4.6 3.9.7 1.2 2.7.1 1.9-1.1-1.4-2.3-3.4-4-5.9-4.9-1.4-.6-2 1.6-.6 2.1z" fill="#161616"/>
        <path d="M939 192.7c7.9-5.6 16.6-9.5 26-11.6 1.4-.3.8-2.5-.6-2.2-9.7 2.1-18.5 6.1-26.6 11.8-1.1.9 0 2.9 1.2 2z" fill="#161616"/>
        <path d="M937 190.9c9.8-.5 18.9-3.5 27-9 1.2-.8.1-2.8-1.1-1.9-7.8 5.3-16.5 8.3-25.9 8.7-1.5.1-1.5 2.3 0 2.2z" fill="#161616"/>
        <path d="M946.1 188.4c5.5-1.2 10.6-3.3 15.4-6.3 1.2-.8.1-2.7-1.1-1.9-4.6 2.9-9.5 4.9-14.8 6.1-1.5.2-.9 2.4.5 2.1z" fill="#161616"/>
        <path d="M939.2 192.3c8-.2 15.4-2.5 22-7 1.2-.8.1-2.8-1.1-1.9-6.3 4.3-13.3 6.5-20.9 6.7-1.4 0-1.4 2.3 0 2.2z" fill="#161616"/>
        <path d="M939.2 192.1c-.1 1.7 1.5 1.9 2.8 1.7 3-.4 5.9-1.1 8.8-1.8 1.4-.4.8-2.5-.6-2.2-1.5.4-3 .7-4.6 1-.7.1-4.1.3-4.2 1.2.2-1.3-2.1-1.3-2.2.1z" fill="#161616"/>
      </g>
      <g>
        <path d="M958.3 203.8c1-2.8 10-2.2 17.8-1.2 0-1.5.3-3.7 1.2-6.1.7-1.9 1.8-3.8 5.8-8.2 4.3-4.7 6.5-7 9.3-8.7 2.1-1.3 5.6-3 10.5-3.8 2 .7 4.1 1.4 6.1 2 .6-1.9 1.8-5.5 4.1-12.5 1.5-4.7 2.4-7.1 4.4-7.9 2-.7 4.7 0 6.1 1.7 2 2.5.2 6.1-.9 12.2-.6 3.5-.1 2.9-.3 16-.2 13.4-.7 13.3-.6 18.9.1 5.2.8 12.6 3.2 21.5 2.2-1 5.7-2.1 9.9-2 9.8.1 16.7 6.5 21.8 11.4 10 9.5 14.3 20 17.2 27.4 5.6 14.3 6.3 26.2 6.4 31.4.1 8.1.3 15.7-3.8 24.5-1.3 2.8-4.9 10.3-13.1 16-3.4 2.4-9.8 6.8-18.1 6.1-4.8-.4-9.1-2.4-13.7-6.1-15.4-12.5-22.5-35.2-24.7-43.1-4.2-14.4-8.8-35.3-9.6-61.4-2.2-.1-4.8-.6-7.6-1.7-10.3-4.3-14.3-14.6-15.1-17.2-2.1.1-9.6 0-14.3-5.2-1-1.2-2.4-2.7-2-4z" fill="#FFF"/>
        <path d="M972.2 210.8c-5.3-.4-11.4-2.4-12.8-8.2-.3.6-.7 1.2-1 1.8 7.7-1.6 15.4.7 23.1-.4 1.9-.3 1.1-3.2-.8-2.9-7.7 1.1-15.4-1.2-23.1.4-.8.2-1.2 1.1-1 1.8 1.7 7.2 9 9.9 15.7 10.4 1.9.2 1.9-2.8-.1-2.9z" fill="#161616"/>
        <path d="M977.9 200.1c-1.2-7.1 9.7-6.7 13.8-5.6 1.9.5 2.7-2.4.8-2.9-6.7-1.8-19.1-.5-17.5 9.2.3 2 3.2 1.2 2.9-.7z" fill="#161616"/>
        <path d="M982.2 193.2c.9-3.5 2.8-6.7 6.2-8.3 4-1.8 8 0 11.7 1.6 1.7.8 3.3-1.8 1.5-2.6-4.6-2.1-9.5-4.1-14.4-1.8-4.2 1.9-6.8 5.9-7.9 10.3-.4 1.9 2.5 2.7 2.9.8z" fill="#161616"/>
        <path d="M992.7 181.2c-.2-.2 3.2-3 3.7-3.3 1.4-.7 3-1.1 4.6-1.1 3.9 0 7.4 1.9 10.5 3.9 1.6 1 3.1-1.5 1.5-2.6-5-3.2-11.1-5.7-17-3.3-2.5 1-8.5 5.5-5.5 8.6 1.4 1.3 3.5-.8 2.2-2.2z" fill="#161616"/>
        <path d="M1022.4 206.5c1.2-8.5 1.6-16.9 1-25.5-.3-4.9.2-8.7 1.4-13.5.6-2.5 1.1-5.1.4-7.6-1.1-3.4-4.9-6.2-8.5-4.4-2.3 1.2-2.9 3.9-3.7 6.2-1.5 4.3-2.9 8.7-4.3 13-.6 1.8 2.3 2.6 2.9.8.8-2.5 1.6-5 2.5-7.4.5-1.5 1.3-6.5 2.5-7.4 5-.6 7 .8 5.8 4.4-.3 1.2-.6 2.3-1 3.5-.5 1.9-1 3.7-1.2 5.6-.4 4.8.5 9.8.5 14.7 0 5.7-.4 11.3-1.2 16.9-.2 1.8 2.7 2.6 2.9.7zm-51.8 7.5c5.2.4 6.5 5.8 8.9 9.4 1.2 1.9 2.7 3.6 4.5 5 3.5 2.8 7.6 4.3 12.1 4.7 1.9.2 1.9-2.8 0-3-7.6-.7-12.4-5.1-15.9-11.5-2.2-4-4.8-7.2-9.6-7.5-2-.2-1.9 2.8 0 2.9z" fill="#161616"/>
        <path d="M995.6 231.8c3.1 10.7 3.4 21.7 4.3 32.7.8 9.3 2.3 18.6 4.9 27.5 5.1 17.2 13.9 33.1 26.6 45.9 1.4 1.4 3.5-.8 2.1-2.1-13.1-13.2-22-29.8-26.7-47.7-5-18.8-2.9-38.5-8.3-57.1-.6-1.8-3.5-1-2.9.8zm23.9-26.5c1.5 16.7 6.4 33 14.6 47.6 8 14.2 20.3 26.5 23.1 43.1.3 1.9 3.2 1.1 2.9-.8-2.5-15.1-12.8-26.6-20.7-39.2-9.5-15.3-15.2-32.7-16.9-50.6-.2-2-3.2-2-3-.1z" fill="#161616"/>
        <path d="M1026.4 228.5c14.9-4.8 29.6 7.2 37.4 18.8 8.2 12.2 11.9 27.2 13.6 41.7 1.6 14.2.5 29.7-9 41.1-8.8 10.6-25.1 14.8-36.2 5.2-1.5-1.3-3.6.9-2.1 2.1 10.5 9.1 26 7.8 36.3-1 12.6-10.7 15.7-28.1 14.4-43.8-1.4-17.1-5.7-35.4-16.1-49.4-8.7-11.6-23.9-22.5-39-17.7-1.9.7-1.2 3.6.7 3z" fill="#161616"/>
        <path d="M1019.9 160.9c-5.3 2-4.9 15.6-4.5 25.4 1.4 29.1 2.1 43.7 7.8 66.1 8.2 31.9 15.7 40.2 19.8 44.1 5.9 5.6 17.2 13.7 22 10.5 7.6-5.1-4.5-35.5-7.5-42.9-10.1-25.2-12.3-33.6-19.8-36.2-4.5-1.5-8.9-.9-12 0-4.3-9.2-5-16.6-4.9-21.7.1-4.3.8-4.3 1.1-10.8.6-11.8-1.5-12.5-.4-20.2 1.1-7.5 4-12 1.9-13.8-.7-1-2.4-.9-3.5-.5z" fill="#666" opacity=".15"/>
        <path d="M1028.5 233c7.1 6.9 12 13.5 15.3 18.7 8.1 12.5 11.5 23.7 12.7 28 1.7 6.1 2.5 11.4 3 15.3-1.7-5.2-4.9-13-10.5-21.7-4.5-7-7.4-9.4-11.2-15.7-3.1-5.2-7-13.2-9.3-24.6z" fill="#666" opacity=".15"/>
      </g>
    </g>
  </g>
</svg>