<svg xmlns="http://www.w3.org/2000/svg" viewBox="0 0 1105 1036">
  <defs/>
  <g fill-rule="nonzero" fill="none">
    <g fill="#DBC7BE">
      <path d="M288.5 926.3h604.7c1.9 0 1.9-3 0-3H288.5c-1.9 0-1.9 3 0 3zM899.3 851.3c5.1 30.8 10.2 61.6 15.4 92.4.3 1.9 3.2 1.1 2.9-.8-5.1-30.8-10.2-61.6-15.4-92.4-.3-1.9-3.2-1.1-2.9.8z"/>
      <path d="M901.1 852c40.4-2.5 80.9-1.4 121 3.2 1.9.2 1.9-2.8 0-3-40.2-4.6-80.7-5.7-121-3.2-1.9.1-2 3.1 0 3zM915.9 946c29.8 9.3 61.4 10.7 91.9 4.1 1.9-.4 1.1-3.3-.8-2.9-30 6.5-61.1 5.1-90.4-4.1-1.8-.6-2.6 2.3-.7 2.9z"/>
      <path d="M1021.2 854.4c-2.5 31.3-6.9 62.4-13.4 93.1-.4 1.9 2.5 2.7 2.9.8 6.5-31 11.1-62.4 13.5-93.9.1-2-2.9-2-3 0zM906.4 892.8c14.1 21.5 30.6 41.3 49.1 59.2 1.4 1.3 3.5-.8 2.1-2.1-18.4-17.7-34.7-37.3-48.7-58.6-1-1.6-3.6-.1-2.5 1.5zM918.9 851.7c24.2 35.1 52.3 67.4 84 96 1.4 1.3 3.6-.8 2.1-2.1-31.4-28.5-59.4-60.5-83.5-95.4-1.1-1.6-3.7-.1-2.6 1.5zM964.7 853c14.3 18.3 29.6 35.7 45.9 52.2 1.4 1.4 3.5-.7 2.1-2.1-16.3-16.5-31.6-34-45.9-52.2-1.2-1.5-3.3.6-2.1 2.1z"/>
      <path d="M933.9 848c-6.5-7.4-11.8-15.7-15.6-24.7-1.8-4.3-3.3-8.7-4.4-13.2-.5-2.2-1-4.3-1.3-6.5-.2-1-.9-3.1-.5-4-.2-1.3.7-1.7 2.7-1.3 2.1-1.3 3.6-.9 4.4 1.4.9 1.2 3.4.6 2.7-1.2-2.9-7.4-5.2-14.9-7-22.6-.8-3.6-1.5-7.1-2.1-10.7-.4-2.3-.6-4.5-.9-6.8l-.3-3.6c-.4-1.9.5-3.3 2.7-4.3.8.9 2.7.3 2.6-1.1-1.4-14-2.7-28-1.5-42 .6-7.3 1.9-14.6 4.3-21.5.7-2 1.4-4.1 2.4-6.1.3-.8.7-1.5 1.2-2.2h6.2c3 1.2 5.3 8.1 6.2 10.6 4.9 13.8 6.9 28.5 9.1 42.9l7.2 47.4c.2 1.6 2.4 1.2 2.9 0 .9-1 1.8-2.1 2.7-3.1-.7-.2-1.4-.4-2.1-.5 5.9 10.8 7.1 23.1 7.9 35.2.8 12.9 1.1 25.9 1 38.8 0 1.9 3 1.9 3 0 .1-14.2-.2-28.3-1.3-42.5-.8-11.4-2.4-22.9-8-33.1-.4-.7-1.4-1-2.1-.5-2.1 1.3-3.2 2.6-4.1 4.9h2.9c-2.9-19.1-5.6-38.3-8.7-57.4-1.4-9-3.1-18.1-5.7-26.9-1.9-6.5-4-14-9.4-18.4-11.8-9.6-16.3 16.7-17.4 23.5-2.8 16.9-1.2 34.1.4 51 .9-.4 1.7-.7 2.6-1.1-1.8-2-4.8-1.9-6.6.2-2.8 3.3-1 9.8-.5 13.5 1.7 12.8 4.9 25.3 9.6 37.4l2.7-1.2c-2.4-3.3-7.3-8-11.2-3.7-3.3 3.7-.7 11.5.2 15.6 3.5 14.9 10.8 28.7 21 40.1 1.3 1.3 3.4-.9 2.1-2.3z"/>
      <path d="M951.7 754.4c-.3-5.4.2-36.1 10.5-33.4 1 .3 1.8-.5 1.9-1.4 2.2-17.6 9.4-33 16.5-48.9 1.6-3.5 3.2-7.1 4.8-10.6 2.1-4.6 5.2-12.9 11.3-6.5 5.6 5.7 6.3 15.1 6.4 22.6.2 16.6-.6 33.3-1 50-.4 17.8-.8 35.7-1.2 53.5 0 1.6 2.7 2.1 2.9.4.9.2 1.8.5 2.7.7.2.9.2 1.8.2 2.7 0 1.2-.1 2.4-.1 3.6-.1 3-.2 5.9-.4 8.9-.3 6.3-.5 12.6-.8 18.8-.5 12.1-.9 24.3-3.4 36.2-.4 1.9 2.5 2.7 2.9.8 3.7-17.6 3.5-35.9 4.2-53.8.2-4.6.5-9.3.6-13.9 0-2.3 0-4.8-1.6-6.5-2.2-2.5-6.6-1.7-7.2 1.7 1 .1 2 .3 2.9.4.7-32.9 1.7-65.8 2.2-98.7.2-9.9.1-27.2-10.8-32.1-4-1.8-7.5.1-9.7 3.7-3.9 6.4-6.5 14.2-9.6 21.1-6.8 15-12.9 29.5-15 46 .6-.5 1.3-1 1.9-1.4-6.1-1.6-9.4 4.5-11 9.4-2.9 8.6-3.8 17.8-3.3 26.8.3 1.9 3.3 1.9 3.2-.1zM1016.6 923.3h56.6c1.9 0 1.9-3 0-3h-56.6c-1.9 0-1.9 3 0 3zM.5 529.9v417.6c0 1.9 3 1.9 3 0V621.8v-91.9c0-1.9-3-1.9-3 0z"/>
      <path d="M2.9 948.2H193c1.9 0 1.9-3 0-3H2.9c-2 0-2 3 0 3z"/>
      <path d="M193.6 946.7V617v-93.9c0-1.9-3-1.9-3 0v13.3c0 1.9 3 1.9 3 0v-13.3h-3v423.6c0 1.9 3 1.9 3 0z"/>
      <path d="M192.1 520.2H6.6c-1.9 0-1.9 3 0 3h185.5c1.9 0 1.9-3 0-3zM23.6 601.5v-49.3c0-1.9-3-1.9-3 0v49.3c0 1.9 3 1.9 3 0z"/>
      <path d="M22.1 553h143.5c1.9 0 1.9-3 0-3H22.1c-1.9 0-1.9 3 0 3z"/>
      <path d="M165.5 553.7V595c0 1.9 3 1.9 3 0v-41.3c0-1.9-3-1.9-3 0zM23.6 603h142c1.9 0 1.9-3 0-3h-142c-2 0-2 3 0 3zM86.4 586.2c-3.3-1.5-5.5-4.9-4.8-8.6.9-4.4 6.1-7.6 10.2-5.3 3.7 2.1 3.8 7.6 1.7 11-2 3.4-7.1 4.5-9.4.8-1-1.6-3.6-.1-2.6 1.5 2.9 4.7 9.5 5 13.2 1.1 3.9-4.1 4.5-12.4-.1-16.2-4.7-3.9-12-1.5-14.8 3.5-3.1 5.4-.4 12.2 5.1 14.8 1.7.9 3.3-1.7 1.5-2.6zM22.6 704.5v-49.3c0-1.9-3-1.9-3 0v49.3c0 1.9 3 1.9 3 0z"/>
      <path d="M21.1 656h143.5c1.9 0 1.9-3 0-3H21.1c-1.9 0-1.9 3 0 3z"/>
      <path d="M164.5 656.7V698c0 1.9 3 1.9 3 0v-41.3c0-1.9-3-1.9-3 0zM22.6 706h142c1.9 0 1.9-3 0-3h-142c-2 0-2 3 0 3zM85.4 689.2c-3.3-1.5-5.5-4.9-4.8-8.6.9-4.4 6.1-7.6 10.2-5.3 3.7 2.1 3.8 7.6 1.7 11-2 3.4-7.1 4.5-9.4.8-1-1.6-3.6-.1-2.6 1.5 2.9 4.7 9.5 5 13.2 1.1 3.9-4.1 4.5-12.4-.1-16.2-4.7-3.9-12-1.5-14.8 3.5-3.1 5.4-.4 12.2 5.1 14.8 1.7.9 3.3-1.7 1.5-2.6zM24.5 813.9v-49.3c0-1.9-3-1.9-3 0v49.3c0 1.9 3 1.9 3 0z"/>
      <path d="M23 765.4h143.5c1.9 0 1.9-3 0-3H23c-1.9 0-1.9 3 0 3z"/>
      <path d="M166.4 766.1v41.3c0 1.9 3 1.9 3 0v-41.3c0-2-3-2-3 0zM24.4 815.4h142c1.9 0 1.9-3 0-3h-142c-1.9 0-1.9 3 0 3zM87.3 798.6c-3.3-1.5-5.5-4.9-4.8-8.6.9-4.4 6.1-7.6 10.2-5.3 3.7 2.1 3.8 7.6 1.7 11-2 3.4-7.1 4.5-9.4.8-1-1.6-3.6-.1-2.6 1.5 2.9 4.7 9.5 5 13.2 1.1 3.9-4.1 4.5-12.4-.1-16.2-4.7-3.9-12-1.5-14.8 3.5-3.1 5.4-.4 12.2 5.1 14.8 1.7.8 3.2-1.7 1.5-2.6zM3.7 532.5c-.3-3.5-.2-7 .4-10.4-.5.4-1 .7-1.4 1.1 3.1 0 6.1 0 9.2-.1 1.9 0 1.9-3 0-3-3.1 0-6.1 0-9.2.1-.6 0-1.3.5-1.4 1.1-.6 3.7-.8 7.5-.5 11.2.1 1.9 3.1 1.9 2.9 0zM23.7 521.1v-12.6c0-1.9-3-1.9-3 0v12.6c0 1.9 3 1.9 3 0z"/>
      <path d="M22.7 509.4h105.9c1.9 0 1.9-3 0-3H22.7c-1.9 0-1.9 3 0 3z"/>
      <path d="M127.1 509v12.6c0 1.9 3 1.9 3 0V509c0-1.9-3-1.9-3 0zM43.7 508.5v-13.2c0-1.9-3-1.9-3 0v13.2c0 1.9 3 1.9 3 0z"/>
      <path d="M43.9 495.7h96.7c1.9 0 1.9-3 0-3H43.9c-1.9 0-1.9 3 0 3zM125.6 509.3h13.9c1.9 0 1.9-3 0-3h-13.9c-1.9 0-1.9 3 0 3z"/>
      <path d="M139.1 495v11.3c0 1.9 3 1.9 3 0V495c0-1.9-3-1.9-3 0zM19.8 483.4v11.3c0 1.9 3 1.9 3 0v-11.3c0-2-3-2-3 0z"/>
      <path d="M22.4 484.1h89c1.9 0 1.9-3 0-3h-89c-1.9 0-1.9 3 0 3z"/>
      <path d="M111 482.6v8.4c0 1.9 3 1.9 3 0v-8.4c0-1.9-3-1.9-3 0zM22 496.2h21.9c1.9 0 1.9-3 0-3H22c-1.9 0-1.9 3 0 3zM20.6 936.4h129.1c1.9 0 1.9-3 0-3H20.6c-1.9 0-1.9 3 0 3zM522.3 682.4v-50.3c0-1.9-3-1.9-3 0v50.3c0 1.9 3 1.9 3 0z"/>
      <path d="M474.5 683.9h95c1.9 0 1.9-3 0-3h-95c-2 0-2 3 0 3z"/>
      <path d="M541.6 682.4v31.1c0 1.9 3 1.9 3 0v-31.1c0-1.9-3-1.9-3 0zM508.8 719h85.4c1.9 0 1.9-3 0-3h-85.4c-1.9 0-1.9 3 0 3zM97.3 215.9v-78.2c0-1.9-3-1.9-3 0v78.2c0 1.9 3 1.9 3 0z"/>
      <path d="M95.8 140.7h124.4c1.9 0 1.9-3 0-3H95.8c-1.9 0-1.9 3 0 3z"/>
      <path d="M218.7 139.9v70c0 1.9 3 1.9 3 0v-70c0-1.9-3-1.9-3 0zM95.1 217.4h123.6c1.9 0 1.9-3 0-3H95.1c-1.9 0-2 3 0 3zM104 209.2v-63.3c0-1.9-3-1.9-3 0v63.3c0 1.9 3 1.9 3 0z"/>
      <path d="M102.5 147.4h108.7c1.9 0 1.9-3 0-3H102.5c-1.9 0-1.9 3 0 3z"/>
      <path d="M210.5 148.1v55.1c0 1.9 3 1.9 3 0v-55.1c0-1.9-3-1.9-3 0zM104.8 211.4h105.8c1.9 0 1.9-3 0-3H104.8c-2 0-2 3 0 3z"/>
      <path d="M106.3 208.5c20.1-17.3 39.8-35.1 59.1-53.3 1.4-1.3-.7-3.4-2.1-2.1-19.3 18.3-39 36-59.1 53.3-1.5 1.2.7 3.3 2.1 2.1zM139.2 208.6c16-18.7 33.1-36.4 51.2-53.1 1.4-1.3-.7-3.4-2.1-2.1-18.1 16.7-35.2 34.4-51.2 53.1-1.3 1.5.8 3.6 2.1 2.1zM147.8 139c.3-1.9.9-3.7 2-5.3 1-1.5 3.2-4.1 5.2-4 3 .1 2.4 6.4 3.2 8.4.7 1.8 3.6 1 2.9-.8-1.4-3.6-.2-10.7-6.1-10.6-5.5.1-9.3 6.8-10.1 11.5-.3 1.9 2.6 2.7 2.9.8zM889.5 473.2v-16.4c0-1.9-3-1.9-3 0v16.4c0 1.9 3 1.9 3 0z"/>
      <path d="M888 458.3h210.1c1.9 0 1.9-3 0-3H888c-1.9 0-1.9 3 0 3zM888 474h210.1c1.9 0 1.9-3 0-3H888c-1.9 0-1.9 3 0 3z"/>
      <path d="M1095.9 456.8v15.7c0 1.9 3 1.9 3 0v-15.7c0-2-3-2-3 0zM898.8 455.3v-93.6c0-1.9-3-1.9-3 0v93.6c0 2 3 2 3 0z"/>
      <path d="M896.6 360.4h22.9c1.9 0 1.9-3 0-3h-22.9c-1.9 0-1.9 3 0 3z"/>
      <path d="M918.7 351v104.3c0 1.9 3 1.9 3 0V351c0-1.9-3-1.9-3 0z"/>
      <path d="M920.9 351.1h23.6c1.9 0 1.9-3 0-3h-23.6c-1.9 0-2 3 0 3z"/>
      <path d="M943.7 349.6v104.3c0 1.9 3 1.9 3 0V349.6c0-2-3-2-3 0z"/>
      <path d="M946.7 357.4v-28.6c0-1.9-3-1.9-3 0v28.6c0 2 3 2 3 0z"/>
      <path d="M945.9 328.9h30c1.9 0 1.9-3 0-3h-30c-1.9 0-1.9 3 0 3z"/>
      <path d="M974.4 328.9v125.8c0 1.9 3 1.9 3 0V328.9c0-2-3-2-3 0z"/>
      <path d="M974.4 328.9v67.2c0 1.9 3 1.9 3 0v-67.2c0-2-3-2-3 0zM986.7 454.6c.1-3.9.1-7.8.2-11.7l-1.5 1.5c19-2.5 38.1-4 57.2-4.4 9.4-.2 18.8-.1 28.2.3 3.7.1 10.3-.7 13.7.9 3.9 1.8 2.9 11.2 2.8 14.8 0 1.9 3 1.9 3 0 0-5.3 1.2-16.2-5.6-17.8-4.4-1-9.4-.7-13.9-.9-5.8-.2-11.7-.4-17.5-.4-22.7-.1-45.4 1.4-67.9 4.4-.8.1-1.5.6-1.5 1.5-.1 3.9-.1 7.8-.2 11.7 0 2 3 2 3 .1z"/>
      <path d="M1005.3 441c0-2.5-.4-5.2 0-7.7.5-3.7 2.2-3.7 5.7-3.9 5.3-.3 10.5-.6 15.8-.8 10.8-.6 21.7-1.2 32.5-1.7 10.3-.6 20.7-1.5 31.1-1.6 3.3 0 7 .1 9.3 2.8 3.1 3.7.5 7.9-3.7 9.1-4.3 1.2-8.9.3-13.2 1.3-1.9.4-1.1 3.3.8 2.9 6.1-1.4 24.5.3 20.7-11.8-1.3-4.2-5.5-6.5-9.6-7-7.6-1.1-15.9.4-23.5.8-15.8.8-31.5 1.7-47.3 2.5-3.9.2-7.9.4-11.8.6-2.2.1-5.4-.3-7.5.8-4.1 2.1-2.2 10.4-2.2 13.9-.1 1.8 2.9 1.8 2.9-.2zM836.5 78.9V22.4c0-1.9-3-1.9-3 0v56.5c0 2 3 2 3 0z"/>
      <path d="M835 24h106.3c1.9 0 1.9-3 0-3H835c-2 0-2 3 0 3z"/>
      <path d="M939.8 23.1v51.2c0 1.9 3 1.9 3 0V23.1c0-1.9-3-1.9-3 0zM835.6 79.8h104.3c1.9 0 1.9-3 0-3H835.6c-1.9 0-1.9 3 0 3zM877 23.1c-.1-2.4 0-4.7.5-7 .3-1.5 1.1-5.8 2.7-6.4l1.8.9c.2.6.3 1.2.4 1.8.3 1.1.5 2.2.7 3.2.5 2.2 1 4.3 1.5 6.5.4 1.9 3.3 1.1 2.9-.8-.9-3.8-1.5-7.8-2.7-11.5-.7-2.1-2.1-3.9-4.5-3.4-2.6.5-3.9 3.2-4.7 5.4-1.4 3.6-1.9 7.5-1.8 11.3.3 1.9 3.3 1.9 3.2 0zM842.5 71c19.4-14.6 39.8-27.6 61.1-39.1 1.7-.9.2-3.5-1.5-2.6-21.3 11.5-41.7 24.6-61.1 39.1-1.6 1.2-.1 3.8 1.5 2.6zM868.5 70.6c16.7-13.3 34.7-24.9 53.6-34.8 1.7-.9.2-3.5-1.5-2.6-19.2 10.1-37.3 21.9-54.2 35.3-1.5 1.2.6 3.3 2.1 2.1zM910.9 171.3v-31.2c0-1.9-3-1.9-3 0v31.2c0 1.9 3 1.9 3 0z"/>
      <path d="M910 140.9h59.8c1.9 0 1.9-3 0-3H910c-1.9 0-1.9 3 0 3zM910 172.8h62.4c1.9 0 1.9-3 0-3H910c-1.9 0-1.9 3 0 3z"/>
      <path d="M969.7 140.7v32.6c0 1.9 3 1.9 3 0v-32.6c0-1.9-3-1.9-3 0zM934.8 138.7c-.1-1.3.5-10.3 2.7-9.2.6.3 1 3.8 1.1 4.5.4 2 .5 4 .4 6 0 1.9 3 1.9 3 0 0-3.2-.3-6.4-1.1-9.5-.5-1.8-1.2-4.6-3.6-4.7-2.3-.1-3.5 2.7-4.2 4.4-1.1 2.7-1.5 5.6-1.3 8.5.2 1.9 3.2 1.9 3 0zM915 168.9c10.5-6.5 20.8-13.3 30.8-20.5 1.5-1.1.1-3.7-1.5-2.6-10 7.2-20.3 14.1-30.8 20.5-1.7 1-.2 3.6 1.5 2.6zM931.8 169.8c8.8-7 17.9-13.4 27.4-19.4 1.6-1 .1-3.6-1.5-2.6-9.7 6.1-19 12.7-28 19.9-1.5 1.2.6 3.3 2.1 2.1zM41.5 283.2v42.9c0 1.9 3 1.9 3 0v-42.9c0-2-3-2-3 0z"/>
      <path d="M19 329.3h67c1.9 0 1.9-3 0-3H19c-1.9 0-1.9 3 0 3z"/>
      <path d="M63.9 329.5v25.8c0 1.9 3 1.9 3 0v-25.8c0-1.9-3-1.9-3 0z"/>
    </g>
    <path d="M693.4 950.4c1.1 6.7 2.2 13.4 3.3 20-12.5 13.8-23.9 22.7-32.2 28.4-9.3 6.4-22.4 14.1-33.8 30.1-1.5 2.1-2.6 3.8-3.3 5 11.1-3.2 22.3-6.4 33.4-9.6 24.8-7.2 49.6-14.4 74.3-21.7-4-25.1-8.1-50.1-12.1-75.2-9.9 7.7-19.7 15.3-29.6 23z" fill="#000"/>
    <path d="M634.1 620.1c.2 6.3.6 15.4 1.4 26.4 1.1 16.7 4.1 54.9 19.6 135.2 11 56.9 22.4 104.9 33.8 152.8 1.7 7.1 3.1 12.9 4.1 16.9 10.8-2 21.6-4.1 32.4-6.1-1.5-10.8-3.6-27-6.1-46.6-9.6-76.1-15.6-124.5-18.3-181.9-1.1-23.9-1.9-57.7-.7-98.7-22.1.6-44.2 1.3-66.2 2z" fill="#FFF"/>
    <path d="M670.3 630.5c1 7.2 2.5 18.1 4.3 31.2 6.9 49.4 12.3 85.8 13.4 93.6 4.7 31.6 12.3 87.2 25.3 192 3.9-.4 7.9-.7 11.8-1.1-1.7-10.9-4.2-27.8-7-48.4-6.6-49-15.3-114.2-18.3-195.8-.6-16.3-1.2-39.8-1.1-68.3-9.4-1-18.9-2.1-28.4-3.2z" fill="#606060" opacity=".11"/>
    <path d="M632.3 621.7c6.9 92 25.1 182.6 45.8 272.4 5.9 25.7 12 51.3 18.2 77 .4 1.9 3.3 1.1 2.9-.8-21.3-89.2-42.7-178.6-55.3-269.5-3.7-26.3-6.5-52.6-8.5-79.1-.2-1.9-3.2-1.9-3.1 0zM697.6 636.3c-.1 95.7 7.4 191.4 22.4 285.9 4.3 27 9.2 53.8 14.7 80.6.4 1.9 3.3 1.1 2.9-.8-19.2-93.8-31-189.1-35.2-284.8-1.2-27-1.7-53.9-1.7-80.9-.1-1.9-3.1-1.9-3.1 0z" fill="#161616"/>
    <path d="M696.9 969.8c-13 10.9-25.9 21.9-38.9 32.8-11 9.3-23.3 18.2-31 30.7-.7 1.1.4 2.6 1.7 2.2 36.1-10.5 72.2-20.9 108.3-31.4 1.9-.5 1.1-3.4-.8-2.9-36.1 10.5-72.2 20.9-108.3 31.4.6.7 1.1 1.5 1.7 2.2 7.8-12.8 20.7-21.9 32-31.4 12.5-10.5 24.9-21 37.4-31.5 1.5-1.2-.7-3.3-2.1-2.1z" fill="#161616"/>
    <path d="M801.6 934.1c4.5 14.1 8.9 28.1 13.4 42.2-10.4 7.3-19.5 13.8-27.1 19.4-16.4 11.9-22.8 16.9-30.2 24.1-5.1 5-9 9.4-11.6 12.5 10-1.6 32.5-5.3 55.6-10.3 19.1-4.2 15.6-4.3 23.7-5.6 5.3-.8 11.7-1.5 19.4-5.2 3-1.4 5.3-2.8 6.9-3.9-.4-3.8-.8-7.7-1.3-11.6-2.7-20.9-7.2-40.1-12.5-57.3-12.2-1.5-24.2-2.9-36.3-4.3z" fill="#000"/>
    <path d="M721.9 630.2c2 14.8 5.1 34.9 9.6 58.5 3.4 17.8 11.2 56.4 25.6 106.6 11.3 39.4 14.9 44.7 36.1 113 7 22.5 12.5 40.9 16 52.9 10.4-2.9 20.8-5.9 31.2-8.8-2.1-11.2-5.2-27.9-8.8-48.1-12.4-69.7-23.8-133.3-32-209.1-2.9-26.5-6.4-63.5-8.8-108.2-23 14.3-46 28.7-68.9 43.2z" fill="#FFF"/>
    <path d="M721 634.6c12.2 90.9 39.5 178.8 67.6 265.8l24.6 75.6c.6 1.8 3.5 1 2.9-.8-28.5-87.6-58.9-175.1-78.7-265.2-5.5-25.2-10.1-50.6-13.6-76.2-.2-1.9-3-1.1-2.8.8zM789.7 603.3c7.6 105 21.6 209.5 41.9 312.9 5.8 29.3 12 58.5 18.8 87.6.4 1.9 3.3 1.1 2.9-.8-23.8-102.3-41.4-206-52.6-310.4-3.2-29.7-5.8-59.4-8-89.2-.1-2.1-3.1-2.1-3-.1z" fill="#161616"/>
    <path d="M813.3 976.6c-24.6 16.1-49.4 32.5-69.3 54.4-1 1.1 0 2.8 1.5 2.5 23.6-4.7 47.2-9.5 70.7-14.2 5.8-1.2 11.6-2.3 17.4-3.5 4.5-.9 9.5-1.4 13.8-3.4 5.3-2.5 8.6-8.9 4.2-13.8-1.3-1.5-3.4.7-2.1 2.1 8.1 9.3-17.4 12.4-21.5 13.2-9.4 1.9-18.7 3.8-28.1 5.7l-55.2 11.1c.5.8 1 1.7 1.5 2.5 19.8-21.7 44.3-38 68.7-54 1.5-1.1 0-3.7-1.6-2.6z" fill="#161616"/>
    <path d="M771.3 644.4c1.3 8.8 4.8 32.9 6.1 41.9 19.5 134.4 24.8 173.4 38.5 228.5 2.7 10.8 6.5 25.4 11.5 42.6 4.5-1.4 9-2.7 13.5-4.1-1.8-9.8-4.3-24.4-7.4-41.9-13.7-77.6-20.6-116.3-24.3-140.6-5.3-34.1-11.6-82.3-15.5-142-7.5 5.2-15 10.4-22.4 15.6z" fill="#606060" opacity=".1"/>
    <g>
      <path d="M645.1 450.3c-5.3 16-10.2 33.7-14 53-10.5 52.5-10.1 99.2-6.3 135.7 8.3 3.7 20.2 8.4 34.9 12.3 16.6 4.3 45.8 11.7 82 5.7 13.7-2.3 35.4-7.6 59.4-21.7-.7-26.1-3.3-56.4-9.4-89.9-6.7-36.5-16.2-68.1-25.7-94.3-40.3-.2-80.6-.5-120.9-.8z" fill="#8989C0"/>
      <path d="M740.3 453.5c3.3 8.8 6.3 18 9 27.7 18.4 66.5 13.5 127.8 3.7 174.2 8.6-2.2 18.5-5.5 29.2-10.5 6.7-3.1 12.7-6.5 17.9-9.7.2-14.1-.2-29.1-1.5-44.8-4.6-55.5-18.7-102.5-33.6-139-8.2.6-16.4 1.4-24.7 2.1z" fill="#606060" opacity=".11"/>
    </g>
    <g>
      <path d="M664.5 235.7c-2.6 1.9-6.1 4.6-9.9 8.2-12.2 11.5-18.5 23-20.2 26.2-5.2 10-7.2 18.5-10.3 32.2-3.6 15.6-3 21-8.6 28.3-5.4 7.1-12.3 10.5-15.5 12-9.4 4.6-17.8 4.7-22.8 4.7-11.2.1-20.2-3-25.8-5.6-1.1 1.4-2.3 2.9-3.4 4.3-3.2-1.6-8.1-4-14.2-6.4-12-4.8-18.1-7.2-25.3-6.4-1.5.2-14.3 1.7-17.2 9.9-1 2.9-.9 7.1 1.3 9 2.6 2.2 7.6 1 12 0 3.7-.8 5.5-1.8 7.7-.9 1.6.7 2.6 2.1 3.4 3.9 3.1 6.4 1.1 11.4 2.1 21.9.5 5.7.9 8.7 3 10.3.7.6 3.2 2.2 14.2-.9 4-1.1 9.7-3 16.3-6.4-.4 2.7-.9 5.4-1.3 8.2 6.8 1.7 16.7 3.7 28.8 4.7 17.7 1.5 29.8 2.5 44.2-2.6 16-5.7 26.4-15.8 31.3-21.5 9.7-11.1 13.5-22.1 15.5-27.9 14.1-40.5-2.7-96.6-5.3-105.2z" fill="#FFF"/>
      <path d="M669.2 249.8c-.8 6.8-2.2 16.8-4.3 28.8-4.6 25.6-6.8 38.4-13.3 51.5-3.7 7.4-11.8 23.9-28.8 34.8-29.3 18.8-64.1 7.7-70.4 5.6-10.3 5.2-20.6 10.3-30.9 15.5 2.7.5 6 .8 9.9.4 8.9-.8 15.5-4.5 18.9-6.9v9.4c6.8 1.6 16.7 3.5 28.8 4.3 17.1 1.1 29.7 1.9 44.2-3.4 25.2-9.3 37.6-30.5 39.9-34.8 7-12.6 8.3-23.5 9.9-38.6 1.6-15.2 2.2-38.3-3.9-66.6z" fill="#606060" opacity=".1"/>
      <path d="M663.7 234c-15.6 11.2-27.8 26.7-34.7 44.7-7.8 20.5-7.7 43.5-19.2 62.6-1 1.7 1.6 3.2 2.6 1.5 10.5-17.5 11.5-38.1 17.4-57.2 6.1-19.7 18.6-36.9 35.4-49 1.6-1.1.1-3.7-1.5-2.6zM550.2 342.2c.8 14.5.4 29-1.2 43.4-.2 1.9 2.8 1.9 3 0 1.7-14.4 2.1-28.9 1.2-43.4-.1-2-3.1-2-3 0z" fill="#161616"/>
      <path d="M550.4 343.6c14.4 4.6 30.5 7.8 45.3 2.9 11.2-3.7 20.8-11.6 24.9-22.9.7-1.8-2.2-2.6-2.9-.8-4.1 11.2-14.3 18.7-25.6 21.6-13.6 3.5-27.8.5-40.8-3.7-1.9-.6-2.7 2.3-.9 2.9zM550.1 388.8c23.1 6.1 50.6 9.7 74 2.8 21.2-6.3 34.7-24.4 44.8-43 .9-1.7-1.7-3.2-2.6-1.5-10.1 18.5-23.4 36.4-44.7 42.1-22.5 6-48.5 2.6-70.7-3.2-1.8-.6-2.6 2.3-.8 2.8z" fill="#161616"/>
      <path d="M549.8 343.7c-6.1.1-12.2-4.1-17.7-6.6-4.2-1.9-8.6-3.7-13.1-4.7-8-1.8-16.6-1.2-23.2 4.1-4.1 3.3-9.2 10.9-4.9 15.9 2 2.2 5.2 3.2 8.1 3.3 3.7.1 13.5-5.9 15.3-1.3.7 1.8 3.6 1 2.9-.8-1.8-4.7-6.4-4.7-10.6-3.1-4.1 1.5-14.6 5.4-14.1-3.9.2-4 4.9-7.9 8.1-9.7 8.9-4.8 19.7-1.7 28.3 2.1 6.5 2.9 13.6 7.9 20.9 7.8 2-.1 2-3.1 0-3.1zM522 388.1c9.9 2 19.8-.1 27.9-6.2 1.5-1.1 0-3.7-1.5-2.6-7.5 5.6-16.4 7.7-25.6 5.9-1.9-.4-2.7 2.5-.8 2.9z" fill="#161616"/>
    </g>
    <g>
      <path d="M702.8 216.2h-15.5v9.3c-3.8.6-9.1 1.8-15 4.6-4.7 2.3-8.3 5-10.8 7.2-3.5 18.8-7.1 33.9-9.8 44.4-4 15.3-6.2 21.7-6.7 33.5-.4 8.9.7 10 1 27.3.1 7.5.3 16.8-.5 27.9-.6 8-1.4 13.9-4.1 30.4-4.8 29.2-5.5 30.9-6.7 39.2-1.7 11.8-3.1 28.8-1.5 50.1 2.4 1.6 6.3 4.1 11.4 6.7 9.3 4.9 14 6 21.7 9.8 4.2 2.1 10.2 5.5 17 10.8 2.1-15.5 4.1-31 6.2-46.4 2.8 16.5 5.5 33 8.3 49.5 4.6.4 11.4.6 19.6 0 10.7-.8 31-2.7 49.5-16 9.6-6.9 13.9-13.4 15-15 4.7-7.2 6.5-14.2 7.2-18.6-1.6-9.1-3.5-21.8-5.2-37.2-2-19.2-2.9-36.7-3.1-65.5-.2-23.7 0-54.6 1.5-91.3 3.3-10.7 6.5-21.3 9.8-32-6.6-4.3-14.5-8.8-23.7-12.9-12-5.4-23.2-8.7-32.5-10.8.2-3.8.3-7.6.5-11.4-3.4 2.5-11.3 7.5-22.2 7.7-4.6.3-8.4-.4-11.4-1.3z" fill="#FFF"/>
      <path d="M781.8 293.1c-2.3 7.4-5.7 19.3-9.3 34.1-13.2 54.7-11 79.3-19.6 113.5-4.9 19.3-14.6 47.5-36.6 80 13.5-1.3 24-4.6 31-7.2 12.1-4.6 24.2-9.2 33-21.2 6.2-8.3 8.4-16.9 9.3-22.2-3-17.2-5.5-35.4-7.2-54.7-4.3-45.3-3.6-86.4-.6-122.3z" fill="#606060" opacity=".09"/>
      <path d="M712.6 220.8c-1.1.4.3 4.3-1.5 10.3-1.1 3.4-2.8 6-4.1 7.7 5.9 2.4 11.7 2.2 13.9-.5 4.2-5.1-6-18.3-8.3-17.5zM686.8 469c-2 6-3.9 12.6-5.7 19.6-2.1 8.4-3.6 16.4-4.6 23.7 2.8 1.5 5.5 3.1 8.3 4.6.7-15.9 1.4-31.9 2-47.9z" fill="#606060" opacity=".12"/>
      <path d="M701.6 215c-4.9 0-9.7.3-14.6.9-.7.1-1.6.6-1.5 1.5.5 4.5 1 9 1.5 13.6.2 1.9 3.2 1.9 3 0-.5-4.5-1-9-1.5-13.6l-1.5 1.5c4.8-.6 9.7-1 14.6-.9 2 0 2-3 0-3z" fill="#161616"/>
      <path d="M687.2 219.1c3.8 3.3 6.1 7.6 6.9 12.6.3 1.9 3.2 1.1 2.9-.8-.9-5.4-3.6-10.3-7.7-13.9-1.4-1.3-3.5.8-2.1 2.1zM662.6 238.5c7.6-5.7 16-9.9 25.2-12.4 1.9-.5 1.1-3.4-.8-2.9-9.4 2.6-18.1 6.9-25.9 12.7-1.6 1.2-.1 3.8 1.5 2.6zM741.8 222.3c17.8 4.9 34.3 13 49 24.2 1.5 1.2 3-1.4 1.5-2.6-14.9-11.3-31.7-19.5-49.7-24.5-1.9-.5-2.7 2.4-.8 2.9zM654.7 271.9c-20 43-5.4 90.8-7.7 136.1-.1 1.9 2.9 1.9 3 0 2.2-44.6-12.4-92.2 7.3-134.6.8-1.7-1.8-3.2-2.6-1.5z" fill="#161616"/>
      <path d="M644.8 358.3c.9 22.6-5.6 44.4-9.4 66.5-3.6 21.5-4.4 43.3-3.6 65.1.1 1.9 3.1 1.9 3 0-.8-22.8 0-45.6 4.1-68 3.9-21.1 9.7-41.9 8.8-63.5 0-2-3-2-2.9-.1z" fill="#161616"/>
      <path d="M632.7 491.2c7.6 5 15.7 9.3 24.1 12.8 9.6 3.9 17.6 8.2 25.9 14.5 1.5 1.2 3-1.4 1.5-2.6-7.3-5.6-14.6-10-23.2-13.4-9.4-3.7-18.4-8.3-26.9-13.8-1.5-1.2-3 1.4-1.4 2.5z" fill="#161616"/>
      <path d="M685.8 517.2c1.6-16.7 3.1-33.4 4.7-50 .2-1.9-2.8-1.9-3 0-1.6 16.7-3.1 33.4-4.7 50-.2 1.9 2.8 1.9 3 0z" fill="#161616"/>
      <path d="M687.8 467.9c1.6 17.9 4.4 35.6 8.2 53.2.4 1.9 3.3 1.1 2.9-.8-3.8-17.3-6.5-34.8-8.1-52.4-.2-1.9-3.2-2-3 0z" fill="#161616"/>
      <path d="M698.3 522.9c17.9.7 35.7-2.4 52.3-9.1 13.3-5.4 28.6-13.1 33.9-27.4.7-1.8-2.2-2.6-2.9-.8-5.4 14.6-23.1 22.3-36.7 27.2-15 5.4-30.8 7.7-46.6 7.2-1.9-.1-1.9 2.9 0 2.9zM780.6 292c-3.8 60-1.7 120.2 6.1 179.7.3 1.9 3.3 1.9 3 0-7.9-59.6-10-119.8-6.1-179.7.1-1.9-2.9-1.9-3 0z" fill="#161616"/>
      <path d="M787 469.4c-1.2 8.2-4 15.8-8.5 22.8-1 1.6 1.6 3.1 2.6 1.5 4.6-7.2 7.6-15 8.8-23.5.3-1.9-2.6-2.7-2.9-.8zM695.1 235.9c2.5 3 6.2 4.7 10.1 4.8 1.9 0 1.9-3 0-3-3.2-.1-6-1.5-8-3.9-1.3-1.5-3.4.6-2.1 2.1zM704 245.7c-19.3 65.5-3.3 134.4-13.1 201.1-.3 1.9 2.6 2.7 2.9.8 9.8-66.7-6.1-135.6 13.1-201.1.6-1.9-2.3-2.6-2.9-.8zM696.5 254.8c-.1-.1-.1-.1 0 0-.1 0-.1 0 .1.1-.1-.1-.1-.1 0 .1 0-.1 0-.2-.1-.2.1.2.2.2 0 0 .1-.1.1-.1.1.1 0-.1 0-.1-.1-.1.1.1.1.2 0 0 .1-.2.1-.1 0 0 .1-.1.1 0 0 .1.1-.1.1-.1-.1 0 .1-.1.1-.1-.1 0h-.4c.2 0 .1 0 0 0 .1.1.1.1 0 0l.2.2c-.1-.2-.1-.2 0 0-.1-.2-.1-.2 0 0v-.1-.1c0-.1.1-.2.2-.3-.1.1-.1.1 0 0s.2-.1.4-.1h.1c-.2-.1-.1 0 .1 0-.1 0-.1-.1-.2-.1.2.1.2.1.1 0 .1.2.1.2 0 .1s-.1-.1 0 .1v.1c0 .2-.1.3 0 .1-.1.2-.1.2 0 .1.5-.7.1-1.7-.5-2.1-.8-.4-1.6-.1-2.1.5-1.2 1.7.4 4 2.3 4.1.9.1 1.8-.4 2.3-1.2.5-.9.4-2-.1-2.8-1-1.7-3.6-1.9-4.6-.1-.9 1.6-.1 3.9 1.8 4.3.8.2 1.6-.3 1.8-1 .1-.7-.4-1.6-1.2-1.8z" fill="#161616"/>
      <path d="M692.4 287.4c0-.6-.1-1.2-.1-1.8-.4.5-.7 1-1.1 1.4.2 0 .2-.1.1 0h.1c-.3-.1.2 0-.1 0 0 0 .1 0 .1.1-.1-.1-.1-.1 0 0v.1c-.1-.1 0-.1 0-.2 0 .2-.1.2 0 0l-.2.2c.1 0 .3 0 0-.1.4.1.7.3 1.1.4 0 0-.1-.2-.1-.3v-.3c.5-1.9-2.4-2.7-2.9-.8-.3 1.2-.1 2.7.9 3.6 1.1 1.1 3.1.1 3.8-1 1.5-2.3-1-5.3-3.5-4.4-.6.2-1.2.8-1.1 1.4 0 .6.1 1.2.1 1.8.1.8.6 1.5 1.5 1.5.6-.1 1.4-.8 1.4-1.6zM690.4 316.3c-.2-.3 0 .1-.1-.2v-.1c0 .1 0 .1 0 0 0 0 0-.1.1-.1l.1-.1-.1.1c-.4-.1-.8-.1-1.2-.2-.3-.2.1.2-.1-.1.1.1.1.1 0 0V315.9c-.1.3.1-.1-.1.1s.2-.1-.1.1c.2-.1.1 0 0 0-.2 0 .5-.1.1 0l1.5 1.5c0-.6-.1-1.2-.1-1.8 0-.8-.7-1.5-1.5-1.5s-1.5.7-1.5 1.5c0 .6.1 1.2.1 1.8 0 .8.7 1.5 1.5 1.5 2.4-.1 4-3 2.7-5.1-.4-.6-1-1.2-1.7-1.2s-1.4.5-1.8 1c-.9 1-1.1 2.6-.4 3.8 1 1.9 3.6.3 2.6-1.3zM689.8 342.6c.1.2.2.3.2.5v.1c.1-.3-.1.3 0 0 .1-.2-.1.2 0 0 0-.1.3-.2 0 0 .2-.1-.2.1 0 0h-.4c.3 0-.2-.2 0 0l-.5-.5c.2.4.2.9 0 1.5l1-1c-.2.1-.2.1 0 0 .2 0 .2 0 0 0h.1c.1.1.1.1 0 0 .1.1.1.1 0 .1-.1-.1 0-.1 0 .1s0 .2 0 0c0 .2 0 .2 0 0 .3-.8-.3-1.6-1-1.8-.9-.2-1.5.3-1.8 1-.6 1.5.6 3.2 2.1 3.5.4.1.9.1 1.3-.1.7-.2 1-.7 1.1-1.4.2-.9.2-1.8-.1-2.7-.3-.9-.9-1.6-1.9-1.7-.8-.1-1.5.2-2.1.7-1.2 1-1.3 2.6-.3 3.8.5.6 1.6.5 2.1 0 .8-.6.8-1.5.2-2.1zM689.9 366.1c-.1-.1-.1-.2 0 0l-.1-.2c0 .2.1-.2 0 .1-.4.2-.9.5-1.3.7h.1c-.2-.1-.2-.1-.1 0s.1 0-.1-.1c.2.3-.1-.3.1.1.1.1.1.4 0 .1 0 .1.1.4 0 .1v.1c0 .1-.2.3 0 .1 0-.1.1-.1.1-.2-.1.1-.1.1 0 0 .3-.1.5-.1.8-.2-.3 0 .2.1.2.1l.1.1-.1-.1c.1.2.1.3 0 .5.4-.7.2-1.6-.5-2.1-.7-.4-1.7-.2-2.1.5-.6 1.2-.3 2.6.8 3.3.6.4 1.4.6 2.1.4.6-.2 1-.8 1.2-1.3.8-2-.5-4.5-2.8-4.5-.5 0-1.1.3-1.3.7-.6 1.3-.5 2.7.6 3.7 1.6 1.6 3.7-.6 2.3-1.9zM689.3 390c.2.1.2.1.3.2 0 0 0-.1-.1-.1.1.1.1.2 0 .1 0-.1 0-.1 0 0v-.1c0 .2 0 .3-.2.4-.5.1-1 .3-1.5.4.3.1-.2-.1 0 0-.2-.1-.2-.2-.1 0l-.1-.1c0 .1.1.1.1.2 0-.1 0-.1-.1-.2 0 .1 0 .1.1.2v-.1.2c0-.1 0-.1 0 0s0 .1 0 0c.1-.1 0-.1 0 0 .1-.2.2-.2.1-.1s0 .1.1-.1c-.1.1-.1.1.1 0 .6.2 1.1.5 1.7.7 0 .2 0 .1 0 0v.2c0-.2.1-.2 0 0 0 .1-.1.1-.2.2.7-.5 1-1.3.5-2.1-.4-.7-1.4-1-2.1-.5-1.2.8-1.7 2.4-.9 3.7.3.5 1.1.9 1.7.7 1.2-.4 2-1.6 1.9-2.9-.1-1.3-.8-2.5-2.1-2.8-.5-.1-1.1 0-1.5.4-1.3 1.5-.7 3.8 1.2 4.5.8.3 1.6-.3 1.8-1 .5-1 0-1.7-.7-2zM687.6 418.8c0 .2 0 .3-.1.5l-.1.1c.1-.1.1-.1 0 0s-.3.1-.1.1c-.2 0-.8-.2-.5 0-.2-.3-.5-.6-.7-.9 0 .1.1.2.1.3 0 .1 0 .2 0 0v.3c0-.2 0 0-.1.1-.1.2.1-.2 0 .1 0 0-.2.2-.1.2-.1.1-.2.1-.3.2.7.2 1.4.4 2.1.5-.1-.1-.2-.3-.3-.5-.1-.2 0-.2-.1 0s-.1.5-.3.6c-.5.4-1.2-.2-1.4-.7.2.8 1.1 1.3 1.8 1 .8-.2 1.3-1.1 1-1.8-.4-1.4-2.1-1.8-3.3-1-1.3 1-.9 2.6-.1 3.8.5.7 1.3 1 2.1.5.9-.5 1.5-1.3 1.8-2.3.3-1 .2-2.4-.6-3-1.8-1.5-4.5.6-3.9 2.7.7 1.9 3.6 1.1 3.1-.8zM685.7 449.7c.2-.5.4-1 .7-1.5-.3.2-.6.5-.9.7-.2.1-.3 0-.5-.1-.1-.1-.1-.1 0 0-.1-.2-.2-.4-.1-.7.1-.2.2-.3.4-.3h.1c.1 0 .2 0 .3.1-.7-.4-1.6-.2-2.1.5-.4.7-.2 1.7.5 2.1 1.9 1 4.4-.8 3.5-2.9-.4-.9-1.3-1.6-2.3-1.6-.7 0-1.3.3-1.6 1-.2.4-.4.8-.5 1.3-.3.7-.2 1.6.5 2.1.6.2 1.7 0 2-.7zM725.7 211.8c-3.4 1.1-6.7 2.2-10.1 3.3-1.6.5-4.2.9-5.1 2.5-.8 1.4-.1 2.6.2 4 .9 4-.1 7.9-2.3 11.4-1.1 1.6 1.5 3.1 2.6 1.5 2.4-3.6 3.5-7.8 2.9-12.2 0-.2-.8-2.5-.6-2.8.5-1.1 3.6-1.7 4.6-2 2.9-1 5.7-1.9 8.6-2.9 1.8-.6 1-3.5-.8-2.8z" fill="#161616"/>
      <path d="M711.9 219.9c3 3.3 5 7.1 5.8 11.5.4 1.9 3.3 1.1 2.9-.8-.9-4.9-3.2-9.2-6.6-12.8-1.3-1.5-3.4.7-2.1 2.1zM724 216c4.1-1.9 8.3-3.2 12.7-4-.6-.5-1.3-1-1.9-1.4.4 4-.2 7.9-1.9 11.5-.8 1.7 1.8 3.3 2.6 1.5 2-4.1 2.8-8.5 2.3-13-.1-1-.9-1.6-1.9-1.4-4.7.8-9.1 2.3-13.4 4.3-1.8.7-.3 3.3 1.5 2.5z" fill="#161616"/>
      <path d="M736.7 221.5c2.1.5 4.2.7 6.3.6 1.9 0 1.9-3 0-3s-3.7-.1-5.5-.5c-1.9-.5-2.7 2.4-.8 2.9z" fill="#161616"/>
    </g>
    <g>
      <path d="M792.1 245.1c4.1 0 6.3 8.3 11.4 20.6 10.9 26.7 16.3 40 18.6 48.5 4 15 8.2 36.3 8.3 62.4-3.1 6.7-7.8 15.8-15 25.8-6.4 8.9-18.1 24.9-39.2 37.7-6.7 4.1-16.7 9.2-29.9 12.9l-2.1-15c-2.2 1.1-5.4 2.9-9.3 5.2-6.2 3.7-7.6 5-10.3 6.2-3.5 1.5-8.9 2.8-17 1-4.1-11.9-7.5-21.7-10.3-29.4-.9-2.6-2.7-7.3-.5-11.4 1.2-2.2 3.2-3.4 4.6-4.1-1.7-3.2-2.3-5.9-2.6-7.7-.3-2.3-.5-3.9.5-5.2 1.7-2.1 5.3-1.6 5.7-1.5-.7-4.7-1.4-9.6-2.1-14.4-1.8-13.7-3.2-26.9-4.1-39.7 4.3-2.6 8.6-5.2 12.9-7.7 21.3-12.7 42.5-24.7 63.5-36.1.1-2.6.4-6.2 1-10.3.8-5.8 1.9-10.5 2.6-12.9.4-2.2 6.5-24.9 13.3-24.9z" fill="#FFF"/>
      <path d="M790.6 244.1c3.7 8.8 8.3 21.3 12.4 36.6 6.3 23.9 12.6 46.8 8.8 75.3-2 14.7-4.3 32.2-17.5 49-16.6 21.1-39.7 27.5-48.5 29.4-3.2-1.6-8.6-3.6-15.5-3.6-14.4 0-24.1 9.1-26.3 11.4 1.2 2.8 2.4 5.5 3.6 8.3 6.6.8 11.3-.3 14.4-1.5 5.7-2.2 8.3-5.6 16.5-8.8 2.8-1.1 5.1-1.7 6.7-2.1.2 4.1.3 8.3.5 12.4 11-1.4 19.2-4.4 24.3-6.7 22.4-10.1 35.2-28.4 48.5-47.5 5.7-8.1 9.8-15.1 12.4-19.6-.1-8.6-.7-19.9-2.6-33-3.7-26-10.3-44.8-11.9-49-4.9-13.4-12.7-31.3-25.8-50.6z" fill="#606060" opacity=".07"/>
      <path d="M767.3 297.7c.9 7.6 1.4 16.1 1 25.3-1.4 33.6-13.7 59.8-23.2 75.9 5.3-3.3 11.1-7.4 17-12.4 10.7-9.1 18.6-18.4 24.3-26.3.7-10.3.2-19-.5-25.3-1.2-11.5-3.5-20.6-5.7-28.9-1.5-6-3-10.9-4.1-14.4-2.9 2-5.8 4.1-8.8 6.1zM826.7 335.9c-1.9 0-1.7 17.2-9.8 41.3-2.8 8.2-6.7 19.6-14.4 31.5-5.5 8.4-16.9 23-38.2 35.1 7.6-2.8 16.6-7 25.8-13.4 24.7-17.4 36-40.7 40.8-52.6-1.4-34.5-3-41.9-4.2-41.9z" fill="#606060" opacity=".1"/>
      <path d="M779.6 301.6c3.5 19.6 6.8 39.3 4.6 59.3-.2 1.9 2.8 1.9 3 0 2.3-20.2-1.1-40.2-4.7-60.1-.3-1.9-3.2-1.1-2.9.8z" fill="#161616"/>
      <path d="M784.8 359.5c-6.6 10-14.5 19-23.7 26.8-4.6 3.9-9.5 7.4-14.7 10.6-3.5 2.2-8.4 3.6-9.8 7.8-.6 1.8 2.3 2.6 2.9.8.8-2.7 4.8-3.9 7-5.2 2.5-1.5 5-3.1 7.4-4.8 4.3-3 8.4-6.2 12.3-9.7 8.1-7.3 15.1-15.6 21.1-24.7 1.1-1.7-1.5-3.2-2.5-1.6z" fill="#161616"/>
      <path d="M736.5 405.9c4.2 14.7 6.7 29.8 7.6 45 .1 1.9 3.1 1.9 3 0-.9-15.5-3.5-30.9-7.7-45.8-.5-1.8-3.4-1-2.9.8zM790 244.8c25.4 38.9 38.9 84.8 38.5 131.3 0 1.9 3 1.9 3 0 .4-47-13.2-93.5-38.9-132.8-1.1-1.6-3.7-.1-2.6 1.5z" fill="#161616"/>
      <path d="M746 453.2c41.2-7.2 67.9-42.1 86.7-76.6.9-1.7-1.7-3.2-2.6-1.5-18.5 33.9-44.5 68.2-84.9 75.2-1.9.3-1.1 3.2.8 2.9zM735.8 405c-5.8-3.4-11.6-7.1-17.6-10.2-4.5-2.4-10.4-5.3-15.7-4.9-8.8.7-6.1 12.5-1.7 16.6 1.4 1.3 3.5-.8 2.1-2.1-2.8-2.6-6.1-10.6.2-11.5 3.7-.5 8.8 2.2 12 3.7 6.6 3.2 12.9 7.3 19.2 11 1.7 1 3.2-1.6 1.5-2.6z" fill="#161616"/>
      <path d="M701.5 404.1c-6.3 2.2-7.4 8.6-6.1 14.5 1.1 5.1 3 10.1 4.5 15.2 1.5 4.8 2.5 10.1 4.5 14.7 2.8 6.2 11 3.9 16.3 2.7 3.7-.9 7.8-2 10.8-4.4 3.7-3 5.7-6.1 10.8-7.3 1.9-.4 1.1-3.3-.8-2.9-4.8 1.1-7.4 3.5-10.8 6.9-2.5 2.4-5.7 3.5-8.9 4.4-2.6.7-8.1 2.5-10.7 1.7-4.7-1.6-5.3-6.7-6.5-10.8-.9-2.9-1.7-5.7-2.6-8.6-1.8-5.9-8.6-20.1.4-23.1 1.7-.7.9-3.6-.9-3z" fill="#161616"/>
      <path d="M734.3 405.8c3.2 10.9 5.5 21.9 7.1 33.2.3 1.9 3.2 1.1 2.9-.8-1.6-11.2-4-22.3-7.1-33.2-.5-1.8-3.4-1-2.9.8zM707 390c-2.7-11.8-4.6-23.8-5.6-35.9l-.6-8.7c-.1-2.4-1-6.4.5-8.5 1.5-2 5.8-3.9 7.9-5.2 2.4-1.5 4.8-3.1 7.2-4.6 19.6-12.2 40-23.1 60.3-34-.7-.3-1.5-.6-2.2-.9 3.9 14 7.1 28.1 9.6 42.5.3 1.9 3.2 1.1 2.9-.8-2.5-14.3-5.7-28.5-9.6-42.5-.3-1-1.4-1.4-2.2-.9-22.3 11.9-44.6 23.9-65.9 37.5-2.7 1.7-5.3 3.4-7.9 5.2-1.2.8-3.2 1.6-3.8 3-.9 1.9.1 6 .2 8.1.1 2.9.3 5.8.6 8.7 1 12.7 3 25.2 5.8 37.6.4 2.1 3.3 1.3 2.8-.6z" fill="#161616"/>
    </g>
    <g>
      <path d="M669.3 87.6c-8.2 4.9-13.6 8.3-17.7 15.1-5.6 9.2-5.2 18.8-4.8 23.3L636 155.4h12.1c0 4 .4 10.3 3 17.3 1.6 4.3 6.5 16.7 19.9 23.8 11.7 6.1 22.9 4.6 26.8 3.9 1 5.8 2 11.5 3 17.3 4.5-.2 11-1.1 18.2-4.3 21.3-9.5 28.9-31.2 31.1-37.6 7.8-22.4 2-41.7 0-48-4.6-14.7-12.4-24-17.3-29.8-9.9-11.7-18.3-21.6-31.1-22.9-9.9-1-17.7 3.7-32.4 12.5z" fill="#FFF"/>
      <path d="M646.2 126.1c4.1-8.8 7.5-15.4 7.9-16.2 5.9-11 30.9-28.9 33.3-30.6 3-4.6 5.5-9.9 3.5-12.9-3.8-5.7-23.5-2-36.8 7.9-1.7 1.2-23.5 18.1-18.8 39.1 1.7 7.6 6.3 12.9 9.4 15.9.4-.8.9-1.9 1.5-3.2z" fill="#342E52"/>
      <path d="M675.1 73.7c-3.3 6.8-1.4 14 .6 21.5.4 1.4 6.2 22.1 25.9 32.7 5.7 3 13.6 7.3 20.9 4.4 3.8-1.5 5-4.1 8.2-3.8 5.3.4 10 7.1 10.9 13.5.1.7 1.2 10-4.7 13.8-3.8 2.5-8.8 1.5-9.2 1.4-2.9-.6-3.4-1.9-5.5-2-1-.1-3.8.5-9.4 6.5-9.6 10.2-12.2 25-12.9 30.9 1.7-2.8 3.3-5.7 5-8.5-1.3 4.4-2.7 11.9-1.5 20.9.5 3.3 2.6 18.9 14.8 29.3 16.7 14.1 44.9 12.5 60.1-2.2 10.3-9.9 11.9-23 12.5-28.1 2.4-18.8-7.3-20.5-13.9-55.8-1.9-10.3-3.9-20.3-8.3-36-1.1-4-2.8-8.6-5.6-14.3-6.3-13.1-12.3-25.2-25.3-32.7-21.4-12.4-54.7-8-62.6 8.5zM658.9 188.8c-1.6 3.7-3.6 9.7-3.9 17.3-.3 7.2-.7 15.6 4.8 22.1 6.3 7.5 19.9 11.5 30.3 4.8 7.4-4.8 11.3-14 9.9-23.3-.6-2.9-1.2-5.8-1.7-8.6-4.2.5-10.1.6-16.9-.9-11-2.6-18.6-8.1-22.5-11.4z" fill="#342E52"/>
      <path d="M687.2 116.8c4.8 8 8.4 15.2 11.1 21 5.5 12 8.3 18.2 8.1 24.7-.2 6.1-2 7.4-5.5 21.8-1.6 6.7-2.7 12.2-3.3 15.9 2-2.1 3.9-4.2 5.9-6.3-.5 3.9-.9 10.3 1.1 17.7.4 1.5 6.1 21.1 25.1 29.5 17.2 7.6 38.9 3.2 40.2-2.9.6-3.2-4.5-5.1-10.7-11.1-16.1-15.3-25.9-44.1-17.7-64.1 5-12.1 13-12.4 14.7-24 2.1-13.8-7.5-25.8-11.1-30.2-20.7-26-58.8-24.6-65.3-24.3-2 1.8-3.9 3.7-5.9 5.5 1.1 3.8 2.7 8 4.8 12.5 2.7 5.7 5.7 10.5 8.5 14.3z" fill="#606060" opacity=".06"/>
      <path d="M636.8 155c5-1.4 9.1-1.9 12-2.2 4.7-.4 6.1.1 6.5.9.5 1-.3 2.4-1.9 4.9-1.1 1.9-2.2 3.3-3.1 4.3-.5-2-1-3.9-1.5-5.9-4-.6-8-1.3-12-2z" fill="#606060" opacity=".13"/>
      <path d="M646.6 125c-3.9 10.4-7.8 20.7-11.9 31-.3.8.5 2 1.4 1.9 4.1-.5 8.1-.7 12.2-.8 1.9 0 1.9-3 0-3-4.1 0-8.2.3-12.2.8.5.6 1 1.3 1.4 1.9 4-10.3 8-20.6 11.9-31 .8-1.8-2.1-2.6-2.8-.8z" fill="#161616"/>
      <path d="M647.8 156.3c.8 13.1 5.2 28.5 15.5 37.3 9.5 8.1 22.7 9.8 34.7 9 1.9-.1 1.9-3.1 0-3-11.2.7-23.7-.6-32.6-8.1-9.8-8.2-13.9-22.9-14.6-35.2-.1-1.9-3.1-1.9-3 0z" fill="#161616"/>
      <path d="M696.7 202.3c2.3 4.6 3.2 9.6 3 14.7-.1 1.9 2.9 1.9 3 0 .3-5.7-.9-11.1-3.4-16.2-.8-1.8-3.4-.2-2.6 1.5zM723.6 133.3c6.7-9.5 16.7 4 16.6 11-.1 8.7-9 15-16.7 9.8-1.6-1.1-3.1 1.5-1.5 2.6 10.6 7.3 22.7-3.3 21-14.9-1.4-9.7-14.3-20.9-22-10-1.1 1.6 1.5 3.1 2.6 1.5zM664.8 120.6c-.1 1.9 0 3.9.3 5.8.2 1.6.4 3.6 1.2 5 1.1 1.8 3.9 1.1 3.4-1.1-.5-1.9-3.3-1.1-2.9.8v.2c.1-.5.3-1 .4-1.5.1-.1.2-.1.3-.2.5.1 1 .3 1.5.4-.5-.4-.8-3.2-.9-4.2-.2-1.7-.3-3.5-.2-5.2-.1-1.9-3.1-1.9-3.1 0z" fill="#161616"/>
      <path d="M665.6 121.7c1.3 2.9 1.7 6.1 1.5 9.3-.1 1.9 2.9 1.9 3 0 .3-3.8-.4-7.3-1.9-10.8-.7-1.8-3.3-.3-2.6 1.5zM661.1 112.2c4.4-7 12.4-1.8 15 3.7.8 1.7 3.4.2 2.6-1.5-3.6-7.7-14.7-12.5-20.1-3.7-1.1 1.7 1.5 3.2 2.5 1.5zM652.1 170.8c6 2 12.6-.6 15.7-6.1.9-1.7-1.6-3.2-2.6-1.5-2.5 4.4-7.6 6.3-12.3 4.7-1.9-.6-2.7 2.3-.8 2.9z" fill="#161616"/>
      <path d="M663.5 164.2c1.9-.2 3.8 1.3 3.9 3.3.1 1.9 3.1 1.9 3 0-.2-3.5-3.3-6.6-6.9-6.3-1.9.1-1.9 3.1 0 3zM670.7 141.6c1.9 0 1.9-3 0-3-2 0-2 3 0 3zM678.6 135.6c1.9 0 1.9-3 0-3s-1.9 3 0 3zM675.9 140.5v.4c0 .8.7 1.5 1.5 1.5s1.5-.7 1.5-1.5v-.4c0-.8-.7-1.5-1.5-1.5s-1.5.6-1.5 1.5z" fill="#161616"/>
    </g>
    <g>
      <path d="M316.4 924.8c-.9 24.9-1.9 49.8-2.8 74.7 77.8 13.2 117.8 15.7 120.1 7.6 2-7.1-24.5-22.2-79.5-45.4 6.3-50.5 5.4-77-2.8-79.5-6.8-2-18.4 12.2-35 42.6z" fill="#000"/>
      <path d="M395.8 491.6v36.9c.1 61.1.8 88 .9 110.7.4 83.2-7.2 151.6-11.4 188.3-3.9 34.2-8.1 62.5-11.4 82.3-3.4 3.5-9.4 8.6-18 11.9-4.1 1.6-7.4 2.2-9.7 2.7-3.6.7-17.6 3-34.7-2.2-4.4-1.3-10.4-3.6-17-7.6 4.9-27.7 10.8-64.1 16.1-106.9 4.3-35.1 11.3-99.3 14.2-180.7 1.4-41.2 2-91 0-147.6 23.7 4 47.4 8.1 71 12.2z" fill="#FFF"/>
      <path d="M327.7 577.7c5-12.5 11.4-26.4 15.1-25.5 5.5 1.3 2.2 34 0 58.7-5 56-5.7 112.3-9.5 168.4-2.3 34.9-4.9 84.4-5.7 144.7-11-2.8-22.1-5.7-33.1-8.5 11.2-63.7 20.5-132.9 26.5-207.2 3.7-45.4 5.8-89 6.7-130.6z" fill="#606060" opacity=".09"/>
      <path d="M393.5 502.9c4.5 105.7 1.3 211.7-9.5 316.9-3.1 29.9-6.8 59.8-11.1 89.6-.3 1.9 2.6 2.7 2.9.8 15.1-104.8 22.8-210.7 22.6-316.6 0-30.2-.7-60.4-2-90.6 0-2-3-2.1-2.9-.1zM326.7 578.6c-3.3 87.4-10.5 174.7-21.6 261.4-3.2 25.3-6.8 50.6-10.7 75.8-.3 1.9 2.6 2.7 2.9.8 13.5-87.2 23.1-175 28.7-263.1 1.6-24.9 2.8-49.9 3.8-74.9 0-1.9-3-1.9-3.1 0z" fill="#161616"/>
      <path d="M295.7 918.2c13.7 6.2 28.6 9.1 43.6 7.9 12.5-1 27.2-4 34.9-14.8 1.1-1.6-1.5-3.1-2.6-1.5-7.6 10.6-23.6 13-35.7 13.5-13.3.5-26.5-2.2-38.7-7.7-1.7-.8-3.2 1.8-1.5 2.6z" fill="#161616"/>
      <path d="M204.8 898.3c-9.5 30.3-18.9 60.5-28.4 90.8 74.8 22 113.6 29.6 116.4 22.7 2.3-5.7-20.4-21.5-68.1-47.3 24.4-32.4 30.8-61.6 20.8-70.9-10.2-9.4-35.9 2.4-40.7 4.7z" fill="#000"/>
      <path d="M256.8 496.3c-.5 2.2-1.3 9.7-2.8 24.6-2.4 23.2-3.7 40.4-3.8 41.6-5 65.8-14.2 123-14.2 123-10.2 63.3-24.3 112.9-34.1 146.6-7.2 25-13.9 45.8-18.9 60.5 8.3 10.4 16.8 16.9 22.7 20.8 9 5.9 19.7 13 34.1 12.3 5.7-.3 10.2-1.7 13.2-2.8 4.3-12.5 11.7-34.2 19.9-61.5 15.1-50.3 27.6-107.4 52-219.5 1.1-5 15.1-69.5 16.1-73.8 8.8-10.4 17.7-20.8 26.5-31.2 14.9-34.8 14.4-70.2-2.8-85.1-28.8-24.9-99.8 10.4-107.9 44.5z" fill="#FFF"/>
      <path d="M255.8 516.2c1.2 8.7 2.7 21.8 3.8 37.8 4.8 74.1-7 126.5-18 185.4C234 780 223.7 840 214.2 916.3c-10.4-7.9-20.8-15.8-31.2-23.6 5.3-15.7 12.9-38.8 20.8-67.2 25.6-91.6 35.6-166.5 42.6-220.4 2.8-22.2 6.4-52.5 9.4-88.9z" fill="#606060" opacity=".11"/>
      <path d="M252.5 503c-3.4 102.9-18.6 205.4-45.3 304.8-7.5 28.1-16 55.9-25.4 83.5-.6 1.8 2.3 2.6 2.9.8 33.1-97.8 55-199.3 65.1-302 2.8-29 4.7-58 5.7-87.1.1-2-2.9-2-3 0zM362.5 539.9L340 568.1c-1.2 1.5.9 3.6 2.1 2.1l22.5-28.2c1.2-1.5-.9-3.6-2.1-2.1z" fill="#161616"/>
      <path d="M340.3 566.6c-18.2 93.6-37.7 187-64.2 278.7-7.5 26-15.6 51.8-24.3 77.4-.6 1.8 2.3 2.6 2.9.8 30.7-90.3 53.1-183.1 72.5-276.5 5.5-26.5 10.8-53.1 15.9-79.6.4-1.8-2.5-2.7-2.8-.8z" fill="#161616"/>
      <path d="M182.5 893.3c4.1 5.8 9.9 10.1 15.4 14.6 5.2 4.2 10.6 8.2 16.4 11.6 11.5 6.7 26.2 11.4 39.2 6.3 1.8-.7 1-3.6-.8-2.9-12.8 5.1-27.1 0-38.3-6.8-5.5-3.3-10.7-7.2-15.7-11.3-4.8-3.9-10-7.8-13.7-12.9-1-1.6-3.6-.1-2.5 1.4z" fill="#161616"/>
      <g>
        <path d="M372.7 184.1c5.1-1.1 11.9 7.5 15.6 12.1 5.7 7.1 8.2 14.2 9.8 19.6 5.3 17.6 6.4 35.1 6.3 48.4.9 6 3.1 15.3 8.6 25.4 1.9 3.4 10.8 18.9 30 30 12 6.9 23.4 9.4 31.1 10.4l-4.5 4.5c4.3.4 7.6 1.3 9.9 2 5.1 1.6 7.8 2.4 8.7 2.8 1.7.7 3.1 1.4 4 1.9-.6.7-1.9 2.6-1.9 5.3 0 3 1.6 6 4.1 7.4 2.4 1.4 5.9.7 12.7-.7 1.3-.3 2.4-.5 3.2-.7 1.6-.2 4.2-.2 6.8 1 4.1 1.9 5.7 5.8 7.9 10.7 1.6 3.6 3.8 8.5 2.8 14.6-.3 1.8-.9 5.2-3.6 7.9-.6.6-1 .9-5.9 3.6-5.7 3.1-6.8 3.5-7.9 4-3.6 1.3-5.4 2-7.5 1.2-2-.7-4-2.7-4-4.7.1-2.4 3.1-2.8 3.2-4.7.1-2.4-4.2-2.9-9.1-7.5-3.4-3.2-2.8-4.2-6.3-7.1-1.3-1.1-3.7-3-7.1-4.3-1.6-.7-2.6-.8-5.1-2-3.3-1.5-4.1-2.3-4.6-3-1-1.5-.4-2.3-1.3-3.3-1.2-1.2-3.1-.8-5.4-.8-2 0-4.7-.4-8-2-1.3 9.2-2.6 18.4-4 27.7-5.1-1.2-12.5-3.4-20.5-7.9-10.9-6.2-22.4-16.3-37.5-45-11.2-21.2-25.4-48.3-28.8-87.3-2.3-24.2-.8-57.5 8.3-59.5z" fill="#FFF"/>
        <path d="M373.7 185c.2 6.2.8 14.2 2 23.6.6 4.5 1.8 12.5 4.5 24.6 4.7 20.5 10.4 37.6 14.1 48.2 12.4 35 18.7 52.9 31.4 64.4 9.5 8.6 19.3 13.4 25.9 16l.3 20.7c-2.9.2-7.3.1-12.2-1.5-7.6-2.4-12.3-7-15.4-10.2-13.2-13.4-19.8-20.1-26.2-30.6-26.3-42.9-30-91.4-30-91.4-1-14.9-.9-37.2 5.6-63.8z" fill="#606060" opacity=".09"/>
        <path d="M471.3 335.3c.6.5-1.9 3.3-3.5 7.6-2.2 5.8-1.7 11.4-.9 15.4-3.8-.8-7.6-1.6-11.4-2.3.8-3.4 2.5-8.7 6.7-13.7 3.6-4.3 8.4-7.7 9.1-7z" fill="#606060" opacity=".08"/>
        <path d="M504.2 376.9c4-2.5 4.4-3.1 6.1-4.1 2.6-1.5 7.8-3.7 16.9-2.6.4 2.8.8 8.5-2 13.1-1 1.7-2.7 3.6-2.9 3.8-.9 1.1-2.7 2.9-5.2 4.7-1.9 1.3-4.9 3.3-9 3.5-2.7.1-7-.4-7.6-2.3-.5-1.8 2.7-3.2 2.3-5.5-.4-2.8-5.5-3.1-5.5-5.2-.1-1.5 2-2.3 6.9-5.4z" fill="#606060" opacity=".09"/>
        <path d="M368.9 184.2c7 4 14.2 8 19.8 14 6.5 6.9 8.8 15.7 10.2 24.8 3.1 19.8 4.5 39.9 4.8 60 0 1.9 3 1.9 3 0-.3-21.3-1.6-43-5.4-64-1.5-8.3-4.2-16-9.9-22.3-5.8-6.4-13.5-10.8-20.9-15-1.8-1-3.3 1.6-1.6 2.5z" fill="#161616"/>
        <path d="M403.2 246c-2.6 37.9 21.8 72.6 58.3 83.1 1.9.5 2.7-2.4.8-2.9-35.3-10.2-58.6-43.6-56.1-80.2.2-1.9-2.8-1.9-3 0z" fill="#161616"/>
        <path d="M460.6 329c4.6.4 8.8 1.4 13.1 3.2-.1-.9-.2-1.8-.4-2.7-18.6 10.6-23.9 30.5-22.1 50.7.2 1.9 3.2 1.9 3 0-1.7-19.2 2.9-38 20.6-48.1 1.2-.7.8-2.3-.4-2.7-4.5-1.9-9.1-3-13.9-3.4-1.8-.2-1.8 2.8.1 3z" fill="#161616"/>
        <path d="M393.5 335.7c6.3 11.9 14.6 22.6 24.6 31.6 9.5 8.5 21 17.2 34.4 16.7 1.9-.1 1.9-3.1 0-3-13.4.5-25.4-9.3-34.6-18-8.8-8.3-16.1-18.1-21.8-28.8-.9-1.7-3.5-.2-2.6 1.5zM470.6 335c7.6 2.1 15.2 4.2 22.7 6.3 1.9.5 2.7-2.4.8-2.9-7.6-2.1-15.2-4.2-22.7-6.3-1.9-.5-2.7 2.4-.8 2.9zM511 352.9c6.6.6 11.2 5.9 13.1 12 .9 2.9 1.2 6 1.3 9 0 1-.1 13.3-3 11.2-1.6-1.1-3.1 1.5-1.5 2.6 9 6.3 7.6-15.4 7.2-18.6-1.2-9.4-7-18.4-17.1-19.3-2-.1-1.9 2.9 0 3.1z" fill="#161616"/>
        <path d="M518.7 372.4c1.1 6.3 2.1 13.5-3.6 17.8-1.5 1.2.6 3.3 2.1 2.1 6.5-5.1 5.6-13.5 4.4-20.8-.3-1.8-3.2-1-2.9.9z" fill="#161616"/>
        <path d="M511.2 377c1.1 5.3 2.3 12.2-3.1 15.6-1.6 1-.1 3.6 1.5 2.6 6.7-4.2 5.9-12.3 4.5-19-.4-1.8-3.3-1-2.9.8z" fill="#161616"/>
        <path d="M504.6 378.3c1.7 5.6 1.2 11.2-1.5 16.3-.9 1.7 1.7 3.2 2.6 1.5 3.1-5.8 3.7-12.3 1.8-18.6-.5-1.8-3.4-1-2.9.8zM455 358c4.2 1 8.5 2 12.7 3 1.9.4 2.7-2.5.8-2.9-4.2-1-8.5-2-12.7-3-1.8-.5-2.6 2.4-.8 2.9z" fill="#161616"/>
        <path d="M453.3 383.8c5.6-7 9.4-14.8 11.3-23.5.4-1.9-2.5-2.7-2.9-.8-1.8 8.2-5.3 15.6-10.5 22.2-1.2 1.4.9 3.6 2.1 2.1z" fill="#161616"/>
        <path d="M453.1 358.1c.6 6.2.4 12.3-.7 18.4-.4 1.9 2.3 2.7 2.9.8 1.9-6.2 4-12.4 6.2-18.6.6-1.5-1.5-2.3-2.5-1.5-.6 0-1.2-.1-1.8-.1-.1.9-.2 1.8-.4 2.7.9-.2 3-.1 3.3 1.1.2.6-1.5 2.8-1.7 3.3-1 2-2.1 3.9-3.1 5.9-.9 1.7 1.5 3 2.6 1.5 3-4 4.3-8.6 4.1-13.6-.1-1.5-2-2-2.8-.8-3 4.6-4.9 9.6-5.7 15.1 1 .1 2 .3 2.9.4 0-4 .7-7.8 2.3-11.5-1-.1-2-.3-2.9-.4-.4 3.4-1.1 6.8-1.9 10.1-.4 1.9 2.4 2.7 2.9.8.9-3.6 1.5-7.3 2-10.9.2-1.8-2.4-1.8-2.9-.4-1.7 4-2.4 8-2.4 12.3 0 1.6 2.7 2.1 2.9.4.7-5.2 2.5-9.9 5.4-14.3-.9-.3-1.9-.5-2.8-.8.2 4.5-1.1 8.5-3.7 12.1.9.5 1.7 1 2.6 1.5 1.4-2.6 2.8-5.2 4.1-7.9.7-1.4 1.6-2.6 1.3-4.2-.7-3.5-4.6-3.3-7.3-2.6-1.4.4-1.3 2-.4 2.7 1.8 1.4 3.8 1.1 5.5-.4-.8-.5-1.7-1-2.5-1.5-2.2 6.1-4.3 12.3-6.2 18.6 1 .3 1.9.5 2.9.8 1.2-6.4 1.5-12.8.8-19.2-.2-1.7-3.2-1.7-3 .2z" fill="#161616"/>
      </g>
      <g>
        <path d="M264.5 190.3c7.5 30.7 13.8 65.9 17 105.1 6.7 81.5-2.6 151.3-14.2 203.4 11.4 5.2 32.7 13.1 60.2 12.5 35.3-.8 60.8-15.2 71.6-22.2-2.8-43.2-7.4-89.2-14.2-137.5-9.1-64.4-21-123.9-34.1-177.9-4.3-2.5-25.3-13.8-51.1-6.8-19.9 5.4-31.4 18.5-35.2 23.4z" fill="#8989C0"/>
        <path d="M291.8 158.4c-1.5.1-3.7.3-6.3 1.1-6.8 2.1-10.8 6.6-13.1 9.1-4.4 4.7-10.7 10.8-20.5 18.8-4.8 36.7-5.4 64.3-5.1 83 .1 7.7.6 21.1.6 42.1 0 13.5 0 28.4-.6 41.5-1.1 25.4-4.5 44.4-11.4 81.3-3.1 16.6-7.5 38.9-13.6 65.4 10.8 6.1 20.3 10 27.3 12.5 13.4 4.7 25.6 8.9 40.9 6.8 5.1-.7 9.3-1.9 11.9-2.8 1.9-10.2 4.5-25.5 6.8-44.3 7.4-60 5.9-107.3 4.5-143.2-.7-18.8-1.7-44.4-5.7-78.4-4.1-37-10.2-68.4-15.7-92.9zM321.3 164.7c3.4 2.2 8.2 5.8 12.5 11.4 9.9 13 10.1 28 10.2 34.1.8 31.7 8.7 62.8 11.4 94.3 1.7 19.7.8 7 6.3 67.1 4.8 52 5.7 64.1 6.3 71.6 1.4 18.4 2.8 41.4 4 68.2 5 .4 10.8.6 17 0 8.2-.7 16.3-1.4 25-6.3 5.7-3.2 9.8-7.1 12.5-10.2-.7-11.8-2.1-30.3-4.5-52.8-2.7-24.7-8-65.9-32.4-180.7-4.1-19.2-9.8-45.9-17-77.9-11.4-6.6-20.1-12.3-26.1-16.5-6.9-4.8-12.9-9.3-18.8-7.4-3.2.9-5.2 3.2-6.4 5.1z" fill="#FFF"/>
        <path d="M246.9 264.1c1.1 6.8 2.9 17.7 4.5 31.3 7.7 62.2 4.1 95.4 8 167.6.7 12.6 1.9 31.5 4 54.6-5.3-1.8-10.8-3.9-16.5-6.3-9.5-4-18-8.3-25.6-12.5 2.9-10.7 6.6-25.3 10.2-42.6 9.6-45.9 13-82.3 14.2-98.9 2-26.1 3-57.5 1.2-93.2z" fill="#606060" opacity=".08"/>
        <path d="M323 166.4c-4.8 2 10.4 39.5 18.2 94.9 1.8 13 3.2 26.7 4.5 58.5 2.9 69.5 2.2 141.6 1.1 189.2 8-1.9 15.9-3.8 23.9-5.7-.2-8.3-.5-20.5-1.1-35.2-3.3-79.9-10.9-142.1-17-192.1-2.8-22.4-6.7-52-11.9-86.9-11.8-20-16-23.4-17.7-22.7z" fill="#606060" opacity=".1"/>
        <path d="M360.5 188.5c.6 4.4 1.4 10.6 2.3 18.2 2.6 23 3.7 40.6 4.5 55.1 1.1 19.9 1.6 35.3 1.7 39.5v.8c1.2 44.7 7.2 209.3 4.8 209.500172C372.6 511.7 368.5 468.2 358.2 324.3c.2-10.4.4-20.8.6-31.3-.4-39.8-.3-67.6.9-76.2.3-2.1 1.1-7-1.2-12.1-1.8-4.1-3.6-3.9-5.5-8.4-2.1-5.1-1.8-10.3-1.7-12.7.2-3.8.8-4.3.6-6.9-.4-4.1-2.4-7.2-4-9.2 3.8 2.4 7.7 4.8 11.5 7.2.4 4.7.8 9.3 1.1 13.8z" fill="#606060" opacity=".14"/>
        <path d="M294 162c-2-8.3-13.7-1.6-17.3 1.3-9.3 7.5-18.2 15.7-26.9 23.8-1.4 1.3.7 3.4 2.1 2.1 5.6-5.3 11.3-10.4 17.2-15.5 2.3-2 20.3-18.5 22.1-10.9.4 1.9 3.2 1.1 2.8-.8zM245 267.2c2.1 40.2 1.2 80.5-2.9 120.6-.2 1.9 2.8 1.9 3 0 4-40.1 5-80.4 2.9-120.6-.1-1.9-3.1-1.9-3 0z" fill="#161616"/>
        <path d="M290 157.2c-9.2 2.8-15.2 12.3-14.1 21.9.7 5.9 4.7 9.6 7.6 14.5 4.3 7 .1 16.3-.2 24.1-.5 16.3 4.3 32.2 8.7 47.7 4.6 16 9.5 31.8 13.4 48 4.6 18.9 7.7 38.2 7.4 57.7 0 1.9 3 1.9 3 0 .5-39.5-12.7-77-23.2-114.6-2.8-9.9-5.3-20-6.1-30.3-.4-5.5-.4-11 .5-16.4.6-3.9 2.2-7.8 1.5-11.8-1.3-7.5-8.9-11.8-9.8-19.4-.9-8 4.2-16 11.9-18.4 2.1-.7 1.3-3.6-.6-3z" fill="#161616"/>
        <path d="M290.3 161.1c18.3 89.2 26.1 180.6 20.3 271.5-1.7 26.1-4.4 52.1-8.4 78-.3 1.9 2.6 2.7 2.9.8 13.8-91 13.3-183.7 1.1-274.8-3.4-25.6-7.8-51.1-13-76.4-.4-1.8-3.3-1-2.9.9zM324.6 161.4c4.1-3.2 12.3 1.2 15.9 3.7 4.7 3.2 8.2 7.7 10.4 13 .7 1.8 3.6 1 2.9-.8-2.8-6.7-7.4-12.2-13.6-15.9-5-2.9-12.6-6.1-17.7-2.1-1.6 1.2.6 3.3 2.1 2.1zM321.3 167.7c20.4 10.7 20.7 38.6 23.3 58.5 3 22.8 5.8 45.7 8.4 68.6 5.1 45.8 9.4 91.6 12.9 137.6 2 26.2 3.7 52.5 5.1 78.8.1 1.9 3.1 1.9 3 0-5.2-96.3-14.1-192.3-26.7-287.9-2.7-20.4-3.6-47.3-24.4-58.1-1.8-1-3.3 1.6-1.6 2.5z" fill="#161616"/>
        <path d="M350.7 176.8c1.1 5.5-2 10.9-.7 16.4 1.2 5.1 5.7 8.6 7.5 13.5 2.1 5.8 1.6 12.3 1.5 18.3-.1 7-.2 13.9-.3 20.9-.5 26.8-1.5 53.6-2.9 80.4-.1 1.9 2.9 1.9 3 0 1.5-27.5 2.5-54.9 3-82.4.1-6.6.2-13.2.3-19.9.1-5.5.3-11.2-1.2-16.6-1.4-4.9-4.9-8.1-7.1-12.6-2.8-5.9 1-12.6-.2-18.8-.4-1.9-3.3-1.1-2.9.8zM346.7 169.9c8.9 4.1 17 9.5 24.2 16.1 1.4 1.3 3.5-.8 2.1-2.1-7.4-6.8-15.7-12.4-24.8-16.6-1.8-.8-3.3 1.8-1.5 2.6zM393.3 285.1c15.3 69.3 25.9 139.5 31.6 210.2.2 1.9 3.2 1.9 3 0-5.7-71-16.3-141.5-31.7-211-.5-1.8-3.4-1-2.9.8z" fill="#161616"/>
        <path d="M372.5 512.5c10.7 3 21.5.9 31.8-2.6 8.3-2.8 17.9-5.4 23.2-12.9 1.1-1.6-1.5-3.1-2.6-1.5-5 7-15.3 9.6-23.1 12.1-9.3 3-18.9 4.6-28.5 2-1.9-.5-2.7 2.4-.8 2.9zM242.9 377.1c-5.7 40.3-13.2 80.4-22.5 120-.4 1.9 2.5 2.7 2.9.8 9.3-39.6 16.8-79.7 22.5-120 .3-1.9-2.6-2.7-2.9-.8z" fill="#161616"/>
        <path d="M221.1 500.7c8.4 4.5 16.9 8.6 25.7 12.2 8.6 3.5 17.6 7.3 26.8 8.6 7.5 1.1 16.6 1 24.1-.7 6.9-1.5 5.8-8 9-13 1-1.6-1.6-3.1-2.6-1.5-1.3 2.1-1.8 4.3-2.5 6.7-1.7 5.3-5.4 5-10.1 5.5-8.3.7-16.3.8-24.4-1.5-15.4-4.4-30.4-11.3-44.4-18.9-1.8-.9-3.3 1.7-1.6 2.6z" fill="#161616"/>
      </g>
      <g>
        <path d="M258.2 183c-6.3 4.2-14.8 10.5-24.1 19.1-5.8 5.3-10.6 10.4-18.1 19.1-17.4 20.1-26.3 30.4-36.1 46.2-11.3 18.1-16.9 27.2-19.1 41.1-2.6 16.8 1 31.4 3 39.6 2.9 11.7 6.7 19.9 10.5 28.1 4.6 9.8 12.3 21.2 27.6 43.7 13.3 19.6 18.6 26.5 28.6 32.6 5.7 3.4 10.9 5.4 14.6 6.5 2.2-5.7 4.3-11.4 6.5-17.1 1.6 1.7 3.7 4 6 7 4 5.2 5 7.6 6.5 7.5 2.4-.1 3.9-5.9 5.5-12 7.5-29.2 7.4-33.6 5-35.1-1.7-1.1-3 .5-7.5 0-5-.5-8.9-2.9-11.5-5 2.2-6.6 1.2-10.6 0-13-2.4-4.7-6.5-4.6-12.5-10.5-1.3-1.3-1.9-2.1-8-11.5-6.5-10-9.7-15-10.5-16.6-2.3-4.4-5.3-11.1-7.5-20.1 2-7 4.9-14.9 9-23.1 11.8-23.5 28.1-38.7 39.6-47.7 2.1-9.3 4.1-23.3 2.5-40.1-1.6-16.7-6.2-30-10-38.7z" fill="#FFF"/>
        <path d="M254.2 186.5c-3.4 3.8-8.3 9.5-14 16.6-20.5 25.3-35.4 43.6-44.7 67.2-1.9 4.9-10 26.3-9.5 55.2.7 47.7 24 81.1 33.1 93.8 10.9 15.2 22.2 25.9 30.1 32.6-1.3 2.3-2.7 4.7-4 7-4.2-2.2-10.5-5.8-17.6-11-24.2-18.1-35.8-40.4-46.7-61.7-11.9-23.3-17.8-35-19.6-50.7-2.4-21.6 1.6-47.7 14.6-63.7 1-1.3 1.9-2.2 5-6 12.4-15.1 20.4-26.7 22.1-29.1 6.3-8.9 19.7-23.8 51.2-50.2z" fill="#606060" opacity=".08"/>
        <path d="M252.2 184c-17.5 15.7-33.9 32.6-48.9 50.7-14 16.9-28.5 34.8-37.4 55-9.1 20.6-8.6 41.4-1.4 62.5 7 20.6 17.3 40.3 29.4 58.4 6.7 10.1 14.2 19.7 22.2 28.7 7.5 8.4 15.5 16.5 26.3 20.4 1.8.6 2.6-2.3.8-2.9-10.3-3.7-17.9-11.6-25-19.6-7.1-8-13.7-16.5-19.8-25.3-11.8-17.1-21.7-35.7-29.1-55.2-4-10.6-7.2-21.8-7.6-33.2-.3-11.2 2.3-22.1 6.8-32.3 8.4-19.2 22-36.2 35.2-52.3 15.5-18.9 32.5-36.5 50.7-52.8 1.4-1.3-.8-3.4-2.2-2.1z" fill="#161616"/>
        <path d="M261.6 265c-22.7 16.7-39 40.8-45.8 68.2-.5 1.9 2.4 2.7 2.9.8 6.6-26.6 22.3-50.2 44.4-66.4 1.6-1.2.1-3.8-1.5-2.6z" fill="#161616"/>
        <path d="M213 326.2c6.3 26.3 21.1 50 41.9 67.3 1.5 1.2 3.6-.9 2.1-2.1-20.5-17-34.9-40.1-41.2-66-.4-1.9-3.3-1.1-2.8.8z" fill="#161616"/>
        <path d="M254.7 391.5c.5 11.4-.1 22.8-1.8 34-.8 5.2-1.8 10.4-3.1 15.6-.6 2.4-1.2 4.8-1.9 7.2-.4 1.4-1.9 8.9-3.6 9.2.6.2 1.1.5 1.7.7-.1-.2-.2-.3-.3-.5-1-1.6-3.6-.1-2.6 1.5.1.2.2.3.3.5.4.6 1 .8 1.7.7 3.7-.6 4.3-6.6 5.2-9.5 2-6.6 3.5-13.2 4.7-20 2.3-13 3.1-26.2 2.6-39.4 0-1.9-3-2-2.9 0z" fill="#161616"/>
        <path d="M255.6 404.8c4.7 3.8 10.2 5.8 16.3 5.9 1.9 0 1.9-3 0-3-5.2-.1-10.1-1.7-14.2-5-1.5-1.2-3.6.9-2.1 2.1zM251.4 445.2c3.2.4 4.9 4.2 6.6 6.6 1.6 2.4 3.5 4.6 6.3 5.5 1.8.6 2.6-2.3.8-2.9-3.3-1.1-4.9-4.8-6.8-7.5-1.8-2.5-3.8-4.3-6.9-4.7-1.9-.2-1.9 2.8 0 3z" fill="#161616"/>
        <path d="M270 397.3c4.9 11.4 3.1 23.8.8 35.5-2.2 11.4-4.8 22-11.7 31.6-1.1 1.6 1.5 3.1 2.6 1.5 7.6-10.7 10.3-23 12.6-35.8 2.1-11.6 3-23.3-1.8-34.4-.6-1.7-3.2-.2-2.5 1.6z" fill="#161616"/>
      </g>
      <g>
        <path d="M283 79.1c-1.6-.4-5.5-1.2-9.8.4-1 .4-8.3 3.1-9.3 10.2-.9 5.8 3 11 7.2 13.2 1.8.9 3.5 1.2 4.7 1.3.7 2.3 1.5 5.9 2.1 10.2 1 7.4-.1 7.7.8 11.9 2.3 9.8 10.3 15.9 10.6 16.1 3.4 2.5 4.6 2.1 5.9 4.2 2.2 3.4 1.3 7.8 0 14.4-.7 3.5-1.5 6.3-2.1 8.1 1.2 1.5 4.8 5.5 11 7.2 6.2 1.7 11.4.2 13.2-.4 1.7-6.9 3.4-13.9 5.1-20.8 3.7-.7 9.1-2.3 14.9-5.5 2-1.1 6-3.4 9.8-7.2 5.5-5.6 7.9-11.8 9.8-18.3 6.3-21.4 3.6-36.8 6.4-54 .2-1.3.9-5.7 1.4-11.6.4-4.7.5-8.5.5-10.6-2.5-2-18.7-14.5-40.3-10.6-20 3.6-30.6 18.8-33.4 22.8-5 7.2-7.3 14.3-8.5 19z" fill="#FFF"/>
        <path d="M281.2 104.4c.1 3.3 0 6.9-.4 10.9-.5 5.2-1.5 9.9-2.5 13.8-1.4 1.7-4.2 4.5-8.5 6.2-9 3.4-17.2-1-18.5-1.8-.4-4.2-1.1-10.4-2.6-17.8-3.3-16.5-7.6-25.6-9.1-31.3-2.9-10.8-.9-27.8 21.8-54.8-6.5-.2-8-1.2-8.3-2.2-.8-3.1 11.5-9.2 21.3-12.6 13.1-4.6 23.6-5 23.5-6.5-.1-1.6-11.7-1.6-11.8-3-.1-1.6 13.1-5.4 27.4-4.4 3.4.3 20.3 1.8 36.6 14.4 5.3 4.1 14.6 11.5 18.7 23.9 1.3 3.9 4.4 13.3-.4 19.2-1.3 1.6-2.8 2.5-3.9 3 .2-2 .2-5.6-1.7-9.1-2.6-4.5-7-6.3-11.3-7.8-2.1-.8-8.7-3-18.7-2.6-5.7.2-15.9.6-25.7 7-.6.4.1-.1-11.3 10.4-7.8 7.2-11.3 10.3-11.3 14.8 0 2.4 1.1 4.2 0 5.2-1.5 1.5-4.6-1.2-8.7-.9-5.1.4-11.3 5.3-11.8 11.8-.5 7.2 6.7 11.7 7.4 12.2 4 2.4 8.2 2.2 9.8 2z" fill="#342E52"/>
        <path d="M314.4 44.7c-2.4 4-5.5 9.9-8.4 17.2-4 10-10.4 25.8-9.6 45.9.9 20.6 9 36.4 14.5 45.2l-6.9 23.7c-5.9-1.2-8.2-3.4-9.2-5.4-1.6-3.1-.1-6.1.4-12.6.4-5 0-9.1-.4-11.9-4.2-3.6-8.7-8.3-13-14.2-1.4-2-2.7-3.9-3.8-5.7-.4 1.3-1.3 3.2-3.1 5-3.1 3.2-7 3.8-9.6 4.2-6.2 1-11.4-.7-14.2-1.9-.4-4.6-1-9.6-1.9-14.9-1.5-8.5-3.6-16.1-5.7-22.6 1.3 4.7 5.2 8.1 10 8.8 4.9.7 9.8-1.7 12.3-6.1-3.8-5.9-2.6-13.5 2.3-17.6 4-3.4 10-3.8 14.9-1.1.1-3.1.5-5.7 1.1-8 5.2-18.6 26-26.5 30.3-28z" fill="#606060" opacity=".12"/>
        <path d="M362 60.5c.2 14.7-.1 29.5-1.9 44.1-1.7 13.4-5.6 27.1-15.1 37.1-9.6 10.1-23.8 13.6-37.2 9.7-12.5-3.6-22.1-13.3-27.7-24.8-.8-1.7-3.4-.2-2.6 1.5 11.6 23.8 42.4 37.7 65.2 19.7 11-8.7 16.6-22.1 19.2-35.6 3.2-16.9 3.4-34.5 3.1-51.6 0-2.1-3-2.1-3-.1z" fill="#161616"/>
        <path d="M338.2 65.2c.9 7.4 2.1 14.7 3.6 22 .8 3.5 2.8 8.3 2.3 11.9-.5 4.4-5.6 7.1-9.6 8.5-1.8.7-1 3.6.8 2.9 5-1.8 12.7-6 12.1-12.3-.5-4.9-2.4-9.9-3.3-14.7-1.2-6.1-2.2-12.2-2.9-18.4-.2-1.8-3.2-1.8-3 .1zM324.7 73c-.3 3.3-1.1 6.5-2.3 9.6-.7 1.8 2.2 2.6 2.9.8 1.3-3.4 2-6.8 2.4-10.4.2-1.9-2.8-1.9-3 0z" fill="#161616"/>
        <path d="M324 72.1c-1.4 3.7-2 7.6-2 11.5 0 1.9 3 1.9 3 0 0-3.7.6-7.2 1.9-10.7.7-1.9-2.2-2.6-2.9-.8zM315.2 63.8c4.3-4 10.9-4.1 15.2-.1 1.4 1.3 3.5-.8 2.1-2.1-5.5-5.1-14-5.1-19.5.1-1.3 1.3.8 3.4 2.2 2.1zM347.6 63.4c3.4-2.6 8.5-1.1 10.4 2.6.9 1.7 3.5.2 2.6-1.5-2.8-5.6-10.3-6.9-15.1-3.2-1.6 1.1.6 3.2 2.1 2.1zM340.9 120.5c-7.1 4.2-15.9 1.5-19.1-6.3-.7-1.8-3.6-1-2.9.8 3.9 9.5 14.5 13.3 23.5 8 1.7-.9.1-3.5-1.5-2.5zM284.4 80c-7-9.1-20.4.2-22.2 9-2.3 11.2 9.1 20.3 19.4 14.9 1.7-.9.2-3.5-1.5-2.6-8.6 4.5-17.2-4-14.6-12.9 1.8-6.3 11.6-13 16.8-6.3 1.2 1.5 3.3-.6 2.1-2.1zM354.1 75.5c-.3 3.3-1.1 6.5-2.3 9.6-.7 1.8 2.2 2.6 2.9.8 1.3-3.4 2-6.8 2.4-10.4.2-1.9-2.8-1.9-3 0z" fill="#161616"/>
        <path d="M353.4 74.5c-1.4 3.7-2 7.6-2 11.5 0 1.9 3 1.9 3 0 0-3.7.6-7.2 1.9-10.7.6-1.8-2.3-2.6-2.9-.8zM323.8 153.3c-2.5 5.3-4.3 10.9-5.3 16.7-.3 1.9 2.6 2.7 2.9.8.9-5.6 2.6-10.9 5-16 .8-1.7-1.8-3.2-2.6-1.5z" fill="#161616"/>
        <path d="M295 148.9c0 4.1-.3 8.2-1.2 12.2-.5 2.3-1.9 4.9-1.4 7.3.8 3.9 5.5 7.1 8.9 8.5 6.3 2.7 19.2 2.4 20.1-6.5.2-1.9-2.8-1.9-3 0-.4 4-6.7 5.1-9.8 5-3.8-.1-7.7-1.5-10.5-4.1-3.9-3.6-1.6-7.8-.8-12.2.6-3.4.8-6.8.8-10.3-.2-1.9-3.2-1.9-3.1.1z" fill="#161616"/>
        <path d="M302.7 152.5c5.9 3.6 12.3 6.2 18.9 8 1.9.5 2.7-2.4.8-2.9-6.5-1.7-12.5-4.3-18.2-7.7-1.6-1-3.1 1.6-1.5 2.6z" fill="#161616"/>
        <path d="M315.6 156.8c2.3.8 4.6 1.3 7 1.6 1.9.3 2.7-2.6.8-2.9-2.4-.3-4.7-.9-7-1.6-1.9-.6-2.7 2.3-.8 2.9z" fill="#161616"/>
      </g>
      <g>
        <path d="M466.6 363.2c-2.2 1-2.2 4.4-2.3 8.7-.1 3.9-.2 7.8 2.3 9.3 1.7 1 3.9.4 5 0 .1.5.4 3.2 2.9 5 3.2 2.2 6.8.7 7 .6.6 1.1 2.1 3.2 4.7 4.7.7.4 5 2.9 9.6 1.2 3-1.1 6.3-4 5.8-6.1-.6-2.4-5.5-1.1-8.4-4.7-2.9-3.5-.7-7.8-3.5-9.9-1.8-1.3-4.3-.9-6.4-.3 0-3.4-2.2-6.1-4.7-6.4-2.1-.3-3.7 1.1-4.1 1.5-2.6-3-5.8-4.5-7.9-3.6z" fill="#FFF"/>
        <path d="M468.5 379.4c-3.7 1.2-3.4-12.4-2-14 1.7-.1 3.3-.2 5-.3.5.9.7 1.8.7 2.8.1 1.1.1 2.3 0 3.4-.1 1.5-.1 3-.2 4.5 0 .5-.1 1-.1 1.5.1 1.3-.5 2.3-2 2.9-.5-1.9-3.4-1.1-2.9.8.5 1.8 2.1 2.9 4 2.6 2.2-.3 3.3-2.2 3.7-4.3.8-3.6.8-8.1.5-11.8-.2-2.7-1.4-5.5-3.9-6.8-6.2-3.1-7.9 4.1-8.4 8.6-.5 3.8-.2 15 6.4 12.8 1.8-.4 1-3.3-.8-2.7z" fill="#161616"/>
        <path d="M476.1 385.7c-1.2-3.9-1.9-7.9-1.9-12 0-1.3-.3-3.6.5-4.8 3.4-2.3 5.5-1.7 6.1 1.7.3 1.2.4 2.4.5 3.6.2 1.9 3.2 1.9 3 0-.3-3.3-.8-6.9-3.6-9.1-2-1.5-4.9-1.9-6.9-.2-5.4 4.4-2.3 16.2-.7 21.6.7 1.9 3.6 1.1 3-.8z" fill="#161616"/>
        <path d="M472.7 386.7c2.8 2.4 6 3.2 9.6 2.2.8-.2 1.3-1.1 1-1.8-.6-2.1-.9-4.3-.8-6.5.1-1.5.5-5.9 1.8-7 3.4-2.8 7 7.2 8 9.1.9 1.7 3.5.2 2.6-1.5-1.7-3.3-5.4-14-11.2-11.1-5.4 2.7-4.6 13.1-3.4 17.8.3-.6.7-1.2 1-1.8-2.5.7-4.7.3-6.7-1.4-1.3-1.4-3.4.7-1.9 2z" fill="#161616"/>
        <path d="M491.8 392.5c-1.5-.5-3.2-.9-4.4-2-2.5-2.2-.6-5.2 2.2-6.1 3.7-1.2 7.8 0 10.6 2.6 1.4 1.3 3.5-.8 2.1-2.1-4.5-4.2-12.8-5.9-17.5-1-5.2 5.4 1.3 10.1 6.2 11.6 1.8.4 2.6-2.5.8-3z" fill="#161616"/>
        <path d="M488.6 393.3c4.4 4 10.6 1.5 13.8-2.8 4.4-6-4.7-9.8-9.1-11.6-1.8-.7-3.3 1.8-1.5 2.6 2 .9 9.8 3.7 8.5 6.9-1.3 3.3-6.8 5.3-9.5 2.9-1.5-1.5-3.6.6-2.2 2z" fill="#161616"/>
      </g>
    </g>
  </g>
</svg>