<svg xmlns="http://www.w3.org/2000/svg" viewBox="0 0 1381 1087">
  <defs/>
  <g fill-rule="nonzero" fill="none">
    <g transform="translate(152)">
      <path d="M202.2 401.9c5.6 10.2 5.7 22.3.3 32.6-.9 1.7 1.7 3.2 2.6 1.5 5.9-11.3 5.8-24.5-.3-35.6-1-1.8-3.5-.2-2.6 1.5z" fill="#DBC7BE"/>
      <path d="M205.9 402.4c3.4-1.7 7.4-3.8 11.3-2.9 5.8 1.2 6 5.9 6.4 10.7.4 6.4.1 13.2-4.1 18.4-1.2 1.5.9 3.6 2.1 2.1 5.8-7.1 6.5-18.2 4.3-26.9-2.8-10.5-14.2-7.6-21.4-4-1.8.8-.3 3.4 1.4 2.6z" fill="#DBC7BE"/>
      <path d="M205.9 436.6c5.6.7 11.2-1.5 14.9-5.8 1.2-1.5-.9-3.6-2.1-2.1-3.2 3.8-7.8 5.6-12.8 5-1.9-.3-1.9 2.7 0 2.9zM205 270.2c1.3-2.5 4.9-9.3 8.9-3 .7 1 .7 3.8.9 4.8.4 2.1 1.1 4.3 2.6 5.9 5 5.2 8.5-3.3 13.7-.5 6.6 3.5-2 10.9 3.4 15 1.3 1 2.8 1 4.3.4 1-.4 1.8-1.3 2.8-1.8 3.7-1.6 5 1.7 5.3 4.6.1.9.6 1.4 1.5 1.5 1.1.1 2.1.2 3.2.3 1.9.2 1.9-2.8 0-3-1.1-.1-2.1-.2-3.2-.3l1.5 1.5c-.3-2.7-.8-6.2-3.3-7.8-2.7-1.8-4.5-.2-7 1-1.2.6-2.2 2.6-3.9.2-.6-.9.7-3.7.9-4.7.4-1.6.6-3 .1-4.6-.8-2.5-3-4.6-5.5-5.4-3.1-1.1-4.6.2-7.4 1-2.5.7-5 .5-5.9-2.2-.3-1-.4-2.2-.5-3.2-.3-1.6-.5-3.3-1.3-4.8-4.1-7.5-11.2-1.2-13.7 3.9-.9 1.4 1.7 2.9 2.6 1.2zM224.4 260.9c2.4-2.3 4.6-3.3 7.2-1.1 2.1 1.8 1.7 2.4 2.3 4.8.4 1.4.8 2.7 2 3.7 1.5 1.3 3.2 1.3 5.1 1.1 1.8-.2 3.9-1.4 5.4.5.7.9.6 2.9.6 4 .1 3 .1 6.6 3.5 7.7 1 .3 2.1-.2 3 .1 1.2-.5 1.7-.2 1.8 1.1.4.8.6 1.6.5 2.6.5 2.3 1.4 4 3.2 5.6 1.4 1.3 3.5-.8 2.1-2.1-3-2.8-.9-6.7-3.4-9.2-2.6-2.6-6.7 1.2-7.6-3.6-.7-3.7.7-8.7-4.2-10-3.5-.9-7.2 2.6-9.1-2.2-.8-2-.5-4.2-1.9-6.1-3.3-4.3-9.4-2.1-12.7 1-1.4 1.3.8 3.5 2.2 2.1z" fill="#8989C0"/>
      <path d="M592.8 446.8c-3-.3 1.5-6.2 2.4-6.7 2.4-1.3 5.2-.6 7 1.3 3.9 4.2.6 10.4-4.7 11-1.9.2-1.9 3.2 0 3 4.4-.5 8.3-3.4 9.3-7.8 1-4.3-1.6-8.9-5.6-10.6-3.9-1.6-8.2-.1-10.5 3.4-2 3-2.5 9 2.2 9.4 1.8.2 1.8-2.8-.1-3zM572.6 440.7c-2.1-1.9.4-5.7 2.8-3.6 2.5 2.1-.9 5-3.2 3.3-1.5-1.2-3 1.4-1.5 2.6 2.1 1.6 5.3 1.1 7.2-.8 2.2-2.2 1.7-5.6-.6-7.5-2.3-1.9-5.6-1.8-7.4.7-1.6 2.2-1.4 5.4.6 7.3 1.4 1.4 3.6-.7 2.1-2zM919.5 312.2c1 18.6-8.3 36.5-24 46.5-1.6 1-.1 3.6 1.5 2.6 16.6-10.5 26.5-29.4 25.5-49.1-.1-1.9-3.1-1.9-3 0z" fill="#DBC7BE"/>
      <path d="M921.5 314.4c9.6 7 5.7 19.7.4 28-5 7.9-13.1 17.3-23.5 15.7-1.9-.3-2.7 2.6-.8 2.9 12.5 1.8 22-8.7 27.8-18.5 5.8-9.7 8-23.1-2.4-30.7-1.6-1.1-3.1 1.5-1.5 2.6zM79.7 225.4c6.3 10.4 10.1 21.9 11 34 .2 1.9 3.2 1.9 3 0-1-12.7-4.8-24.6-11.4-35.5-1.1-1.7-3.7-.2-2.6 1.5zM91.9 222.1c5.2 9.4 8.1 19.6 8.8 30.3.1 1.9 3.1 1.9 3 0-.7-11.2-3.8-21.9-9.2-31.8-.9-1.7-3.5-.2-2.6 1.5z" fill="#DBC7BE"/>
      <path d="M78.9 244.6c8.7-5.7 18.5-8.7 29-8.9 1.9 0 1.9-3 0-3-10.9.2-21.3 3.4-30.5 9.4-1.6 1-.1 3.6 1.5 2.5zM78.6 256.8c10.9-6.6 22.8-10.8 35.4-12.7 1.9-.3 1.1-3.2-.8-2.9-12.9 1.9-25 6.3-36.1 13-1.6 1-.1 3.6 1.5 2.6zM665.8 306.1c-4.6 2.3-6.4 8.3-2.5 12.2 2.1 2.1 3.9 1.5 6.4 2.3 1.6.5 3.4 1.5 3.1 3.1-.2 1.1-1.3 2-1.9 2.9-1 1.3-2.2 2.8-2.6 4.4-.4 1.9.1 3.8 1.6 5.1 2.2 1.9 5.1.7 7.5 1.9 5 2.4-4.1 12.9 3.6 14.9 1.9.5 2.7-2.4.8-2.9-3.2-.8.8-6.9 1.1-8.8.2-1.7-.1-3.4-1.4-4.6-3.4-3.3-13.4.2-8.3-8.2 1.6-2.6 4.5-5.8 2.6-9.2-.6-1.1-1.6-1.7-2.8-2-1.2-.2-3.1 0-4.3-.1-5.3-.3-5.9-6.2-1.4-8.5 1.7-.7.2-3.3-1.5-2.5zM688 322.9c-3.3 1.3-3.4 4.9-1.4 7.6 1.3 1.9 3.4 2.3 5.1 3.6 4.2 3.1.5 5.7-.2 9.3-1.2 6.2 5.4 4.1 7.3 8.1 1.6 3.3 1 7 5.1 8.5 1.8.7 2.6-2.2.8-2.9-2.9-1-2.5-6.5-4.1-8.7-.5-.8-1.2-1.3-1.9-1.9-.4-.3-1-.2-1.3-.4-.7-.1-1.2-.6-1.4-1.6-1.4-.9-1.6-1.8-.4-2.8.9-2.8 2.7-4.5.8-7.4-.7-1.1-2-1.9-3.1-2.6-.9-.6-7.4-4.6-4.4-5.8 1.7-.8.9-3.7-.9-3zM881.2 524.8c-7.3-5.2-6.1-16.1 1.8-20.1 6-3 14.2-.2 17.3 5.7 3.1 5.9.4 14.2-5.5 17.3-6.2 3.2-13.9.4-17.4-5.3-1-1.6-3.6-.1-2.6 1.5 4.5 7.5 14.9 10.8 22.6 5.8 7.3-4.8 9.6-15.9 4.2-22.9-5.3-6.8-15.9-8.4-22.6-2.9-7.8 6.3-7.2 17.8.8 23.6 1.5 1 3-1.6 1.4-2.7zM191 553.6c1.1-3.6 2.7-4.6 4.6-2.9.5.2 1 .5 1.4.7.7.2 1.6.4 2.3.3 1.5-.2 2.7-1.1 3.4-2.3 2.5-4-.3-7.9-2.8-11-1.3-1.5-3.7-3.5-3.4-5.8.4-4.4 3-2.6 5.2-2.9 1.6-.2 3-.8 3.8-2.3.8-1.3.6-3 .4-4.4-.1-.8-.4-1.7-.4-2.5-.7-2.1.3-3.4 3-3.9 1.3.9 2.4 2 3.3 3.4 1.1 1.6 3.7.1 2.6-1.5-2.7-3.8-10.7-9-12-1.1-.6 4 3.1 8.2-2.8 9.2-2.9.5-4.9.5-5.8 3.9-.8 2.8.3 5.5 2 7.7.8 1 1.7 1.9 2.5 2.8 1 1 1.7 2.1 2.2 3.4-1.2 1.2-2.3 2.4-3.5 3.6-.9.2-3.2-1.7-4.5-1.8-5.8-.4-8.9 7.4-3.1 9.9 1.9.8 3.4-1.8 1.6-2.5zM215.4 549.3c-1.6-2.6-4.1-6.6-3-9.9.8-2.5 4.2-3.6 5.7-5.6 2.3-3.1 2-7.2-.1-10.3-.4.8-.9 1.5-1.3 2.3 5.7.4 10.5-3 12.2-8.5.6-1.9-2.3-2.6-2.9-.8-1.3 4.2-4.9 6.6-9.3 6.3-1.1-.1-1.9 1.3-1.3 2.3 1.3 1.9 1.8 4.6.5 6.7-1.2 1.8-2.8 1.9-4.1 3.2-1.2 1.2-2 2.4-2.3 4.2-.8 4.1 1.4 8.2 3.4 11.6.9 1.7 3.5.2 2.5-1.5zM520.8 32.6c5.3 6.1 8.6 13.2 10 21.1.3 1.9 3.2 1.1 2.9-.8-1.5-8.4-5.2-16-10.8-22.5-1.3-1.4-3.4.7-2.1 2.2z" fill="#DBC7BE"/>
      <path d="M523.4 32.9c3.4-3.1 17-15.3 22-11.8 2.5 1.8 4.7 5.9 6.3 8.6 2 3.4 3.6 7 4.9 10.7.6 1.8 3.5 1 2.9-.8-1.7-4.7-3.8-9.3-6.5-13.5-1.7-2.7-4.3-7.3-7.4-8.6-3.5-1.5-7.8 1.6-10.7 3.3-4.9 2.8-9.4 6.2-13.6 10-1.4 1.3.7 3.4 2.1 2.1z" fill="#DBC7BE"/>
      <path d="M534 55.6c7.8-6.6 16.3-12 25.7-16.1 1.8-.8.2-3.4-1.5-2.6-9.6 4.2-18.3 9.8-26.3 16.6-1.5 1.2.6 3.3 2.1 2.1zM551.4 27.4c3.8-3.2 12.3-11.3 17-6 3.4 3.8 5.6 10 7.6 14.6.8 1.8 3.4.2 2.6-1.5-1.9-4.3-3.9-8.4-6.3-12.4-1.2-2.1-2.7-5.3-5.2-6.2-2.9-1-6 1.1-8.3 2.5-3.4 2-6.5 4.3-9.5 6.8-1.5 1.4.7 3.5 2.1 2.2z" fill="#DBC7BE"/>
      <path d="M544 45.7c4.7 2.1 8.7 4.9 12.4 8.5.7.7 1.8.5 2.4-.3 4.4-6.3 10.2-11.1 17.2-14.4 1.8-.8.2-3.4-1.5-2.6-7.5 3.5-13.6 8.7-18.3 15.4l2.4-.3c-3.8-3.8-8.1-6.7-13-8.9-1.9-.7-3.4 1.8-1.6 2.6z" fill="#DBC7BE"/>
      <path d="M565.1 153.6c.9-.9 1.8-1.7 2.9-2.3.6-.4 1.3-.8 1.9-1.3 1.2-1 2-2 2.6-3.4.7-1.8.5-3.5.3-5.4-.1-.6-.2-1.3-.3-1.9-.1-.7.3-8.8 3.5-6.2 1.5 1.2 3.6-.9 2.1-2.1-2.2-1.8-4.5-1.5-6.5.4-3.4 3.3-1.8 7.2-1.6 11.2.3 6-7.5 6.3-8.2 11.8-.3 2.5.7 4.8 3.3 5.3 1.8.4 2.6-2.5.7-2.8-.2-1.1-.5-2.2-.7-3.3zM583.1 146c.5-2.7-1.3-5.2-1.1-7.9.3-3.7 2.8-6.9 6.2-8.2 1.8-.7 1-3.6-.8-2.9-3.3 1.2-5.9 3.4-7.3 6.7-.7 1.5-1.1 3.2-1.1 4.9 0 .8.1 1.6.2 2.3 0 0 1.5 6.9-.2 5.5-1.6-1.1-3.7 1-2.2 2.2 2.4 1.9 5.8.5 6.3-2.6zM318.1 473.8c1.3-1.5 3.7-2.1 5.6-1.8 1.6.3 3.4 1.1 4.1 2.7.8 1.8-.4 4.9-2.8 4.6-1.9-.3-2.7 2.6-.8 2.9 3.4.5 6.4-1.8 6.9-5.3.6-3.7-2.4-6.7-5.8-7.6-3.5-1-7.9.1-10 3.3-1.9 2.9-1.1 7 2.1 8.6 1.6.9 3.1-1.7 1.4-2.6-1.8-1-2-3.3-.7-4.8z" fill="#342E52"/>
      <path d="M162.5 118.6l1.8.6c.8.1 1.6.6 2.4.8 1.1.3 2.4.4 3.5.1 2.6-.9 3.4-3.4 3.4-5.9 0-2.5-.9-5.2 1.1-7.2 1.6-1.6 4.3-2.2 6.4-1.7 6.9 1.6 6.2 10.3 3.2 15-1 1.6 1.6 3.1 2.6 1.5 3.3-5.3 4.1-13.3-1.3-17.6-4-3.2-10.8-2.6-13.9 1.6-2.1 2.8-.7 5.3-1.3 8.5-1 5.3-8.5.4-11.9 1.6-6.4 2.3-4.5 10.4 1.2 11.9 2.1.3 2.9-2.6 1.1-3.1.6-2 1.2-4.1 1.7-6.1z" fill="#8989C0"/>
      <path d="M818.1 562.9c1.1.6 2.6-.4 2.2-1.7-.9-1.8-.7-3.4.8-4.8.7-3.1 2.3-3.3 4.7-.7.7 1.4 2.7.6 2.8-.8 0-1.3.1-2.7.3-4 .3-3.2 2.4-4 6.1-2.5.8 1.8 3.3.2 2.6-1.5-1.2-2.8-4.4-3.7-7.2-2.6-4.2 1.7-4.7 6.7-4.8 10.6.9-.3 1.9-.5 2.8-.8-1.4-3-5-4.1-8-2.6-3.8 2-4 6.7-3 10.4.7-.6 1.5-1.1 2.2-1.7-3.4-1.7-6.6-1.6-9.9.4-1.6 1.1-.1 3.7 1.5 2.7 2.1-1.6 4.4-1.7 6.9-.4zM723.6 160.9c-.7 5.4 2.5 12.1 8.5 12.7 4.4.4 8.8-4.6 6.1-8.7-2.9-4.5-8.5-1.2-10.8 2-6.5 9.3-.7 27.5 12.7 23.2 3.7-1.2 8.3-5.7 6.2-10-2.6-5.3-8.4.4-9.9 3.4-3.1 6.2-3.9 15.1 2.5 19.5 5 3.4 11.9 1.2 13.5-4.7.4-1.3-1.5-2.7-2.5-1.5-6.9 8.7-1.6 20.7 9.6 21.1 1.9.1 1.9-2.9 0-3-8.4-.3-12.8-9.3-7.5-15.9-.8-.5-1.7-1-2.5-1.5-1.5 5.7-8.5 4.8-11.2.6-2.4-3.9-1.6-9.2.6-13.1.5-1 3.2-5.7 4.8-2.7.8 1.6-2.2 3.9-3.2 4.5-3.1 1.7-7.2 1.2-9.6-1.4-2.5-2.6-3.3-6.6-3-10.1.2-1.9.6-4.1 1.5-5.7.4-.6.9-1.2 1.3-1.8 2.5-2.4 2.4-1.7-.4 2.2-2 .2-3.7-5.3-3.8-6.6-.1-1.3.1-2.6.4-3.8 1-3.7 3.7-6.5 7.4-7.6 1.9-.6 1.1-3.5-.8-3-5.4 1.6-9.2 6.2-9.9 11.9z" fill="#342E52"/>
      <path d="M195.5 210.1c-.8-2.4-.4-4.7 1.4-6.6 2-2.1 4.4-1.8 6.9-1.4 1.8.3 3.2.5 4.9-.5 1.3-.8 2.2-2.3 2.8-3.6.4-1 .7-2 .9-3 .1-.7.3-1.4.4-2 .2-2.4 1.9-3.4 5-3-.1 1.8 2.4 1.9 2.9.4.8-2.3 1.8-4.7 3.9-6.1 3.1-2.1 7.5-1.7 8.1 2.6.3 1.9 3.1 1.1 2.9-.8-.6-4.1-4.5-6.7-8.6-6.1-5 .7-7.7 5.4-9.1 9.7 1 .1 2 .3 2.9.4.2-3-2.6-4.9-5.5-4.5-4.7.6-4.9 5.9-5.9 9.4-.7 2.5-1.3 4.4-4.8 4.3-1 0-2.2-.7-3.3-.7-1.9 0-3.8.7-5.3 1.8-3.3 2.5-4.7 6.7-3.4 10.6.6 1.7 3.5 1 2.9-.9z" fill="#8989C0"/>
      <ellipse fill="#8989C0" cx="755.3" cy="293.2" rx="13" ry="13.9"/>
      <ellipse fill="#8989C0" cx="52.1" cy="301.7" rx="8.6" ry="8.5"/>
      <ellipse fill="#8989C0" cx="179.4" cy="664.4" rx="7.2" ry="7.8"/>
      <ellipse fill="#342E52" cx="740.2" cy="310.1" rx="15.1" ry="14.3"/>
      <ellipse fill="#342E52" cx="441.3" cy="8.6" rx="7.7" ry="8.6"/>
      <ellipse fill="#342E52" cx="863.9" cy="463.6" rx="10.8" ry="12"/>
      <ellipse fill="#342E52" cx="21.9" cy="393.5" rx="21.6" ry="22.1"/>
    </g>
    <path d="M324.4 980.1c-19.4-29.2-45.4-61-42-98.2l-1.5 1.5c3-.1 5.6.4 8.4 1.6 1.1.5 2.7-.3 2.2-1.7-1-2.8-2.8-4.4-4.8-6.5-3.7-3.9-4-7.9-3.8-13 .3-8.1-1.1-15.5-4.5-22.9-.3.7-.6 1.5-.9 2.2l7.8-2.7c.7-.3 1.3-1 1-1.8-6.4-18.6-3.2-39.5-1.8-58.6 1.5-20.4 3.5-40.7 5.9-61-.8.4-1.5.9-2.3 1.3 13.4 8.6 20.6 23.3 26.2 37.6 6.4 16.3 11.9 32.9 16.5 49.8 9.6 34.8 15.4 70.7 17.4 106.8 1.1 20.1 1 40.3-.3 60.4-.1 1.9 2.9 1.9 3 0 4.7-74-6.6-149.5-34-218.5-5.9-14.9-13.5-29.8-27.3-38.7-1.1-.7-2.1.2-2.3 1.3-2.5 21-4.5 42-6 63-1.4 18.9-4.2 39.1 2 57.4.3-.6.7-1.2 1-1.8l-7.8 2.7c-1 .3-1.3 1.3-.9 2.2 2 4.4 3.5 9 4 13.9.4 4.1-.2 8.1.1 12.2.2 2.8.7 5.4 2.4 7.8 2 2.8 5.2 4.6 6.4 7.9.7-.6 1.5-1.1 2.2-1.7-3.2-1.4-6.4-2.1-9.9-2-.9 0-1.4.7-1.5 1.5-3.4 37.8 22.8 70.1 42.5 99.7 1.1 1.4 3.7-.1 2.6-1.7z" fill="#DBC7BE"/>
    <path d="M290.5 726c22.8 61.2 36.5 125.7 40.4 190.9 1.1 18.4 1.4 36.9 1 55.4 0 1.9 3 1.9 3 0 1.5-65.2-6.6-130.6-24.1-193.5-5-18.1-10.9-36-17.4-53.6-.6-1.8-3.5-1-2.9.8z" fill="#DBC7BE"/>
    <path d="M282.4 789.2c14.8 9.2 26.9 21.9 35.4 37.2.9 1.7 3.5.2 2.6-1.5-8.7-15.7-21.2-28.8-36.5-38.3-1.6-1-3.1 1.6-1.5 2.6zM285.4 752.3c8.4 6.3 15.2 14.1 20.5 23.1 1 1.7 3.6.2 2.6-1.5-5.6-9.5-12.8-17.6-21.6-24.2-1.5-1.1-3 1.5-1.5 2.6zM329.4 871.4c1.8-12.4 5.3-24.5 10.5-35.9.8-1.7-1.8-3.3-2.6-1.5-5.3 11.7-8.9 23.9-10.8 36.7-.3 1.8 2.6 2.6 2.9.7z" fill="#DBC7BE"/>
    <path d="M336.6 814.6c9.2-30.5 25.1-58.1 41-85.5-.9-.1-1.8-.2-2.7-.4 8.2 40 15 80.2 20.2 120.7l1.5-1.5-10.5-.6c-1.2-.1-2.1 1.8-1.1 2.6 6 4.6 5.4 12.6 4.7 19.4-.9 9-1.9 17.9-2.9 26.9.6-.5 1.3-1 1.9-1.4-2.7-.6-5.3-.8-8.1-.8-1.1 0-1.9 1.3-1.3 2.3 7.7 13.2-4.3 27-9.9 38.4-5.6 11.5-9.2 23.9-11 36.6-.3 1.9 2.6 2.7 2.9.8 2.1-15.4 7.1-30 14.8-43.5 5.8-10.2 12.5-22.3 5.8-33.8-.4.8-.9 1.5-1.3 2.3 2.5-.1 4.9.1 7.3.7 1 .2 1.8-.4 1.9-1.4 1.1-10.3 2.7-20.6 3.2-30.9.3-6.4-.6-13.3-5.9-17.5-.4.9-.7 1.7-1.1 2.6l10.5.6c.7 0 1.6-.7 1.5-1.5-5.3-40.7-12.1-81.3-20.4-121.5-.3-1.3-2.1-1.4-2.7-.4-16 27.6-32 55.5-41.3 86.2-.4 1.6 2.5 2.4 3 .6z" fill="#DBC7BE"/>
    <path d="M374.8 732.4c-10.1 59.6-17 119.8-20.7 180.2-.1 1.9 2.9 1.9 3 0 3.6-60.1 10.5-120 20.5-179.4.4-1.9-2.5-2.7-2.8-.8z" fill="#DBC7BE"/>
    <path d="M344.5 792.9c4.1 13.9 8.9 27.5 14.3 40.9.7 1.8 3.6 1 2.9-.8-5.4-13.4-10.1-27.1-14.3-40.9-.6-1.9-3.5-1.1-2.9.8zM2.7 851.9c34.3-11.3 71.9-18.7 108.1-16.8 18.8 1 36.7 6.8 54.5 12.2 17.3 5.2 34.6 10.6 52 15.6 19.6 5.6 39.4 10.1 59.7 11.5 1.9.1 1.9-2.9 0-3-37.4-2.4-73.5-15.6-109.1-26.4-16.9-5.1-33.7-10.8-51.4-12.5-18.2-1.7-36.7 0-54.7 2.5-20.4 2.9-40.5 7.6-60 14-1.7.6-.9 3.5.9 2.9z" fill="#DBC7BE"/>
    <path d="M109.4 833.9c29.2-6.4 58.5-12.8 87.3-21.1 28.3-8.2 55.9-21.1 85.4-24.7 1.9-.2 1.9-3.2 0-3-29.1 3.6-56.3 16.1-84.3 24.3-29.3 8.6-59.2 15.1-89.1 21.7-2 .3-1.2 3.2.7 2.8zM325.4 781.3c8-.5 16.1-.6 24.1-.3 1.9.1 1.9-2.9 0-3-8.1-.3-16.1-.2-24.1.3-1.9.2-1.9 3.2 0 3zM41.1 970.2c33.6-4.8 66.9 3.7 99.9 8.9 15.7 2.5 31.5 4 47.4 3.6 17.8-.5 35.6-2.3 53.2.8 1.9.3 2.7-2.6.8-2.9-17.3-3-34.6-1.5-52.1-.9-17.6.6-34.9-1.2-52.2-4-32.4-5.3-64.9-13-97.8-8.3-1.9.2-1.1 3.1.8 2.8zM240.9 1009.4c.4-3.1 12.3-1.7 14.4-1.7 2.6 0 12.2-1.5 13.5 1.3.2-.7.4-1.4.5-2.1-4.9 3.3-10.3 4.7-16.2 4.3-1.9-.1-1.9 2.9 0 3 6.4.4 12.3-1.2 17.7-4.7.7-.5.9-1.3.5-2.1-.9-1.9-2.4-2.4-4.4-2.7-4.7-.7-9.9-.1-14.6-.1-4.5 0-13.8-1.7-14.5 4.7-.2 2 2.9 2 3.1.1zM243.1 959.9c-1.9 1-3.9.7-5.9-.9l-.3 2.4c2.5-1.9 5.4-3.1 8.6-3 2.6.1 4.9 1.5 7.5 1.6 2.4.1 4.6-.9 7-1.2 3.8-.6 7.3.2 10.7 2.1 1.7.9 3.2-1.6 1.5-2.6-2.5-1.4-5-2.4-7.9-2.6-4.1-.4-7.9 1.8-11.8 1.3-3.2-.4-5.8-1.7-9.2-1.4-3 .3-5.6 1.5-8 3.3-.7.5-1.1 1.7-.3 2.4 2.7 2.2 5.5 2.9 8.8 1.7 1.9-.8 1.1-3.7-.7-3.1zM91.5 1002.3c5.1 6.3 11.9.4 17.6-.8 4.7-1 8.4 1.8 13 1.8 4.9 0 10.2-2.3 14.5.8 1.6 1.1 3.1-1.5 1.5-2.6-2.6-1.9-5.4-2.2-8.6-2-4.8.4-8.6 1-13.4-.5-3.3-1.1-6.1-1.1-9.4.1-4 1.5-9.7 5.5-13.3 1.1-1-1.5-3.2.7-1.9 2.1zM414.5 982.3c6.6-2.6 11.9-1.8 18.8-1 4.3.5 7.3-1 11.1-2.7 4-1.8 6.7-.9 10.3 1.1 1.5.8 2.9 1.5 4.6 1.8 5.1 1 12-2.4 16.3 1.3 1.5 1.3 3.6-.9 2.1-2.1-3.8-3.2-7.9-2.5-12.6-2.1-3.9.3-6.9-.4-10.2-2.3-2-1.1-3.9-2.1-6.2-2.1-2.1 0-4 .9-5.9 1.7-4.5 2-7.2 2.6-12.2 1.8-5.9-.9-11.3-.6-16.9 1.6-1.8.8-1 3.7.8 3zM1072.6 821.7c35.5-16.3 71.2-32.7 108.6-44.1 37.7-11.4 76.9-17 116.3-16.1 22.4.5 44.8 3.1 66.8 7.6 1.9.4 2.7-2.5.8-2.9-39.2-8.1-79.5-9.9-119.2-5.2-39.4 4.6-77.1 16.2-113.8 31.1-20.6 8.4-40.9 17.7-61.1 27-1.6.8-.1 3.4 1.6 2.6zM1235.1 825c23.4-8.5 47.4-15.1 71.9-19.5 12.6-2.3 25.2-3.9 38-5.1 9.2-.8 26.3-4.7 32.9 4.1 1.1 1.5 3.8 0 2.6-1.5-5.7-7.6-15.6-6.9-24.2-6.4-13.6.8-27.3 2.3-40.8 4.4-27.7 4.3-54.9 11.5-81.2 21.1-1.8.7-1 3.6.8 2.9zM1072.7 760.8c27.4-6 56.1-2.8 81.4 9.3 1.7.8 3.3-1.8 1.5-2.6-26.1-12.4-55.5-15.8-83.7-9.6-1.9.4-1.1 3.3.8 2.9zM1133.8 898.4c4.3-5.1 11.1.7 15.6 2.5 3.7 1.5 6.6 1.1 10.2-.5 5.8-2.6 10.5-.3 16.3-.5 6-.2 10.9-5.9 16.4-.9 1.4 1.3 3.6-.8 2.1-2.1-3.6-3.2-7.5-3.8-12-2.2-2.3.9-4 2-6.6 2.2-2 .1-4-.4-6-.6-2.4-.3-4.8-.7-7.1-.3-3.8.7-6.8 3.7-11 2.6-3-.8-5.5-2.9-8.4-4.1-4.1-1.6-8.8-1.9-11.8 1.7-1.1 1.6 1 3.7 2.3 2.2zM1249.1 975.2c-6.4-20.4-9.3-41.6-8.5-63-.8.4-1.5.9-2.3 1.3 2.2 1.1 4.5 2.2 6.7 3.3 1.1.5 2.2-.1 2.3-1.3 1.4-20.6 6-40.7 13.5-60-.7.3-1.5.6-2.2.9 1.2.6 2.4 1.2 3.7 1.9.5.3 1.4.3 1.8-.2 7.8-9.8 16.4-18.8 26-26.9l-2.4-.3c7.1 9.9 6.6 22.9 6.1 34.5-.6 12.9-2.3 25.6-5.2 38.2-5.7 24.4-15.6 47.6-29.3 68.6-1.1 1.6 1.5 3.1 2.6 1.5 14.5-22.1 24.9-46.8 30.4-72.7 2.7-12.6 4.3-25.4 4.7-38.2.3-11.4.4-23.8-6.6-33.5-.6-.8-1.6-1-2.4-.3-9.6 8.1-18.2 17-26 26.9.6-.1 1.2-.2 1.8-.2-1.2-.6-2.4-1.2-3.7-1.9-.9-.5-1.8 0-2.2.9-7.6 19.5-12.1 39.9-13.6 60.8.8-.4 1.5-.9 2.3-1.3-2.2-1.1-4.5-2.2-6.7-3.3-1-.5-2.2.1-2.3 1.3-.8 21.6 2.1 43.1 8.6 63.7.6 1.9 3.5 1.1 2.9-.7z" fill="#DBC7BE"/>
    <path d="M1293.6 899.4c6.8-14.6 14.8-28.6 23.8-41.9-.6.2-1.1.5-1.7.7 5.8 1.5 9-3.8 12-7.8 5.5-7.4 12.4-13.3 20.5-17.8-.7-.3-1.5-.6-2.2-.9 9.1 28.4 3.3 57.8-13.7 82-8 11.4-17.2 22.3-26.6 32.6-9.4 10.1-19.7 19.2-32.1 25.5-1.7.9-.2 3.5 1.5 2.6 12.6-6.4 23.2-15.7 32.7-26 10-10.9 19.8-22.4 28.1-34.6 16.7-24.5 22.1-54.4 13-82.8-.3-.9-1.3-1.4-2.2-.9-5.4 3-10.4 6.6-14.9 11-2 2-3.9 4.2-5.7 6.5-2.2 2.8-5.1 8.9-9.6 7.8-.7-.2-1.3.1-1.7.7-9 13.3-17 27.3-23.8 41.9-.8 1.6 1.8 3.2 2.6 1.4zM1279.5 848.7c-6.9 18.8-15.3 37.7-19.8 57.3-4.6 20-7.4 40.5-10.8 60.7-.3 1.9 2.6 2.7 2.9.8 3.5-20.2 6.2-40.8 10.8-60.7 4.5-19.6 12.9-38.4 19.8-57.3.7-1.8-2.2-2.6-2.9-.8z" fill="#DBC7BE"/>
    <path d="M1332.2 863.6c-11.1 17.8-22.2 35.6-33.3 53.3-10.1 16.2-21 32.1-28 49.9-.7 1.8 2.2 2.6 2.9.8 7.2-18.1 18.5-34.4 28.8-50.9 10.7-17.2 21.5-34.4 32.2-51.7 1-1.6-1.6-3.1-2.6-1.4zM1253.1 867.3c1 10.1 3.4 19.8 7.1 29.2.7 1.8 3.6 1 2.9-.8-3.6-9.1-6-18.6-7-28.4-.2-1.9-3.2-2-3 0zM1261.3 915.4c11.5-9.9 22.1-20.7 31.9-32.3 1.2-1.5-.9-3.6-2.1-2.1-9.8 11.6-20.4 22.4-31.9 32.3-1.5 1.3.7 3.4 2.1 2.1z" fill="#DBC7BE"/>
    <path d="M1307 867.9c-.9 10.1-.7 20.1.6 30.1.2 1.9 3.2 1.9 3 0-1.3-10-1.5-20.1-.6-30.1.2-2-2.8-2-3 0zM129.1 543.5c-14.5-4-25-18.1-24.8-33.2.2-16.9 15.4-34.9 33.1-34.5 18.6.5 28.6 23.1 26.8 39.4-2.1 19.4-21.4 31.6-39.9 26.5-1.9-.5-2.7 2.4-.8 2.9 14.9 4.1 31-1.7 39-15.1 8-13.5 5.3-31.4-3.2-44.1-8.6-12.8-24.8-16-38.1-8.3-12.7 7.5-21.4 23-19.6 37.8 1.8 14.6 12.5 27.5 26.7 31.4 1.9.6 2.7-2.3.8-2.8zM98.9 619.4c3.1 3.6 7.2 6 12 6.5 2.5.3 5 0 7.4-.9 3.8-1.3 6.9-4.1 11.3-3.3 5.5.9 9.6 4.7 15.4 4 6.3-.7 11.8-5.2 18.4-4.7 6 .5 11.1 4.6 17 5.8 5.2 1.1 8.5-.8 12.9-3.1 11.3-6 24.2 1.6 36-2.4 1.8-.6 1-3.5-.8-2.9-10.6 3.5-21.7-2.3-32.4.8-5.9 1.7-9.6 6.1-16.3 4.4-5.1-1.3-9.5-4.4-14.7-5.3-4.9-.9-9.2.8-13.7 2.5-2.6 1-5.4 2.1-8.3 2.1-3.6 0-6.6-2-9.8-3.2-4.6-1.7-8-1.1-12.4.9-7.2 3.3-14.5 3.2-19.9-3.3-1.2-1.5-3.4.6-2.1 2.1zM176.2 593.3c7.9 4.4 17-2.1 24.8 2 3.1 1.6 5.1 4.2 8.9 3.7 3.1-.4 5.5-2.8 7.9-4.6 5.4-4.2 9.8-3.2 15.7-.8 4.4 1.8 8.6 2.9 13.3 2.8 10.6-.2 21.1-4.8 31.6-1.3 1.8.6 2.6-2.3.8-2.9-9-3-18-.4-27.1.7-5.4.7-10.5.6-15.6-1.4-4.2-1.6-8.4-4-13.1-3.4-3.1.4-5.4 2.2-7.8 4.1-2 1.6-3.9 3.6-6.6 3.6-2.7.1-4.3-2-6.6-3.2-7.8-4.3-17.1 2.3-24.8-2-1.6-.9-3.1 1.7-1.4 2.7zM1063.5 530.9c6-1.6 10.3-1.6 15.6 1.9 2.6 1.7 5.3 3 8.4 3.6 5.5 1 11.2-.3 16.5-1.7 6.5-1.8 13.1-4.2 19.9-4.2 7.2 0 13.1 5 20.4 4.4 13.6-1.2 22.1-14.7 36.7-13.1 12.7 1.4 25.3 9.4 37.8 3.3 1.7-.8.2-3.4-1.5-2.6-13 6.3-27.1-4.3-40.5-3.8-6.1.2-11.3 2.8-16.5 5.8-6.3 3.8-13.2 9-21.1 7.1-3.6-.8-6.7-2.8-10.3-3.6-2.8-.6-5.6-.6-8.4-.3-6.2.6-12.1 2.7-18 4.3-6.9 1.8-14.1 3.1-20.6-.8-2.7-1.7-5.1-3.7-8.3-4.3-3.7-.7-7.4.3-10.9 1.2-1.8.4-1.1 3.3.8 2.8zM1172.4 557.3c5.7-3.3 12.3-3.9 18.3-1.1 3.6 1.6 6.4 3.7 10.5 3.4 9.3-.7 15.7-8.9 25.4-4.5 2.9 1.3 5.7 2.7 9 2.2 4.1-.7 7-4 10.7-5.4 9.1-3.5 19.4 1.6 28.9-.5 1.9-.4 1.1-3.3-.8-2.9-9.4 2-19.1-2.8-28.4.3-4.3 1.4-7.6 5.5-12.3 5.5-4.7 0-8.4-3.8-13.3-3.7-9 .2-16.2 9.2-25.4 4.8-8.2-4-16-5.2-24.3-.4-1.5.6 0 3.2 1.7 2.3zM1094.5 706.7c6.4-2 10.9-.4 16.7 2.1 3.2 1.3 6.2 1.6 9.6 1 4.2-.9 8-2.9 12.1-4 6.2-1.6 9.7 1.8 15.1 3.9 8 3.1 14.5-2.6 21.9-4.4 9.4-2.3 18 4.4 27.5 3 1.9-.3 1.1-3.2-.8-2.9-9.2 1.4-17.5-5.2-26.8-3.1-4.4 1-8.2 3.4-12.5 4.7-6.3 1.9-9.9-1.5-15.4-3.7-7.5-2.9-14.1 1.9-21.3 3.5-5.2 1.2-8.7-1.4-13.4-3-4.5-1.5-9.1-1.3-13.5.1-1.9.5-1.1 3.4.8 2.8z" fill="#DBC7BE"/>
    <path d="M1286.6 1010.2c-133.9 25.6-267.9 51.1-401.8 76.7-160.3-50-320.5-100-480.8-150 213.7.8 427.4 1.5 641 2.3 80.6 23.7 161.1 47.4 241.6 71z" fill="#666" opacity=".22"/>
    <path d="M1131 972.4c-112.9 27.1-225.9 54.2-338.8 81.3-127.4-38.9-254.9-77.8-382.3-116.8 172.8-14.5 345.7-29 518.5-43.5 67.5 26.4 135 52.7 202.6 79z" fill="#666" opacity=".19"/>
    <g transform="translate(403 433)">
      <path d="M.5 201.5C2 301.2 3.6 400.9 5.1 500.7c126.6 28.6 253.1 57.1 379.7 85.7-.2-115.4-.5-230.8-.7-346.2-127.9-13-255.8-25.9-383.6-38.7zM663.5 175.2l-1.5 330c-92.1 27.1-184.3 54.1-276.4 81.2-.3-116.7-.6-233.3-.9-350 92.9-20.3 185.9-40.7 278.8-61.2z" stroke="#161616" stroke-width="2" fill="#FFF"/>
      <path d="M381.5 239.2C255 226.1 128.6 213 2.2 199.9l249.9-63.6c136.2 13.1 272.5 26.2 408.7 39.4-93.1 21.1-186.2 42.3-279.3 63.5z" stroke="#161616" stroke-width="2" fill="#FFF"/>
      <path d="M474.1 157.8c-32.5-2.2-64.9-4.4-97.4-6.6-64 23.4-128 46.8-191.9 70.2-.6 106.1-1.2 212.2-1.9 318.3 28.7 6.9 57.4 13.7 86.1 20.6-1.2-109.9-2.5-219.7-3.7-329.6 69.6-24.2 139.2-48.6 208.8-72.9z" stroke="#161616" stroke-width="2" fill="#161616"/>
      <path d="M502.1 551c26.5-8.1 53.1-16.2 79.6-24.3-.9-109.9-1.9-219.7-2.8-329.6-129.8-15.3-259.7-30.6-389.5-45.9-22.5 5.6-44.9 11.2-67.4 16.9 127 19.7 254 39.3 381.1 59-.3 108-.6 215.9-1 323.9z" stroke="#161616" stroke-width="2" fill="#161616"/>
      <path d="M508.8 8.8c9.2 3.8 10.7 27.6 5.7 46.2-19.2 71.3-143.5 100.2-149.4 89.3-2.5-4.7 18.9-13.6 63.9-58.2 49.6-49.2 67.7-82.2 79.8-77.3zM253 55.7c2.4 11.3 8.3 24.4 46.2 60.8 25.4 24.4 38.2 36.6 41.8 34.2 7.3-5-16.9-53.1-39.9-87.4-11.8-17.6-32.5-48.3-43-44.3-7.5 2.8-8.1 22.6-5.1 36.7z" stroke="#161616" stroke-width="2" fill="#FFF"/>
      <ellipse stroke="#161616" stroke-width="2" fill="#161616" cx="348.4" cy="164.4" rx="26.6" ry="28.1"/>
      <path d="M348.9 153c15.1-14.7 30.4-30.3 45.7-46.6 33.8-36 63.9-71.5 90.6-105.9 5.8-.7 17.2-1.4 22 5.1 7 9.3-4.1 27.7-9.3 36.4-26.5 44.1-110.8 91-149 111zM259.1 17.5c3.7-3.4 15.2 3.5 22 7.6 56.4 33.9 63.3 114.1 64.4 128.7-46-59.4-95.7-127.6-86.4-136.3z" stroke="#161616" stroke-width="2" fill="#161616"/>
      <path d="M21.4 255.5c45.6.8 91.4.6 136.9 2.7 46 2.1 91.6 8.5 137 16.4 25.6 4.5 51.2 9.4 76.8 14.4 1.9.4 2.7-2.5.8-2.9-44.8-8.7-89.7-17.3-135-23.4-45.8-6.1-91.6-8.1-137.8-8.9-26.2-.4-52.5-.9-78.7-1.3-1.9 0-1.9 3 0 3zM409.9 287.5c76.6-23 154.7-40.9 233.8-53.5 1.9-.3 1.1-3.2-.8-2.9-79 12.6-157.1 30.5-233.8 53.5-1.8.5-1 3.4.8 2.9zM272.3 425.2V516c0 1.9 3 1.9 3 0v-90.8c0-1.9-3-1.9-3 0zM282.2 497.9v45.4c0 1.9 3 1.9 3 0v-45.4c0-2-3-2-3 0zM489.2 348.1v72.6c0 1.9 3 1.9 3 0v-72.6c0-1.9-3-1.9-3 0zM494.6 448.8v49c0 1.9 3 1.9 3 0v-49c0-1.9-3-1.9-3 0z" fill="#161616"/>
      <path d="M75.3558908 425.4519182c-14.6416633-13.07424-19.45536084-31.3781764-12.2348146-47.3941205 7.4211171-16.1793722 27.0770485-30.0707524 50.5438238-29.4170403 20.6587855.653712 37.306156 12.4205281 43.323278 23.5336322 4.412556 8.4982561 3.409702 16.3428002 3.409702 16.3428002-.601712 4.412556-2.406849 7.844544-3.810844 9.969108-10.2291069-9.642252-25.8736236-14.054808-40.5152873-11.276532-18.0513655 3.4319881-25.873624 16.0159444-26.6759069 17.1599404-8.2233999 13.727952-1.0028536 26.475336 0 27.946188-4.8136975-2.45142-9.4268243-4.739412-14.039951-6.863976z" fill="#342E52"/>
      <path d="M91.2009769 432.6427529c-21.8622093-5.556552-33.69588217-20.5919285-35.50101872-38.7324365C53.89482164 375.442952 58.3073776 357.6293 79.367304 347.987048c18.6530782-8.49825644 40.9164289-6.046836 57.5637998 4.249128 16.6473702 10.295964 31.4896042 31.3781764 18.0513652 47.5575484-2.206278 2.614848 3.008561 5.066268 5.214839 2.45142 14.441093-17.323368.802283-40.2032884-16.8479409-52.1335324-18.2519367-12.25710044-42.9221362-16.01594444-64.3832046-7.35426-24.87077014 9.969108-31.2890334 30.23418-29.28332614 51.3163924 2.00570728 20.4285 15.24337524 37.2615845 39.91357474 43.4718486 3.6102736.81714 5.2148394-3.9222721 1.6045658-4.9028401z" fill="#161616"/>
      <path d="M96.8169578 434.440461c-9.226254-12.4205281-6.2176931-29.7438966 8.6245413-38.4055806 14.8422338-8.661684 36.1027314-5.066268 47.3346919 6.046836 2.406849 2.45142 6.618834-.980568 4.211986-3.431988-13.2376685-12.910812-38.1084392-16.506228-55.3575217-6.53712-17.2490831 10.132536-20.8593562 30.3976085-10.0285369 44.7792726 2.0057078 2.614848 7.2205467.163428 5.2148394-2.45142z" fill="#161616"/>
      <path d="M117.4757427 441.304437c-9.4268242-8.1714001-8.0228291-23.3702041 4.6131268-29.2536126 12.435385-5.883408 29.2833265.81714 33.2947415 11.6033885 1.203424 2.941704 7.019975 1.797708 5.816551-1.307424-5.214839-13.7279525-26.274766-21.8993525-42.1198535-14.3816645-15.8450874 7.5176885-17.8507947 26.4753366-5.816551 36.9347286 2.6074194 2.124564 6.8194047-1.307424 4.2119852-3.595416z" fill="#161616"/>
      <path d="M132.9196887 452.744397c7.8222589 2.287992 16.8479413-1.470852 19.8565023-7.517688 3.209132-6.046836-1.002853-12.5839561-8.0228288-15.1988041-7.0199755-2.614848-15.4439466-1.143996-19.2547904 4.4125561-3.6102731 5.393124-2.4068487 12.747384 3.6102731 16.669656 3.0085609 1.961136 7.2205462-1.470852 4.2119853-3.431988-8.0228291-5.066268-2.4068487-16.9965121 8.2234003-13.401096 4.6131268 1.470852 7.8222585 5.393124 5.6159804 9.478824-2.206278 3.922272-7.8222584 5.883408-12.6359564 4.412556-3.610273-1.143996-5.2148389 3.595416-1.6045658 4.575984z" fill="#161616"/>
      <path d="M657.1 504.8c-90.4 27.5-180.8 55.1-271.2 82.6V243c90.9-20.8 181.8-41.6 272.7-62.3-.4 108-.9 216-1.5 324.1z" fill="#666" opacity=".21"/>
      <path d="M663.1 506.1C571 531.3 479 556.5 386.9 581.7c-.6-100.5-1.2-200.9-1.9-301.4 40.7 37.3 81.5 74.6 122.2 112 51.6-17.1 103.3-34.2 154.9-51.3.4 55 .7 110.1 1 165.1z" fill="#666" opacity=".21"/>
      <path d="M513.3 14c-4.9-1-10.1 32.7-27.2 60.4-15.5 25.1-46.4 54.5-114.5 71.5 8.8-.8 22.2-2.6 37.9-7.2 16.3-4.7 85.1-24.7 103.2-78.4 7.4-22.2 4.6-45.5.6-46.3z" fill="#666" opacity=".14"/>
      <path d="M266.4 228.2c28.9 19.6 57.9 39.2 86.8 58.8-26.6-4.6-53.1-9.1-79.7-13.7 1.1 53.4 5.5 113.3 15.7 178.3 6.7 42.7 15 82.4 24.2 118.8-14.1-3.9-28.3-7.8-42.4-11.8-1.5-110.1-3-220.3-4.6-330.4z" fill="#666" opacity=".2"/>
      <path d="M273.4 229.1c42.5-6.1 85.1-12.2 127.6-18.3-18.7-2.5-37.4-5-56.1-7.4-12.9 4.8-23.5 8.1-30.9 10.3-7.6 2.2-13.3 3.6-21.8 6.9-8.1 3.1-14.6 6.3-18.8 8.5z" fill="#666" opacity=".13"/>
    </g>
    <g>
      <path d="M1022.6 915.7c-2.8 2.6-5.5 5.3-8.3 7.9l14.4 55.5c3.8-1.9 7.7-3.7 11.5-5.6-5.8-19.3-11.7-38.6-17.6-57.8zM1028.1 907c-2.8-.8-5.5-1.6-8.3-2.4-.5-9.6-1.1-19.2-1.6-28.8 16.3-5.9 32.7-11.8 49-17.8 1.4.4 2.9.8 4.3 1.2-14.4 15.9-28.9 31.9-43.4 47.8z" stroke="#161616" stroke-width="3" fill="#161616"/>
      <path d="M1027.6 875.8c.4 10.6.9 21.1 1.3 31.7 13.9-4 27.7-7.9 41.6-11.9.2-11.9.4-23.7.7-35.6-14.6 5.3-29.1 10.5-43.6 15.8zM1023 915.4c17.2-4.4 34.3-8.8 51.5-13.2-.6 5.1-.9 10.9-.7 17.2.7 16.6 5.1 30.2 9.2 39.6-14.3 4.8-28.6 9.7-42.9 14.5-5.7-19.4-11.4-38.7-17.1-58.1z" stroke="#161616" stroke-width="3" fill="#FFF"/>
      <path d="M1040.7 903.9c-.1 1.8.2 3.6.9 5.3.7 1.8 3.6 1 2.9-.8-.6-1.5-.8-3-.8-4.5.1-1.9-2.9-1.9-3 0zM1049.9 902.3c-.2 1.6.1 3.2.7 4.6.3.7 1 1.3 1.8 1 .7-.2 1.4-1.1 1-1.8-.5-1.3-.7-2.5-.6-3.8.1-.8-.7-1.5-1.5-1.5s-1.4.7-1.4 1.5zM1037.2 975.9c2.1 9.8 11.5 18.7 19.2 24.7 8.5 6.6 18.5 10.5 29.1 11.7 1.9.2 1.9-2.8 0-3-10.3-1.2-20.2-5.2-28.3-11.9-6.8-5.6-15.2-13.6-17.1-22.3-.4-1.9-3.3-1.1-2.9.8z" fill="#161616"/>
      <path d="M1044.2 973.3c9.8 14.9 22.8 28.7 41.2 31.7 1.9.3 2.7-2.6.8-2.9-17.7-2.9-30-16-39.5-30.3-1-1.7-3.6-.2-2.5 1.5z" fill="#161616"/>
      <path d="M1087 1003.2c.7-3.1 1.7-6.1 3.2-9 .6-1.1 1.5-2.2 1.9-3.3-.9-1.8-1.2-1.7-.7.2.2 1 .3 2 .4 3.1.2 2.8 0 5.5-.3 8.3-.1 1.2 0 5.3-.8 6.2-.8.9-2.6.8-3.6.9-1.9.1-1.9 3.1 0 3 2-.1 4.1.8 5.7-.9 1.6-1.8 1.3-5.3 1.6-7.5.5-3.8.7-7.7.3-11.6-.2-1.8-.1-4.3-1.8-5.2-.4-.2-1.1-.3-1.5 0-4.1 3.2-6.2 10.4-7.3 15.1-.5 1.8 2.4 2.6 2.9.7zM1067.3 965.3c9.3 11.3 23.7 16.7 38.1 14.8 1.9-.3 1.1-3.1-.8-2.9-13.4 1.8-26.7-3.6-35.2-14-1.2-1.5-3.3.6-2.1 2.1z" fill="#161616"/>
      <path d="M1059.3 969.1c11.2 12.1 27.1 18.8 43.6 18.3 1.9-.1 1.9-3.1 0-3-15.8.5-30.8-5.8-41.5-17.4-1.2-1.5-3.4.7-2.1 2.1zM1107.6 978.2c.5-1.9 1.1-3.8 1.8-5.6.2-.6 2-6.3 2.7-6.3-.5-.4-1-.7-1.4-1.1 1 3 .3 7.2 0 10.2-.4 3.7-1.2 7.3-2.2 10.9-.5 1.9 2.4 2.7 2.9.8 1.1-3.8 1.9-7.7 2.3-11.7.3-3.3 1-7.8-.1-11-.2-.6-.8-1.1-1.4-1.1-4.5.3-6.5 10.7-7.4 14.1-.6 1.9 2.3 2.7 2.8.8z" fill="#161616"/>
      <path d="M1101.8 987.2c2.4 1 4.9 1.4 7.5.9 1.9-.3 1.1-3.2-.8-2.9-1.7.3-3.5.1-5.2-.6-1.7-.8-3.3 1.8-1.5 2.6zM1047.1 988.2c.4-2.4 2.5-3.9 4.9-3.6 1.9.2 1.9-2.8 0-3-3.6-.4-7.2 2.2-7.8 5.8-.4 1.9 2.5 2.7 2.9.8zM1055.9 997.1c.4-2 1.9-3.4 3.8-3.8 1.9-.4 1.1-3.3-.8-2.9-2.9.6-5.3 2.9-5.9 5.8-.4 2 2.4 2.8 2.9.9zM1065.2 1004.2c.7-2.1 2.4-3.6 4.6-4 1.9-.4 1.1-3.3-.8-2.9-3.2.6-5.7 3-6.7 6.1-.6 1.8 2.3 2.6 2.9.8zM1075 1000.7c-2.3 1.6-3.4 4.2-2.9 7 .3 1.9 3.2 1.1 2.9-.8-.2-1.4.4-2.8 1.5-3.6 1.6-1.1.1-3.7-1.5-2.6zM1090.5 992.1c-1.9 5.1-.9 11.7-.9 17.1 0 1.9 3 1.9 3 0 0-5.1-1-11.5.8-16.3.6-1.8-2.3-2.6-2.9-.8zM1074.4 977.1c0-1.6 1-3 2.6-3.4 1.9-.5 1.1-3.4-.8-2.9-2.8.7-4.8 3.4-4.8 6.3 0 1.9 3 1.9 3 0zM1066.3 971.8c.8-1.6 2.3-2.6 4.1-2.9.8-.1 1.2-1.1 1-1.8-.2-.9-1-1.2-1.8-1-2.5.4-4.7 2-5.9 4.3-.8 1.6 1.8 3.1 2.6 1.4zM1090.5 983c0-.8.4-1.5 1.2-1.9 1.7-.9.2-3.5-1.5-2.6-1.7.9-2.7 2.7-2.6 4.5-.1 1.9 2.9 1.9 2.9 0zM1034.9 889.1h6c1.9 0 1.9-3 0-3h-6c-1.9 0-1.9 3 0 3zM1058.8 882.7l4.5-4.5c1.4-1.4-.8-3.5-2.1-2.1l-4.5 4.5c-1.3 1.3.8 3.4 2.1 2.1zM1047.5 893.5c2.8.9 5.8-.4 7.3-2.8 1-1.7-1.6-3.2-2.6-1.5-.8 1.4-2.4 1.9-3.9 1.5-1.9-.6-2.6 2.3-.8 2.8z" fill="#161616"/>
      <path d="M1067.9 924.7l-15.6 4.5c-.7-1.4-1.6-3.4-2-6-.5-2.9-.3-5.3 0-6.9l16.8-3.3c-.5 1.5-1 4.1-.5 7.2.3 1.9.8 3.4 1.3 4.5z" fill="#342E52"/>
      <path d="M1038 872.5c.3 10 .7 20.1 1 30.1 10.3-2.7 20.6-5.3 30.9-8 .1-11 .2-21.9.2-32.9-10.6 3.7-21.4 7.2-32.1 10.8zM1038 913.6c1.4 6.8 3.2 14 5.2 21.4 3.3 11.9 7.1 22.8 11 32.6 9-3.1 17.9-6.1 26.9-9.2-2.2-4.7-4.3-10.3-6-16.7-3.9-15.2-3.4-28.5-2.2-37.6-11.6 3.2-23.2 6.4-34.9 9.5z" fill="#666" opacity=".24"/>
    </g>
  </g>
</svg>